<?xml version="1.0" encoding="UTF-8" standalone="no"?>
<!-- Created with Inkscape (http://www.inkscape.org/) -->

<svg
   width="20.659487mm"
   height="27.122059mm"
   viewBox="0 0 78.083102 102.50857"
   version="1.1"
   id="svg5"
   xml:space="preserve"
   xmlns="http://www.w3.org/2000/svg"
   xmlns:svg="http://www.w3.org/2000/svg"><defs
     id="defs2" /><g
     id="layer1"
     transform="translate(-338.59941,-472.80407)"><path
       fill="#ffdc5d"
       d="m 400.82754,575.17475 c 0,0 -2.436,-0.167 -3.068,-1.792 -0.646,-1.659 0.622,-2.309 0.622,-2.309 0,0 -1.914,0.059 -2.622,-1.941 -0.668,-1.885 0.958,-2.75 0.958,-2.75 0,0 -1.871,-0.307 -2.417,-2.292 -0.46,-1.671 1.166,-2.916 1.166,-2.916 h -12.208 c -0.959,0 -2.575,-0.542 -2.576,-2.543 -0.002,-2 1.659,-2.457 2.576,-2.457 h 20.5 c 1,0 1,-1 0,-1 h -2.666 c -3.792,0 -6.143,-2.038 -6.792,-2.751 -0.65,-0.713 -0.98,-1.667 -0.734,-2.82 0.415,-1.956 1.92,-1.529 3.197,-0.975 3.078,1.337 7.464,2.254 9.538,2.533 5.858,0.791 10.375,5.809 10.381,11.884 0.004,6.626 -5.298,12.124 -11.924,12.129 z"
       id="path69" /><path
       fill="#ffdc5d"
       d="m 354.45543,575.31264 c 0,0 2.394,-0.208 3.068,-1.792 0.697,-1.639 -0.622,-2.309 -0.622,-2.309 0,0 1.914,0.059 2.622,-1.941 0.668,-1.885 -0.958,-2.75 -0.958,-2.75 0,0 1.871,-0.307 2.417,-2.292 0.459,-1.671 -1.167,-2.916 -1.167,-2.916 h 12.208 c 0.959,0 2.575,-0.542 2.576,-2.543 0.002,-2 -1.659,-2.457 -2.576,-2.457 h -20.5 c -1,0 -1,-1 0,-1 h 2.666 c 3.792,0 6.143,-2.038 6.792,-2.751 0.65,-0.713 0.979,-1.667 0.734,-2.82 -0.415,-1.956 -1.92,-1.529 -3.197,-0.975 -3.078,1.337 -7.464,2.254 -9.538,2.533 -5.858,0.791 -10.375,5.809 -10.381,11.884 -0.004,6.626 5.298,12.124 11.924,12.129 z"
       id="path78" /><g
       id="g114"
       transform="matrix(1.984252,0,0,1.984252,341.587,472.80408)"><circle
         cx="18"
         cy="18"
         r="18"
         fill="#ffcc4d"
         id="circle87" /><path
         fill="#65471b"
         d="m 20.996,28.477 a 0.978,0.978 0 0 1 -0.309,-0.049 8.647,8.647 0 0 0 -5.375,0 1,1 0 1 1 -0.617,-1.902 10.633,10.633 0 0 1 6.609,0 c 0.525,0.172 0.813,0.736 0.643,1.26 a 1.002,1.002 0 0 1 -0.951,0.691 z M 28.994,10.011 A 1.005,1.005 0 0 0 28.011,9 C 27.944,8.999 26.358,8.944 24.707,7.293 A 1,1 0 1 0 23.293,8.707 C 25.56,10.974 27.901,11 28,11 a 0.995,0.995 0 0 0 0.994,-0.989 z M 12.707,8.707 a 0.998,0.998 0 0 0 -0.324,-1.63 1,1 0 0 0 -1.09,0.216 C 9.652,8.934 8.075,8.998 7.99,9 A 1.0000125,1.0000125 0 0 0 8,11 c 0.099,0 2.44,-0.026 4.707,-2.293 z"
         id="path89" /><path
         fill="#ffffff"
         d="m 24.5,23 a 5.5,5.5 0 1 0 0,-11 5.5,5.5 0 0 0 0,11 z"
         id="path91" /><path
         fill="#292f33"
         d="m 24.5,22 a 5,5 0 1 0 0,-10 5,5 0 0 0 0,10 z"
         id="path93" /><path
         fill="#ffffff"
         d="m 24.337,16.836 c 1.044,-1.046 1.23,-2.552 0.417,-3.364 -0.813,-0.813 -2.32,-0.625 -3.363,0.42 -1.045,1.046 -1.231,2.552 -0.418,3.364 0.814,0.813 2.32,0.625 3.364,-0.42 z m 3.288,2.845 c 0.458,-0.459 0.54,-1.12 0.183,-1.477 -0.357,-0.357 -1.019,-0.274 -1.478,0.185 -0.458,0.459 -0.54,1.12 -0.183,1.477 0.357,0.357 1.019,0.275 1.478,-0.184 z M 11.5,23 a 5.5,5.5 0 1 0 0,-11 5.5,5.5 0 0 0 0,11 z"
         id="path95" /><path
         fill="#292f33"
         d="m 11.5,22 a 5,5 0 1 0 0,-10 5,5 0 0 0 0,10 z"
         id="path97" /><path
         fill="#ffffff"
         d="m 11.337,16.836 c 1.044,-1.046 1.23,-2.552 0.417,-3.364 -0.813,-0.813 -2.32,-0.625 -3.363,0.42 -1.045,1.046 -1.231,2.552 -0.418,3.364 0.814,0.813 2.32,0.625 3.364,-0.42 z m 3.287,2.845 c 0.46,-0.459 0.541,-1.12 0.184,-1.477 -0.357,-0.357 -1.019,-0.274 -1.478,0.185 -0.458,0.459 -0.54,1.12 -0.183,1.477 0.357,0.357 1.019,0.275 1.477,-0.184 z"
         id="path99" /></g></g></svg>
