<?xml version="1.0" encoding="UTF-8" standalone="no"?>
<!-- Created with Inkscape (http://www.inkscape.org/) -->

<svg
   version="1.1"
   id="svg1"
   width="469"
   height="151.5"
   viewBox="0 0 469 151.5"
   sodipodi:docname="splomk.png"
   xmlns:inkscape="http://www.inkscape.org/namespaces/inkscape"
   xmlns:sodipodi="http://sodipodi.sourceforge.net/DTD/sodipodi-0.dtd"
   xmlns="http://www.w3.org/2000/svg"
   xmlns:svg="http://www.w3.org/2000/svg">
  <defs
     id="defs1" />
  <sodipodi:namedview
     id="namedview1"
     pagecolor="#505050"
     bordercolor="#eeeeee"
     borderopacity="1"
     inkscape:showpageshadow="0"
     inkscape:pageopacity="0"
     inkscape:pagecheckerboard="0"
     inkscape:deskcolor="#d1d1d1"
     inkscape:export-bgcolor="#ffffff00" />
  <g
     inkscape:groupmode="layer"
     inkscape:label="Image"
     id="g1">
    <path
       style="fill:#1f8e0a;fill-opacity:1;stroke:none"
       d="m 365.51452,0.05212108 c -1.88955,0.26218 -2.67263,1.64335002 -3.38604,3.25709002 -0.88127,1.99347 -1.68818,4.41426 -0.61582,6.5 1.18626,2.3072699 3.92154,3.5899399 6.10186,4.7691299 2.91116,1.57443 5.75642,3.10311 8.4,5.1193 9.86404,7.52304 17.45815,17.58045 27.1,25.33117 3.48616,2.80239 7.56299,3.60128 11.5,5.50625 4.97075,2.40515 9.47026,5.62218 14.2,8.45416 5.22485,3.12845 10.62012,5.94919 15.9,8.97786 1.38159,0.79251 4.65044,2.48952 4.37832,4.44213 -0.1938,1.3906 -1.95918,2.5668 -2.97832,3.35748 -3.23818,2.51232 -6.9895,4.5027 -10.6,6.42053 -6.92749,3.67977 -14.00454,7.13932 -20.7,11.24089 -5.55222,3.40123 -10.76125,7.119189 -14.58589,12.481099 -2.43479,3.41344 -3.95637,7.35292 -6.65764,10.6 -1.96101,2.35725 -4.57866,3.87908 -6.64753,6.1 -2.96971,3.18794 -5.18301,7.22678 -6.08787,11.5 -0.30925,1.4605 -0.29763,2.92467 -0.43804,4.4 -0.39438,4.1439 -2.75481,10.00795 1.91697,12.45077 0.58838,0.30765 1.24456,0.44971 1.9,0.5203 1.17827,0.1269 2.46919,-0.38052 3.5,-0.89591 2.45261,-1.22631 4.48618,-3.13679 6.5,-4.95818 2.92688,-2.64722 6.02344,-5.70087 8.05469,-9.11698 0.79377,-1.33495 1.12883,-2.92144 1.87617,-4.3 0.83679,-1.54355 2.002,-2.82146 2.59932,-4.5 0.40388,-1.13497 0.35515,-2.33403 0.61225,-3.5 0.56939,-2.5823 1.37085,-5.14008 2.33726,-7.6 0.77749,-1.97904 1.50576,-3.72981 3.12031,-5.18295 4.42446,-3.98206 9.97974,-6.8878 15.1,-9.85949 8.48633,-4.925269 17.2123,-9.670019 26,-14.032789 3.79932,-1.88623 7.69966,-3.5677 11.5,-5.44954 0.88853,-0.43998 1.79448,-0.85768 2.7,-1.26134 0.34663,-0.15452 0.85542,-0.31867 0.96821,-0.72438 0.29038,-1.04455 0.0318,-2.50462 0.0318,-3.58951 0,-3.25385 0.35259,-7.64969 -1.9145,-10.29854 -1.51397,-1.7689 -3.80093,-2.69881 -5.7855,-3.82955 -2.7249,-1.55257 -5.3374,-3.29851 -8,-4.9527 -4.98872,-3.09932 -9.76621,-6.56908 -14.9,-9.43302 -4.70225,-2.6232 -9.57725,-4.57668 -13.9,-7.87462 -4.47437,-3.41364 -8.53306,-7.32585 -12.7,-11.09459 -6.80625,-6.15584 -13.80825,-12.13511 -21.6,-17.022 -5.58223,-3.5010999 -11.47742,-6.8969599 -17.5,-9.5810999 -2.12314,-0.94624 -4.86733,-2.70851002 -7.3,-2.37097002"
       id="path1"
       sodipodi:nodetypes="csssssssssssssssssssssssssssssssssssssssssc"
       inkscape:label="arrow" />
    <path
       d="m 323.53685,18.116418 c -2.22925,0.42057 -2.60198,3.00899 -2.82847,4.85324 -0.31201,2.54076 -0.0546,5.15678 0.11953,7.7 0.16778,2.45067 0.10894,4.94167 0.10894,7.4 0,10.99293 -0.31584,22.02634 -0.79607,32.999999 -0.24177,5.52456 -0.1352,11.08356 -0.51287,16.6 -0.32561,4.75603 -0.17441,9.54438 -0.5,14.300003 -0.0905,1.32164 -0.18459,2.67576 -0.19099,4 -0.002,0.44602 -0.13247,1.15902 0.10271,1.55609 0.3251,0.54889 1.10435,0.99016 1.59722,1.38388 1.89214,1.51143 4.39263,2.6473 5.86868,-0.04 0.29238,-0.53232 0.52138,-1.11658 0.68857,-1.7 1.43184,-4.99624 0.74497,-10.472903 1.25964,-15.600003 0.45245,-4.50708 4.11995,-7.32568 7.68311,-9.7 0.98242,-0.65464 3.1603,-2.31548 4.4,-1.63473 0.96514,0.52999 1.82922,1.61221 2.54243,2.43473 1.17835,1.35896 2.35933,2.70832 3.5,4.1 4.25366,5.18966 8.21643,10.61053 11.92432,16.200003 1.69148,2.54982 3.8342,7.70245 7.73325,6.42507 0.48254,-0.15808 0.97429,-0.40368 1.4,-0.67986 3.40605,-2.20964 -0.0348,-7.49978 -1.42808,-9.945213 -3.85732,-6.77006 -8.56428,-13.06967 -12.80625,-19.6 -1.14953,-1.76967 -2.25988,-3.56804 -3.30781,-5.4 -0.32659,-0.57094 -1.03159,-1.51395 -0.94499,-2.2 0.0778,-0.61591 0.71718,-1.24103 1.09555,-1.7 1.0229,-1.24082 2.15576,-2.36417 3.29158,-3.5 4.01389,-4.013889 8.80256,-7.573259 11.77964,-12.499999 1.87336,-3.1002 2.64848,-6.45529 1.21921,-9.9 -0.45608,-1.09918 -1.12842,-2.50194 -2.29885,-2.97754 -1.00239,-0.40733 -2.15955,0.0654 -3,0.61203 -1.74275,1.13349 -3.28354,2.70048 -4.64243,4.26551 -5.83762,6.72314 -11.06843,14.08031 -17.35764,20.399999 -1.9095,1.91874 -3.77845,3.9196 -5.99993,5.48557 -0.69009,0.48646 -1.96426,1.37591 -2.7895,0.74915 -0.80833,-0.61422 -0.82816,-1.92199 -0.9524,-2.83469 -0.3553,-2.61005 -0.35764,-5.368239 -0.35764,-7.999999 0,-10.49866 -0.1,-21.01013 -0.1,-31.5 0,-2.6528 -0.0584,-5.37737 -0.49197,-8 -0.18706,-1.13169 -0.41489,-2.51342 -1.25481,-3.36713 -0.86653,-0.88075 -2.60957,-0.90187 -3.75322,-0.68611"
       style="fill:#11000b;fill-opacity:1;stroke:none"
       id="path1-1"
       inkscape:label="k" />
    <path
       d="m 281.72852,46.655158 c -3.725,0.23402 -7.10303,1.47537 -10.3,3.39351 -1.94785,1.16868 -4.30796,3.50063 -6.7,3.5497 -2.25081,0.0462 -3.80935,-2.65439 -5.4,-3.87099 -2.94634,-2.25351 -6.68908,-2.84145 -10.19999,-1.67207 -3.98711,1.32798 -7.24922,4.23926 -9.97153,7.34846 -1.18777,1.35656 -2.33643,2.70021 -3.72847,3.85648 -0.63293,0.52573 -1.44646,1.16384 -2.3,1.23271 -1.65757,0.13376 -1.89954,-2.09509 -1.9,-3.28919 -9.4e-4,-2.3762 0.82798,-4.95407 0.27638,-7.3 -0.51679,-2.19795 -2.2938,-3.34029 -4.47639,-2.62508 -0.65618,0.21503 -1.35134,0.57668 -1.89607,1.00115 -1.12712,0.87833 -1.36055,2.49619 -1.51943,3.82393 -0.3305,2.76167 -0.35188,5.52101 -0.38489,8.3 -0.13577,11.42572 3.9e-4,22.87513 3.9e-4,34.3 0,3.21037 0.1249,6.543762 0.76003,9.699992 0.27247,1.35399 0.80247,2.95535 2.33997,3.25332 1.12278,0.21759 2.78555,0.23799 3.6699,-0.60016 0.78659,-0.74549 0.96955,-1.93296 1.13813,-2.95316 0.39375,-2.38292 0.39197,-4.889542 0.39197,-7.299992 0,-4.30095 -0.002,-8.61485 0.29106,-12.9 0.21011,-3.06911 0.45599,-6.25146 1.74012,-9.1 1.81963,-4.03641 5.18618,-7.21735 8.26882,-10.3 2.04534,-2.04535 4.25552,-4.19416 6.8,-5.61381 1.02461,-0.57168 2.3085,-1.21103 3.5,-0.84183 1.20574,0.37361 1.86396,1.61571 2.1845,2.75564 0.67837,2.4125 0.7155,5.01174 0.7155,7.5 0,10.64197 2.34749,21.17328 2.6,31.800002 0.0725,3.04994 0.23132,7.0768 1.73132,9.79999 0.52434,0.95192 1.85655,2.52294 3.06868,2.43618 2.14058,-0.15317 3.44133,-2.36142 3.75647,-4.23618 0.72568,-4.31718 0.26851,-9.282082 -0.2989,-13.599992 -0.79841,-6.07579 -1.2481,-12.28834 -1.66651,-18.4 -0.20551,-3.00185 -0.60639,-6.42636 0.55425,-9.3 0.87815,-2.17421 2.78113,-3.55886 4.65469,-4.83441 2.78362,-1.89514 5.78083,-4.0934 9.1,-4.91806 5.03223,-1.25027 7.07441,4.35028 8.06257,8.25247 2.64077,10.42818 3.08509,21.19511 4.57986,31.8 0.41704,2.958792 0.72764,6.190412 2.08242,8.899992 0.96399,1.92795 2.55381,2.88036 4.57515,1.75609 0.93437,-0.5197 2.03811,-1.262 2.50879,-2.25609 0.68694,-1.45081 0.40644,-3.35616 0.30015,-4.89999 -0.22093,-3.208932 -0.65274,-6.411782 -1.0959,-9.600002 -0.93106,-6.69843 -1.90305,-13.3947 -2.78487,-20.1 -0.64824,-4.92917 -1.10617,-10.04559 -2.96814,-14.7 -2.00964,-5.02357 -6.11889,-9.92187 -12.06003,-9.54861"
       style="fill:#11000b;fill-opacity:1;stroke:none"
       id="path1-36"
       inkscape:label="m" />
    <path
       d="m 182.02852,47.246208 c -3.56802,0.46869 -7.0022,1.25875 -10.2,2.98842 -12.30234,6.65426 -16.93738,21.6049 -15.08696,34.76914 1.73806,12.36488 12.40733,25.300762 25.98696,23.671442 6.85347,-0.82229 12.49468,-5.36562 16.23334,-10.971442 6.35233,-9.52488 7.38263,-22.08551 4.654,-33 -1.12422,-4.4969 -3.13901,-8.83885 -6.39127,-12.19962 -3.78804,-3.91441 -9.78488,-5.96874 -15.19607,-5.25794 m 0.7,9.19506 c 6.73335,-0.33337 11.4499,5.55287 13.129,11.4625 0.83963,2.95507 1.071,5.94496 1.071,9 0,7.73528 -2.04237,15.65686 -9.1,19.9 -1.88989,1.13623 -4.06998,1.99841 -6.3,2.09606 -7.74929,0.33933 -13.98153,-5.70632 -15.71157,-12.99606 -0.54276,-2.287 -0.66093,-4.56679 -0.49738,-6.9 0.69276,-9.88269 6.08507,-22.00186 17.40895,-22.5625"
       style="fill:#11000b;fill-opacity:1;stroke:none"
       id="path1-18"
       inkscape:label="o" />
    <path
       d="m 135.42854,12.956657 c -1.92455,0.44411 -3.19445,2.54652 -3.47253,4.34707 -0.71818,4.6499 -0.82747,9.60171 -0.82747,14.3 0,11.052631 -0.52782,22.148461 -0.79854,33.200001 -0.12486,5.09769 -0.24049,10.20538 -0.30107,15.3 -0.0394,3.31177 0.13018,6.70509 -0.18341,10 -0.2864,3.00918 -0.11581,6.17536 -0.11698,9.2 -7.3e-4,1.908132 -0.27751,3.810542 0.18989,5.699992 0.49519,2.00176 2.77375,3.84257 4.91011,3.46713 1.66528,-0.29265 2.70872,-2.61034 3.10795,-4.06713 0.47284,-1.72539 0.47949,-3.62774 0.601,-5.399992 0.19577,-2.85543 0.45661,-5.73742 0.49066,-8.6 0.0931,-7.82823 0.40714,-15.67065 0.59893,-23.5 0.28072,-11.4605 0.001,-22.94022 0.001,-34.400001 0,-5.26326 -0.18715,-10.55725 -0.60857,-15.8 -0.14801,-1.84127 -1.27898,-4.2807 -3.59143,-3.74707"
       style="fill:#11000b;fill-opacity:1;stroke:none"
       id="path1-2"
       inkscape:label="l" />
    <path
       d="m 67.42853,43.45018 c -2.063733,0.37126 -3.342688,2.50406 -3.911499,4.35355 -0.604565,1.96574 -0.464771,3.97212 -0.488886,6 -0.03046,2.56112 -0.09962,5.13128 -0.09962,7.7 0,13.205988 0.119061,26.422768 0.696063,39.59999 0.272528,6.22385 0.0023,12.61182 0.732489,18.8 0.617328,5.23198 0.576941,10.54905 1.166431,15.8 0.110864,0.98751 0.11756,2.4197 0.618982,3.29598 0.565625,0.9885 2.318378,1.52048 3.386035,1.3855 0.981146,-0.12403 1.595502,-1.04272 1.957178,-1.88148 0.784869,-1.82019 0.964819,-3.85081 1.159723,-5.8 0.594311,-5.94363 -0.09835,-11.96873 0.466125,-17.9 0.196234,-2.06196 -0.179425,-4.88251 1.249921,-6.59961 0.993127,-1.19308 2.473694,-1.07849 3.867053,-0.87323 2.921234,0.43034 5.736823,1.13914 8.7,1.26891 7.219865,0.31617 14.154505,-3.07089 18.384795,-8.896062 4.92803,-6.78599 6.17703,-15.72772 5.81914,-23.9 -0.19895,-4.54294 -0.61649,-9.015478 -1.93193,-13.399998 -1.90738,-6.35753 -5.76397,-12.35642 -12.372,-14.46559 -4.94376,-1.57797 -10.46812,-0.58041 -15.200005,1.24668 -2.401837,0.92741 -5.527728,3.33603 -8.2,2.88635 -2.845764,-0.47889 -2.277332,-4.57203 -3.022913,-6.56744 -0.477148,-1.27702 -1.520172,-2.31565 -2.977087,-2.05355 M 88.62853,57.03232 c 2.60875,-0.30798 5.71749,0.0754 7.9,1.61536 3.26675,2.30493 4.84929,6.90203 5.59999,10.656088 1.28774,6.43966 0.94971,13.55714 -1.5,19.7 -1.13388,2.84333 -2.80628,5.70891 -5.39999,7.44807 -1.94007,1.30087 -4.40207,1.88843 -6.7,2.13534 -3.202764,0.34413 -6.458074,0.29306 -9.600005,-0.49607 -1.438428,-0.36127 -3.053418,-0.86983 -4.089508,-1.98881 -0.891577,-0.96291 -1.014313,-2.55655 -1.218518,-3.79853 -0.538379,-3.27446 -0.786646,-6.68639 -0.791974,-10 -0.0065,-4.07198 -0.187903,-8.13051 0.09105,-12.2 0.118781,-1.732848 0.0732,-3.908298 0.864655,-5.499998 0.646913,-1.30102 2.110115,-2.33803 3.244295,-3.18735 3.381293,-2.53205 7.440015,-3.89298 11.600005,-4.3841 z"
       style="fill:#11000b;fill-opacity:1;stroke:none"
       id="path1-22"
       inkscape:label="p" />
    <path
       d="m 41.028525,43.546278 c -6.794745,0.92489 -13.664291,3.48995 -20.1,5.78827 -4.138057,1.47779 -8.769969,3.18476 -12,6.27315 -3.300866,3.15613 -4.260196,7.56251 -3.816898,11.99607 0.209254,2.09281 0.806223,4.14778 2.333951,5.68302 2.152612,2.16321 5.323815,3.14303 8.182947,3.95911 5.011716,1.4305 10.794672,2.2944 15.3,4.99783 2.996127,1.79784 6.655283,5.3979 6.283023,9.26004 -0.344452,3.57362 -3.452447,5.27233 -6.583023,6.17091 -6.095609,1.74964 -13.813617,1.7037 -19.7,-0.81366 -3.041519,-1.30073 -5.819961,-4.67475 -9.3,-2.1784 -4.3753,3.13856 0.646708,8.219162 3.7,9.795292 7.301083,3.76886 17.055241,5.06524 25.1,3.42546 4.482068,-0.91359 8.84892,-2.86034 11.870062,-6.39961 4.719937,-5.529402 4.63804,-14.545752 0.760416,-20.499992 -3.012589,-4.62595 -8.341882,-7.32039 -13.430478,-9.03326 -3.963959,-1.3343 -8.36893,-1.90643 -12.1,-3.84514 -1.405968,-0.73056 -3.303246,-1.95412 -3.389507,-3.7216 -0.102691,-2.10418 2.258614,-3.69229 3.789507,-4.6997 4.024585,-2.64838 8.921478,-4.14934 13.5,-5.52831 1.590277,-0.47897 3.891299,-1.37894 5.5,-0.572 0.968591,0.48586 1.464648,1.47755 1.924692,2.40001 0.848892,1.70216 1.387933,3.51878 2.636804,4.99853 0.976379,1.15689 2.64176,1.9052 4.038504,1.00456 1.8495,-1.19259 2.1,-3.92572 2.1,-5.90309 0,-2.72683 -0.361487,-5.53582 -0.957639,-8.2 -0.27922,-1.24783 -0.673049,-2.63527 -1.659722,-3.51922 -1.048957,-0.93974 -2.644629,-1.02039 -3.982639,-0.83827"
       style="fill:#11000b;fill-opacity:1;stroke:none"
       id="path1-6" />
  </g>
</svg>
