<svg version="1.1" xmlns="http://www.w3.org/2000/svg" xmlns:xlink="http://www.w3.org/1999/xlink" width="438.20011" height="230.06113" viewBox="0,0,438.20011,230.06113"><g transform="translate(-21.84267,-64.89269)"><g data-paper-data="{&quot;isPaintingLayer&quot;:true}" stroke-miterlimit="10" stroke-dasharray="" stroke-dashoffset="0" style="mix-blend-mode: normal"><path d="M138.95442,227.25455v-67.91873h284.36298v67.91873z" fill="#2a2c3c" fill-rule="nonzero" stroke="none" stroke-width="0.5" stroke-linecap="butt" stroke-linejoin="miter"/><g fill="#2a2c3c" fill-rule="evenodd" stroke="#2a2c3c" stroke-width="0.5"><g><path d="M92.2075,231.51097c1.76504,0.88271 5.5159,2.86817 0.22077,10.36989c-5.29515,7.50136 -20.51865,9.04601 -22.28405,9.04601c-6.83942,0.22075 -15.2235,0.22075 -24.49026,-2.86817c-26.91726,-8.82524 -27.13766,-37.7283 -18.53319,-42.36151c8.38407,-4.63321 12.13493,13.23804 24.26951,24.04909c5.29515,4.85396 11.69341,6.61901 16.98856,7.72213c7.50136,1.32388 21.8425,-7.0602 23.82832,-5.95709z" stroke-linecap="round" stroke-linejoin="round"/><path d="M37.49063,213.63972c3.53009,5.95709 10.36989,14.34114 10.36989,14.34114c0,0 -8.1633,-1.98582 -12.79651,1.76504c-3.75086,2.86817 -2.86817,7.72216 -2.42698,9.26643c-2.86817,-2.86817 -6.39826,-6.83944 -8.60485,-14.56191c-2.20621,-7.72213 0,-16.98854 4.4128,-18.31242c4.4128,-0.88271 5.51593,2.42698 9.04601,7.50136z" stroke-linecap="butt" stroke-linejoin="miter"/></g><path d="M103.23897,254.45696c-3.97127,2.64776 -17.6505,12.35535 -35.08058,17.87125l-0.88271,0.22077c-0.88271,0.22075 -1.32388,1.32388 -0.88269,2.20621c3.75086,5.29515 10.5903,15.88543 -1.54429,19.63629c-11.69341,3.75086 -33.53629,-27.35843 -24.26951,-35.52173c4.19205,-3.08892 7.94289,-1.54429 9.92834,-0.66194c1.1031,0.44117 2.20623,0.44119 3.30934,0.22077c2.64776,-0.88271 7.50136,-2.64776 11.25224,-4.63321c9.48718,-4.85396 11.69341,-6.83942 16.10621,-10.14912c4.4128,-3.30934 14.56191,-11.47299 22.72521,-4.4128c7.0602,5.95709 3.08892,12.57612 -0.66194,15.2235z" stroke-linecap="round" stroke-linejoin="round"/><path d="M138.31953,208.56534c1.1031,0.88271 14.56191,16.76815 18.97436,12.79651c5.29515,-4.63321 12.5761,-13.67923 20.51865,-6.39826c7.94289,7.28097 -7.0602,19.63629 -13.45845,22.94563c-15.2235,6.83944 -27.5792,-6.17784 -30.2266,-9.70793c-2.64776,-3.53009 -7.28097,-9.4872 -7.28097,-15.22352c0.22075,-6.17784 7.72213,-7.72213 11.47299,-4.4128z" stroke-linecap="round" stroke-linejoin="round"/><g><path d="M138.54029,259.97252c4.63321,4.19205 14.78233,12.79651 14.78233,12.79651c0,0 31.55048,-5.5159 31.55048,10.36989c0,9.48718 -15.88546,11.69341 -37.28679,9.70795c-1.32388,-0.22075 -2.64776,-0.66194 -3.75086,-1.54429c-4.85396,-4.19205 -18.7536,-16.54737 -27.5792,-25.15222c-13.01726,-12.79651 -23.82832,-21.18059 -23.82832,-21.18059c-18.7536,-18.31242 -3.53009,-26.03455 2.42698,-36.62483c5.5159,-9.04601 7.94289,-7.28097 21.18059,-4.63321c7.50136,1.1031 11.91416,1.76507 16.76815,1.54429c7.28097,-0.22075 5.95709,10.36989 3.97127,15.88543c0,0 -3.08892,8.1633 -5.95709,12.35535c-3.53009,5.07438 -6.17784,8.38407 -8.82524,10.36989z" stroke-linecap="round" stroke-linejoin="round"/><path d="M120.00712,243.6459c0,0 -3.30934,-2.64776 -6.83942,-5.95709c-4.4128,-3.97127 -8.82524,-7.28095 -4.4128,-14.12037c3.97127,-5.29515 7.72213,-12.35535 17.6505,-5.95709c9.48718,5.95709 5.29515,11.47299 5.29515,11.47299c-4.85396,9.92834 -11.69341,14.56191 -11.69341,14.56191z" stroke-linecap="butt" stroke-linejoin="miter"/></g><path d="M86.6916,225.5539c4.85396,6.17784 12.35535,13.89998 2.86817,20.29823c-13.01726,7.28097 -23.82834,-14.78233 -26.03455,-22.50446c-1.98582,-6.83942 3.75086,-11.25222 8.60485,-15.00308c9.48718,-6.83942 17.43006,-13.01729 26.2553,-9.70795c11.03147,3.97127 3.08892,12.79651 -2.42698,16.76815c-3.30934,2.42698 -6.61903,5.0744 -9.04601,6.61903c-0.66194,1.1031 -0.88269,2.42698 -0.22075,3.53009z" stroke-linecap="round" stroke-linejoin="round"/><g><path d="M156.19078,76.84755c0.66194,-0.44117 1.76504,-0.22077 1.98582,0.66194l5.73632,23.60759c0,0 14.12039,10.36987 18.31244,17.65048c7.0602,12.13493 7.28095,22.0633 7.28095,22.0633c0,0 15.66504,4.63319 18.31244,17.20931c2.64776,12.57612 -7.0602,36.40444 -48.53901,44.56776c-41.47882,8.16332 -74.79434,-3.08892 -90.45936,-28.24078c-15.66502,-25.1522 9.04601,-55.15802 7.72213,-53.393l-4.63319,-39.49336c-0.22075,-0.88271 0.88271,-1.54429 1.76504,-1.10313l26.69649,17.43009c0,0 9.92837,-3.75086 20.29823,-4.19205c6.17784,-0.44117 11.47299,0 16.54737,0.88271z" stroke-linecap="butt" stroke-linejoin="miter"/><path d="M188.84434,141.71355c0,0 15.2235,3.97127 17.87125,16.54737c2.64776,12.57612 -7.94289,35.30134 -48.98054,43.24386c-53.393,11.03147 -78.76561,-20.7394 -63.98328,-44.12657c14.78233,-23.60757 40.15496,-3.53009 58.68815,-4.85396c15.88543,-1.1031 17.65048,-15.0031 36.40442,-10.81106z" stroke-linecap="butt" stroke-linejoin="miter"/><path d="M119.34518,165.32112c0,-0.88271 0.88271,-1.54429 1.76504,-1.32386c4.19205,1.54429 16.10621,5.07438 29.34424,5.95709c11.91416,0.66194 18.97438,0 22.28405,-0.66194c1.1031,-0.22075 1.98582,0.88271 1.54429,1.98582c-1.98582,5.95709 -10.36989,22.50446 -33.53629,21.18059c-20.07748,-2.20621 -22.06328,-16.32698 -21.40134,-27.13768z" stroke-linecap="round" stroke-linejoin="round"/><path d="M229.44083,144.14053c-10.36987,8.38407 -26.25532,8.60482 -26.25532,8.60482" stroke-linecap="round" stroke-linejoin="round"/><path d="M226.57268,168.85156c-13.89998,1.1031 -22.50446,-3.08892 -22.50446,-3.08892" stroke-linecap="round" stroke-linejoin="round"/><path d="M151.55757,146.78829c4.63321,0 9.4872,0.44117 9.70795,1.98582c0.22075,3.08892 -3.08894,9.26643 -6.61903,9.48718c-3.97127,0.44117 -13.23804,-5.07438 -13.23804,-8.60485c-0.22075,-2.64776 5.73632,-2.86815 10.14912,-2.86815z" stroke-linecap="round" stroke-linejoin="round"/><path d="M52.27297,143.47859c0,0 18.97438,6.17784 26.69651,13.01726" stroke-linecap="round" stroke-linejoin="round"/><path d="M79.6314,164.21801c-9.48718,3.75086 -25.81416,1.32388 -25.81416,1.32388" stroke-linecap="round" stroke-linejoin="round"/><g><path d="M177.59214,120.97413c6.39826,9.92834 6.61901,21.18059 0.44117,25.1522c-6.17784,3.97127 -16.32696,-0.66194 -22.94563,-10.59028c-6.39826,-9.92834 -6.61901,-21.18059 -0.44117,-25.15222c6.17784,-4.19205 16.54737,0.66194 22.94565,10.5903z" stroke-linecap="round" stroke-linejoin="round"/><path d="M176.70943,133.55024c0,2.42698 -1.76507,4.4128 -3.97127,4.4128c-2.20621,0 -3.97127,-1.98582 -3.97127,-4.4128c0,-2.42698 1.76507,-4.4128 3.97127,-4.4128c2.20621,0 3.97127,1.98582 3.97127,4.4128" stroke-linecap="butt" stroke-linejoin="miter"/></g><g><path d="M122.87526,127.15199c6.61901,9.70795 6.17784,21.62211 0.22075,25.81414c-7.28097,4.19205 -16.98856,1.1031 -23.60757,-8.60482c-6.83942,-9.70795 -7.28097,-22.28405 -0.44117,-27.13766c6.83944,-5.07438 17.20933,0.22075 23.82834,9.92834z" stroke-linecap="round" stroke-linejoin="round"/><path d="M121.55139,139.94851c0,2.42698 -1.76504,4.4128 -3.97127,4.4128c-2.20621,0 -3.97127,-1.98582 -3.97127,-4.4128c0,-2.42698 1.76507,-4.4128 3.97127,-4.4128c2.20621,0.22075 3.97127,1.98582 3.97127,4.4128" stroke-linecap="butt" stroke-linejoin="miter"/></g></g></g><text transform="translate(226.25234,208.08927) scale(1.11954,1.11954)" font-size="40" xml:space="preserve" fill="#f5ff00" fill-rule="nonzero" stroke="#2a2c3c" stroke-width="2" stroke-linecap="butt" stroke-linejoin="miter" stroke-miterlimit="10" stroke-dasharray="" stroke-dashoffset="0" font-family="Sans Serif" font-weight="normal" text-anchor="start" style="mix-blend-mode: normal"><tspan x="0" dy="0">SOFTBODY</tspan></text><g fill="#f5ff00" fill-rule="evenodd" stroke="#f5ff00" stroke-width="1.5"><g><path d="M95.36847,220.1802c1.76504,0.88271 5.5159,2.86817 0.22077,10.36989c-5.29515,7.50136 -20.51865,9.04601 -22.28405,9.04601c-6.83942,0.22075 -15.2235,0.22075 -24.49026,-2.86817c-26.91726,-8.82524 -27.13766,-37.7283 -18.53319,-42.36151c8.38407,-4.63321 12.13493,13.23804 24.26951,24.04909c5.29515,4.85396 11.69341,6.61903 16.98856,7.72213c7.50136,1.32388 21.8425,-7.06022 23.82832,-5.95709z" stroke-linecap="round" stroke-linejoin="round"/><path d="M40.65162,202.30895c3.53009,5.95709 10.36989,14.34114 10.36989,14.34114c0,0 -8.1633,-1.98582 -12.79651,1.76504c-3.75086,2.86817 -2.86817,7.72213 -2.42698,9.26643c-2.86817,-2.86817 -6.39826,-6.83944 -8.60485,-14.56191c-2.20621,-7.72213 0,-16.98854 4.4128,-18.31242c4.4128,-0.88271 5.51593,2.42698 9.04601,7.50136z" stroke-linecap="butt" stroke-linejoin="miter"/></g><path d="M106.39994,243.12619c-3.97127,2.64776 -17.65048,12.35535 -35.08056,17.87125l-0.88271,0.22075c-0.88271,0.22075 -1.3239,1.32388 -0.88271,2.20621c3.75086,5.29515 10.5903,15.88543 -1.54429,19.63629c-11.69341,3.75086 -33.53627,-27.35843 -24.26951,-35.52173c4.19205,-3.08892 7.94289,-1.54429 9.92834,-0.66194c1.1031,0.44117 2.20623,0.44117 3.30934,0.22075c2.64776,-0.88271 7.50136,-2.64776 11.25224,-4.63321c9.48718,-4.85396 11.69341,-6.83942 16.10621,-10.14912c4.4128,-3.30934 14.56191,-11.47299 22.72521,-4.4128c7.0602,5.95709 3.08892,12.57612 -0.66194,15.2235z" stroke-linecap="round" stroke-linejoin="round"/><path d="M141.48051,197.23457c1.1031,0.88271 14.56191,16.76815 18.97436,12.79651c5.29513,-4.63321 12.57612,-13.67923 20.51865,-6.39826c7.94289,7.28097 -7.0602,19.63629 -13.45845,22.94563c-15.2235,6.83944 -27.5792,-6.17784 -30.22658,-9.70793c-2.64776,-3.53009 -7.28097,-9.48718 -7.28097,-15.2235c0.22075,-6.17784 7.72213,-7.72213 11.47299,-4.4128z" stroke-linecap="round" stroke-linejoin="round"/><g><path d="M141.70128,248.64176c4.63321,4.19205 14.78233,12.79651 14.78233,12.79651c0,0 31.55045,-5.5159 31.55045,10.36989c0,9.48718 -15.88543,11.69341 -37.28679,9.70795c-1.32388,-0.22075 -2.64776,-0.66194 -3.75086,-1.54429c-4.85396,-4.19205 -18.7536,-16.54737 -27.5792,-25.1522c-13.01726,-12.79651 -23.82832,-21.18059 -23.82832,-21.18059c-18.7536,-18.31242 -3.53009,-26.03455 2.42698,-36.62483c5.5159,-9.04601 7.94289,-7.28097 21.18059,-4.63321c7.50136,1.1031 11.91416,1.76504 16.76815,1.54429c7.28097,-0.22075 5.95709,10.36989 3.97127,15.88543c0,0 -3.08892,8.16332 -5.95709,12.35535c-3.53009,5.07438 -6.17784,8.38407 -8.82524,10.36989z" stroke-linecap="round" stroke-linejoin="round"/><path d="M123.16809,232.31513c0,0 -3.30934,-2.64776 -6.83942,-5.95709c-4.4128,-3.97127 -8.82524,-7.28097 -4.4128,-14.12039c3.97127,-5.29515 7.72213,-12.35535 17.6505,-5.95709c9.48718,5.95709 5.29515,11.47299 5.29515,11.47299c-4.85396,9.92834 -11.69341,14.56191 -11.69341,14.56191z" stroke-linecap="butt" stroke-linejoin="miter"/></g><path d="M89.85257,214.22313c4.85396,6.17784 12.35535,13.89998 2.86817,20.29823c-13.01726,7.28097 -23.82834,-14.78233 -26.03455,-22.50446c-1.98582,-6.83942 3.75086,-11.25222 8.60482,-15.0031c9.48718,-6.83942 17.43009,-13.01729 26.25532,-9.70795c11.03147,3.97127 3.08892,12.79651 -2.42698,16.76815c-3.30934,2.42698 -6.61901,5.0744 -9.04599,6.61903c-0.66194,1.1031 -0.88271,2.42698 -0.22077,3.53009z" stroke-linecap="round" stroke-linejoin="round"/><g><path d="M159.35176,65.51679c0.66194,-0.44117 1.76504,-0.22075 1.98579,0.66194l5.73634,23.60757c0,0 14.12037,10.36987 18.31242,17.65048c7.0602,12.13493 7.28097,22.0633 7.28097,22.0633c0,0 15.66502,4.63319 18.31242,17.20931c2.64776,12.57612 -7.0602,36.40444 -48.53901,44.56776c-41.47882,8.16332 -74.79434,-3.08892 -90.45938,-28.24078c-15.66502,-25.1522 9.04601,-55.15802 7.72213,-53.393l-4.63319,-39.49336c-0.22075,-0.88271 0.88269,-1.54429 1.76504,-1.10313l26.69651,17.43009c0,0 9.92834,-3.75086 20.29823,-4.19203c6.17784,-0.44117 11.47299,0 16.54737,0.88269z" stroke-linecap="butt" stroke-linejoin="miter"/><path d="M192.00534,130.38276c0,0 15.2235,3.97127 17.87125,16.54737c2.64776,12.57612 -7.94289,35.30134 -48.98054,43.24386c-53.393,11.03147 -78.76561,-20.7394 -63.98328,-44.12657c14.78233,-23.60757 40.15496,-3.53009 58.68815,-4.85396c15.88543,-1.1031 17.65048,-15.0031 36.40444,-10.81106z" stroke-linecap="butt" stroke-linejoin="miter"/><path d="M122.50615,153.99035c0,-0.88271 0.88271,-1.54429 1.76507,-1.32386c4.19205,1.54429 16.10621,5.07438 29.34424,5.95709c11.91416,0.66194 18.97436,0 22.28403,-0.66194c1.1031,-0.22075 1.98582,0.88271 1.54429,1.98582c-1.98582,5.95709 -10.36989,22.50446 -33.53627,21.18059c-20.07748,-2.20621 -22.06328,-16.32698 -21.40136,-27.13768z" stroke-linecap="round" stroke-linejoin="round"/><path d="M232.6018,132.80976c-10.36987,8.38407 -26.25532,8.60482 -26.25532,8.60482" stroke-linecap="round" stroke-linejoin="round"/><path d="M229.73363,157.5208c-13.89998,1.1031 -22.50446,-3.08892 -22.50446,-3.08892" stroke-linecap="round" stroke-linejoin="round"/><path d="M154.71854,135.45752c4.63321,0 9.4872,0.44117 9.70795,1.98582c0.22075,3.08892 -3.08894,9.26643 -6.61903,9.48718c-3.97127,0.44117 -13.23804,-5.07438 -13.23804,-8.60482c-0.22075,-2.64776 5.73632,-2.86817 10.14912,-2.86817z" stroke-linecap="round" stroke-linejoin="round"/><path d="M55.43395,132.14783c0,0 18.97436,6.17784 26.69649,13.01729" stroke-linecap="round" stroke-linejoin="round"/><path d="M82.79237,152.88725c-9.48718,3.75086 -25.81414,1.32388 -25.81414,1.32388" stroke-linecap="round" stroke-linejoin="round"/><g><path d="M180.75312,109.64336c6.39826,9.92834 6.61901,21.18059 0.44117,25.1522c-6.17784,3.97127 -16.32696,-0.66194 -22.94563,-10.59028c-6.39826,-9.92834 -6.61901,-21.18059 -0.44117,-25.1522c6.17784,-4.19205 16.5474,0.66194 22.94565,10.59028z" stroke-linecap="round" stroke-linejoin="round"/><path d="M179.8704,122.21948c0,2.42698 -1.76507,4.4128 -3.97127,4.4128c-2.20621,0 -3.97127,-1.98582 -3.97127,-4.4128c0,-2.42698 1.76507,-4.4128 3.97127,-4.4128c2.20621,0 3.97127,1.98582 3.97127,4.4128" stroke-linecap="butt" stroke-linejoin="miter"/></g><g><path d="M126.03624,115.82123c6.61901,9.70795 6.17784,21.62211 0.22075,25.81416c-7.28097,4.19205 -16.98856,1.1031 -23.60757,-8.60485c-6.83942,-9.70795 -7.28097,-22.28405 -0.44117,-27.13766c6.83944,-5.07438 17.20933,0.22075 23.82834,9.92834z" stroke-linecap="round" stroke-linejoin="round"/><path d="M124.71236,128.61774c0,2.42698 -1.76504,4.4128 -3.97127,4.4128c-2.20621,0 -3.97127,-1.98582 -3.97127,-4.4128c0,-2.42698 1.76507,-4.4128 3.97127,-4.4128c2.20621,0.22075 3.97127,1.98582 3.97127,4.4128" stroke-linecap="butt" stroke-linejoin="miter"/></g></g></g></g></g></svg>