<svg xmlns="http://www.w3.org/2000/svg" xmlns:xlink="http://www.w3.org/1999/xlink" width="500" height="500" viewBox="0 0 500 500"><defs><clipPath id="clip-1"><rect width="500" height="500" x="0" y="0" fill="#fff" stroke="none" stroke-width="1"/></clipPath></defs><g id="Frame 1" fill="none" fill-rule="nonzero" stroke="none" stroke-dashoffset="0" stroke-linecap="butt" stroke-linejoin="miter" stroke-miterlimit="10" stroke-width="none" clip-path="url(#clip-1)" font-family="none" font-size="none" font-weight="none" text-anchor="none" style="mix-blend-mode:normal"><rect width="500" height="500" x="0" y="0" fill="#fff" stroke="none" stroke-width="1"/><g fill="#fff" stroke="#000"><circle cx="251.774" cy="245" r="86.026" stroke-width="6"/><line x1="195.774" x2="308.551" y1="220" y2="220" stroke-width="11"/><line x1="205.774" x2="205.774" y1="203.485" y2="108" stroke-width="4"/><line x1="203.774" x2="298.047" y1="203.485" y2="203.485" stroke-width="4"/><line x1="251.774" x2="251.774" y1="216" y2="297.99" stroke-width="5"/><line x1="217.074" x2="145.246" y1="276.738" y2="276.738" stroke-width="4"/><line x1="286.83" x2="354.753" y1="276.738" y2="276.738" stroke-width="4"/><path stroke-width="1" d="M288.6587,276.745"/><line x1="214.998" x2="214.998" y1="276.738" y2="237.547" stroke-width="4"/><line x1="288.659" x2="288.659" y1="276.745" y2="237.547" stroke-width="4"/><line x1="205.774" x2="224.914" y1="237.547" y2="237.547" stroke-width="4"/><line x1="278.743" x2="298.047" y1="237.547" y2="237.547" stroke-width="4"/></g><g fill="#000" stroke="none" stroke-width="1"><path d="M180.1841,369.9884v-24.27h7.23c3.1267,0 5.4867,0.4533 7.08,1.36c1.5933,0.9133 2.39,2.48 2.39,4.7v0c0,0.9333 -0.1633,1.7733 -0.49,2.52c-0.32,0.7467 -0.79,1.36 -1.41,1.84c-0.62,0.48 -1.3867,0.8033 -2.3,0.97v0v0.17c0.9467,0.1667 1.7867,0.46 2.52,0.88c0.7333,0.42 1.3133,1.0233 1.74,1.81c0.4267,0.7867 0.64,1.8033 0.64,3.05v0c0,1.4867 -0.35,2.75 -1.05,3.79c-0.7067,1.04 -1.71,1.83 -3.01,2.37c-1.3,0.54 -2.84,0.81 -4.62,0.81v0zM184.1741,349.0284v6.7h3.82c1.8,0 3.05,-0.2933 3.75,-0.88c0.6933,-0.5867 1.04,-1.4433 1.04,-2.57v0c0,-1.1533 -0.41,-1.9833 -1.23,-2.49c-0.8267,-0.5067 -2.1367,-0.76 -3.93,-0.76v0zM188.1741,358.9484h-4v7.71h4.2c1.86,0 3.1667,-0.36 3.92,-1.08c0.7467,-0.72 1.12,-1.6933 1.12,-2.92v0c0,-0.7533 -0.1667,-1.4067 -0.5,-1.96c-0.34,-0.5533 -0.89,-0.9833 -1.65,-1.29c-0.7667,-0.3067 -1.7967,-0.46 -3.09,-0.46z"/><path d="M224.1441,357.8284v0c0,1.8667 -0.2333,3.5667 -0.7,5.1c-0.4733,1.5333 -1.18,2.85 -2.12,3.95c-0.94,1.1 -2.1167,1.95 -3.53,2.55c-1.42,0.6 -3.08,0.9 -4.98,0.9v0c-1.94,0 -3.62,-0.3 -5.04,-0.9c-1.4267,-0.6 -2.6067,-1.4533 -3.54,-2.56c-0.9333,-1.1067 -1.6333,-2.4267 -2.1,-3.96c-0.4667,-1.54 -0.7,-3.2467 -0.7,-5.12v0c0,-2.5 0.4133,-4.6833 1.24,-6.55c0.8267,-1.86 2.0833,-3.31 3.77,-4.35c1.6867,-1.0333 3.82,-1.55 6.4,-1.55v0c2.52,0 4.6167,0.5133 6.29,1.54c1.6733,1.0333 2.9267,2.4833 3.76,4.35c0.8333,1.86 1.25,4.06 1.25,6.6zM205.6241,357.8284v0c0,1.8667 0.2533,3.4833 0.76,4.85c0.5067,1.3667 1.29,2.42 2.35,3.16c1.06,0.7333 2.42,1.1 4.08,1.1v0c1.6667,0 3.0267,-0.3667 4.08,-1.1c1.0533,-0.74 1.8267,-1.7933 2.32,-3.16c0.5,-1.3667 0.75,-2.9833 0.75,-4.85v0c0,-2.8467 -0.5667,-5.0767 -1.7,-6.69c-1.1333,-1.6067 -2.94,-2.41 -5.42,-2.41v0c-1.66,0 -3.0233,0.3633 -4.09,1.09c-1.0733,0.7333 -1.8633,1.7767 -2.37,3.13c-0.5067,1.36 -0.76,2.9867 -0.76,4.88z"/><path d="M229.3641,369.9884v-24.27h7.22c3.1333,0 5.4967,0.4533 7.09,1.36c1.5933,0.9133 2.39,2.48 2.39,4.7v0c0,0.9333 -0.1633,1.7733 -0.49,2.52c-0.3267,0.7467 -0.8,1.36 -1.42,1.84c-0.62,0.48 -1.3833,0.8033 -2.29,0.97v0v0.17c0.94,0.1667 1.7767,0.46 2.51,0.88c0.74,0.42 1.3233,1.0233 1.75,1.81c0.4267,0.7867 0.64,1.8033 0.64,3.05v0c0,1.4867 -0.3533,2.75 -1.06,3.79c-0.7,1.04 -1.7,1.83 -3,2.37c-1.3,0.54 -2.8433,0.81 -4.63,0.81v0zM233.3441,349.0284v6.7h3.82c1.8067,0 3.0567,-0.2933 3.75,-0.88c0.7,-0.5867 1.05,-1.4433 1.05,-2.57v0c0,-1.1533 -0.4133,-1.9833 -1.24,-2.49c-0.8267,-0.5067 -2.1367,-0.76 -3.93,-0.76v0zM237.3441,358.9484h-4v7.71h4.2c1.86,0 3.1667,-0.36 3.92,-1.08c0.7533,-0.72 1.13,-1.6933 1.13,-2.92v0c0,-0.7533 -0.17,-1.4067 -0.51,-1.96c-0.3333,-0.5533 -0.8833,-0.9833 -1.65,-1.29c-0.76,-0.3067 -1.79,-0.46 -3.09,-0.46z"/><path d="M271.0441,369.9884h-4.23l-2.37,-6.74h-9.28l-2.38,6.74h-4.2l9.03,-24.37h4.42zM256.2741,359.8284h7.14l-2.31,-6.64c-0.0867,-0.2867 -0.2133,-0.6933 -0.38,-1.22c-0.1667,-0.5267 -0.3333,-1.0633 -0.5,-1.61c-0.1667,-0.5467 -0.3067,-1.0067 -0.42,-1.38v0c-0.1067,0.4533 -0.24,0.96 -0.4,1.52c-0.16,0.5533 -0.3167,1.0733 -0.47,1.56c-0.1467,0.4933 -0.26,0.87 -0.34,1.13v0z"/><polygon points="278.204 359.978 278.204 369.988 274.254 369.988 274.254 345.718 287.964 345.718 287.964 349.078 278.204 349.078 278.204 356.648 287.334 356.648 287.334 359.978"/><polygon points="306.114 366.618 306.114 369.988 292.364 369.988 292.364 345.718 306.114 345.718 306.114 349.078 296.344 349.078 296.344 355.668 305.494 355.668 305.494 358.998 296.344 358.998 296.344 366.618"/><polygon points="319.754 349.108 319.754 369.988 315.754 369.988 315.754 349.108 308.654 349.108 308.654 345.718 326.844 345.718 326.844 349.108"/></g></g></svg>