<svg xmlns="http://www.w3.org/2000/svg" xmlns:svg="http://www.w3.org/2000/svg" id="svg1" width="1000" height="917.162" version="1.1" viewBox="0 0 264.583 242.666" xml:space="preserve"><g id="layer1" transform="translate(27.327071,-27.167125)"><g id="g1098" transform="matrix(1.2328226,0,0,1.2328226,131.37819,-171.54223)" style="stroke-width:.811147"><path id="path830" d="m 13.547652,161.18244 c -57.757078,0 -142.280902,40.43228 -142.280902,108.00108 0,46.6592 32.404986,88.83645 99.041607,88.83645 54.896164,0 115.574289,-35.42874 115.574289,-93.72911 0,-54.44283 -43.129974,-73.23375 -68.210935,-75.19078 v 18.71875 c 27.970122,2.34092 61.249792,24.15715 59.709509,59.53428 -1.408642,32.3536 -34.895055,74.58627 -108.407066,77.18254 -46.781906,1.65217 -90.534454,-32.27381 -89.466234,-72.31417 1.01739,-38.13534 48.916274,-90.06253 132.0792,-92.43479 21.993507,-0.62737 36.210017,6.83751 41.421031,10.47757 l 2.78465,-23.46394 c 0,0 -16.282995,-5.61788 -42.245149,-5.61788 z" style="fill:#0079bc;fill-opacity:1;stroke:none;stroke-width:.214616px;stroke-linecap:butt;stroke-linejoin:miter;stroke-opacity:1"/><path id="path1015" d="m 30.758703,243.51962 c -2.420059,-0.0437 -4.554666,0.76256 -4.477996,2.90262 l 0.573435,16.00419 c 0.03585,1.00061 -0.285705,1.13308 -1.189511,1.37873 -4.987464,1.35557 -14.469618,6.4389 -14.469618,25.07221 0,5.53579 1.597145,14.91042 7.594029,14.91042 4.273462,0 7.722638,-6.34957 9.20236,-9.58054 l 0.307093,8.57079 c 0.11454,3.19713 7.7814,3.80465 7.852542,0.61596 l 1.261334,-56.52239 c 0.04092,-1.83431 -3.542163,-3.29582 -6.653668,-3.35199 z m -4.448501,28.53877 c 0.333065,-0.0472 0.666214,0.13474 0.661029,1.0514 l -0.152679,12.67404 c -0.01252,1.04865 -0.136234,1.60402 -0.673173,2.31974 -1.156792,1.54193 -2.316294,2.92308 -3.928006,4.72262 -1.505924,1.68148 -1.443403,-0.67947 -1.462594,-1.89983 -0.155029,-9.85858 2.475032,-16.07473 4.889189,-18.54527 0,0 0.333168,-0.27542 0.666234,-0.3227 z" style="fill:#0079bc;fill-opacity:1;stroke:none;stroke-width:.214616px;stroke-linecap:butt;stroke-linejoin:miter;stroke-opacity:1"/><path style="fill:#0079bc;fill-opacity:1;stroke:none;stroke-width:.214616px;stroke-linecap:butt;stroke-linejoin:miter;stroke-opacity:1" id="path1019" d="m -40.124598,289.76159 v -8.40052 h -10.936215 l 1.121664,37.07097 c 0.135974,4.49405 9.314913,3.76402 8.881554,-0.21756 -1.443018,-13.25801 0.231358,-19.59829 3.184901,-23.08508 2.25061,-2.65694 3.088896,-0.39699 3.251851,0.71385 1.031077,7.02875 2.00607,14.63964 3.037148,22.9352 0.479323,3.85643 8.001106,4.19397 8.229373,-0.2434 0.388427,-7.55126 -0.268761,-25.65025 -3.128265,-31.79805 -2.989773,-6.42784 -10.46139,-4.36362 -12.655146,3.09217 -0.270304,0.91862 -0.986865,0.73664 -0.986865,-0.0675 z"/><path style="fill:#0079bc;fill-opacity:1;stroke:none;stroke-width:.214616px;stroke-linecap:butt;stroke-linejoin:miter;stroke-opacity:1" id="path1037" d="m -65.97422,289.93637 h 5.817401 l 5.458513,1.79957 -1.000888,33.07244 c -0.131006,4.32871 -8.974527,4.57739 -9.085479,-0.56085 z"/><path style="fill:#0079bc;fill-opacity:1;stroke:none;stroke-width:.214616px;stroke-linecap:butt;stroke-linejoin:miter;stroke-opacity:1" id="path1039" d="m -60.888306,276.19956 c -2.011398,2.10597 -3.621107,4.47972 -5.208083,6.86864 2.115716,1.84181 4.595919,3.59249 7.287617,5.29026 2.237077,-2.23012 3.93252,-4.46027 5.4529,-6.69046 -2.302418,-1.96173 -4.797431,-3.7951 -7.532434,-5.46844 z"/><path id="path1047" d="m -1.0441753,269.96323 h 5.6217429 l 5.1162929,1.97697 -0.4913423,32.67392 c -0.062917,4.18457 -9.20453273,4.97806 -9.3350987,0.0134 z" style="fill:#0079bc;fill-opacity:1;stroke:none;stroke-width:.214616px;stroke-linecap:butt;stroke-linejoin:miter;stroke-opacity:1"/><path id="path1049" d="m 3.8100322,256.21255 c -2.0487096,2.14501 -3.68827951,4.56282 -5.3046968,6.99606 2.15496454,1.87597 4.681177,3.65912 7.4228104,5.38842 2.2785774,-2.27152 4.0054733,-4.54303 5.5540542,-6.81462 -2.3451309,-1.99812 -4.8864248,-3.86547 -7.6721678,-5.56986 z" style="fill:#0079bc;fill-opacity:1;stroke:none;stroke-width:.214616px;stroke-linecap:butt;stroke-linejoin:miter;stroke-opacity:1"/><path style="fill:#0079bc;fill-opacity:1;stroke:none;stroke-width:.214616px;stroke-linecap:butt;stroke-linejoin:miter;stroke-opacity:1" id="path1060" d="m 53.680087,251.34268 c -9.472521,0 -14.275457,12.37477 -14.275457,24.84496 0,9.75333 5.047196,15.2089 12.424228,15.2089 7.440289,0 12.238693,-8.88499 12.228174,-11.00673 -0.01612,-3.22489 -5.000928,-5.81472 -7.894182,-1.89287 -2.229002,3.02142 -4.059591,4.70485 -5.454793,4.63932 -1.451411,-0.0681 -2.303424,-2.5057 -2.26242,-6.87052 0.01511,-1.61769 0.550781,-1.68733 1.325529,-1.68814 7.555935,-0.007 12.71404,-9.83174 12.71397,-15.12562 -7.7e-5,-5.84927 -4.283309,-8.1093 -8.805049,-8.1093 z m 1.069904,7.35422 c 2.128763,0.40718 0.372774,9.231 -5.196521,11.8296 -0.197923,-4.71746 3.067755,-12.23678 5.196521,-11.8296 z"/><path id="path1069" d="m -15.109686,272.04367 c -3.435562,3.26713 -4.129747,4.15155 -6.743295,8.61326 -1.109785,1.8946 -2.556767,5.18579 0.350467,8.37999 l 7.963582,8.74952 c 1.346447,1.47931 0.962841,2.77118 0,4.26292 l -6.343758,9.82856 c -3.250782,5.03655 4.485451,8.87628 7.353518,5.9858 3.1986106,-3.2236 6.5197199,-7.25752 8.3142956,-11.51982 1.5267219,-3.62608 1.7283306,-7.19355 -0.023842,-9.642 -2.1203553,-2.96297 -4.5530918,-5.43186 -7.5612876,-7.40658 -1.818735,-1.19388 -1.883994,-2.30606 -0.583672,-3.93352 l 7.8180909,-9.78486 c 1.4114864,-1.76656 -0.7094232,-7.39417 -4.1749381,-7.37598 -0.7963108,0.004 -3.3489868,0.9706 -6.3691608,3.84271 z" style="fill:#0079bc;fill-opacity:1;stroke:none;stroke-width:.214616px;stroke-linecap:butt;stroke-linejoin:miter;stroke-opacity:1"/><text style="font-size:38.6271px;line-height:.85;font-family:'Gkreator Inside Beta1';-inkscape-font-specification:'Gkreator Inside Beta1';fill:#0079bc;stroke-width:.154514" id="text5" x="-131.47" y="268.091" transform="matrix(1.0661979,-0.33717367,0.3469363,0.82819729,0,0)">a</text><path style="fill:#0079bc;fill-opacity:1;stroke:none;stroke-width:1.77275" id="path4" d="m -79.126629,218.73191 c -12.447732,7.96639 -13.461707,24.68148 -7.779184,37.14406 5.26275,11.54191 17.121134,16.84362 27.587333,7.16282 4.333945,-4.00871 -0.889291,-15.25996 -2.081635,-20.24108 -0.414298,-1.73071 -0.714823,-5.59675 -2.811454,-6.19757 -4.750094,-1.36112 -11.599945,4.3231 -9.416013,9.09215 1.284297,2.80255 4.711308,1.39788 5.670237,5.20813 0.776585,3.08545 2.38601,9.50092 -3.193586,8.57214 -3.8065,-0.63366 -5.911795,-4.80915 -7.092651,-8.02854 -2.511414,-6.84699 -4.328605,-15.31999 -0.07736,-21.94706 2.155032,-3.35968 7.415192,-3.4466 9.049732,-6.39556 4.461159,-8.04477 -5.787922,-6.97269 -9.855356,-4.36952 z"/><path style="fill:#0079bc;fill-opacity:1;stroke:none;stroke-width:1.71712" id="path6" d="m -20.956414,220.10407 0.485712,-0.16293 c 5.92438,5.81044 11.6266403,11.73835 17.86093,17.3861 1.71598504,1.55453 4.098389,5.09701 7.217758,5.22639 2.724473,0.11304 7.363261,-1.65786 7.255854,-3.83278 -0.154773,-3.13458 -2.142826,-6.40425 -3.135339,-9.44164 -2.282158,-6.98428 -4.594344,-14.01633 -7.316088,-20.91913 -1.11875296,-2.83731 -1.34510696,-8.07213 -4.077541,-10.32075 -2.999453,-2.4684 -8.687463,1.876 -8.180195,4.24452 1.7214926,8.0382 5.564528,17.20113 10.25279004,24.59443 C -4.118937,225.642 -5.48583,223.37194 -7.6844323,221.181 c -3.7259527,-3.71294 -7.4476917,-7.44294 -11.3184337,-11.07983 -1.808723,-1.69946 -4.050303,-5.36629 -7.609103,-5.19622 -2.673219,0.12794 -7.16147,1.72755 -7.121607,3.90837 0.06665,3.64961 2.411195,7.83441 3.753023,11.33964 2.358673,6.16154 4.448223,12.41091 6.584846,18.61462 0.986329,2.86371 1.419799,8.53036 4.233441,10.72667 1.863517,1.45462 7.243386,-0.48326 7.987248,-2.07734 1.026752,-2.20077 -1.143972,-5.31306 -1.864466,-7.44494 -0.858217,-2.53931 -1.674137,-5.09205 -2.651481,-7.60991 -1.602721,-4.12896 -3.294964,-8.21055 -5.265399,-12.25807 z"/></g></g></svg>