<svg xmlns="http://www.w3.org/2000/svg" xmlns:xlink="http://www.w3.org/1999/xlink" width="700" height="600" viewBox="0 0 700 600"><defs><clipPath id="clip-1"><rect width="700" height="600" x="0" y="0" fill="#fff" stroke="none" stroke-linecap="butt" stroke-linejoin="miter" stroke-width="1"/></clipPath></defs><g id="Frame 1" fill="none" fill-rule="nonzero" stroke="none" stroke-dashoffset="0" stroke-linecap="none" stroke-linejoin="none" stroke-miterlimit="10" stroke-width="none" clip-path="url(#clip-1)" font-family="none" font-size="none" font-weight="none" text-anchor="none" style="mix-blend-mode:normal"><rect width="700" height="600" x="0" y="0" fill="#fff" stroke="none" stroke-linecap="butt" stroke-linejoin="miter" stroke-width="1"/><rect width="685.328" height="583.718" x="7.336" y="8.141" fill="#fff" stroke="#000" stroke-linecap="butt" stroke-linejoin="miter" stroke-width="3"/><rect width="672.357" height="174.035" x="13.822" y="16.282" fill="#000" stroke="#000" stroke-linecap="butt" stroke-linejoin="miter" stroke-width="1"/><ellipse cx="350" cy="103.299" fill="red" stroke="#fff" stroke-linecap="butt" stroke-linejoin="miter" stroke-width="2" rx="326.45" ry="73.505"/><text x="141.882" y="135.772" fill="#fff" stroke="none" stroke-linecap="butt" stroke-linejoin="miter" stroke-width="2" data-paper-data="{&quot;textContent&quot;:&quot;DANGER&quot;,&quot;textWidth&quot;:416.2366820047964,&quot;textHeight&quot;:158.9010246593853}" font-family="Noto Sans" font-size="100" font-weight="600" text-anchor="start">DANGER</text><g fill="#000" stroke="none" stroke-linecap="butt" stroke-linejoin="miter" stroke-width="1"><path d="M413.3162,268.17h-7.17v-6.84h6.96c2.44,0 4.66,-0.52 6.66,-1.56c2,-1.04 3.5967,-2.68 4.79,-4.92c1.1867,-2.24 1.78,-5.15 1.78,-8.73v0c0,-3.74 -0.59,-6.7067 -1.77,-8.9c-1.18,-2.1867 -2.77,-3.7567 -4.77,-4.71c-2,-0.9467 -4.24,-1.42 -6.72,-1.42v0h-7.17v-6.54h7.35c4.02,0 7.5667,0.76 10.64,2.28c3.0667,1.52 5.4767,3.8633 7.23,7.03c1.7467,3.1733 2.62,7.24 2.62,12.2v0c0,4.84 -0.91,8.9 -2.73,12.18c-1.82,3.28 -4.27,5.7533 -7.35,7.42c-3.08,1.6733 -6.53,2.51 -10.35,2.51z"/><rect width="43.62" height="7.17" x="-268.17" y="399.936" transform="rotate(-90)"/><path d="M458.6762,269.07v0c-3.54,0 -6.76,-0.88 -9.66,-2.64c-2.9,-1.76 -5.21,-4.35 -6.93,-7.77c-1.72,-3.42 -2.58,-7.61 -2.58,-12.57v0c0,-4.8 0.82,-8.87 2.46,-12.21c1.64,-3.34 3.9067,-5.8767 6.8,-7.61c2.8867,-1.7267 6.2,-2.59 9.94,-2.59v0c3.64,0 6.91,0.8633 9.81,2.59c2.9,1.7333 5.19,4.27 6.87,7.61c1.68,3.34 2.52,7.41 2.52,12.21v0c0,4.96 -0.8333,9.15 -2.5,12.57c-1.6733,3.42 -3.96,6.01 -6.86,7.77c-2.9,1.76 -6.19,2.64 -9.87,2.64zM458.6762,262.53v0c2.24,0 4.26,-0.5867 6.06,-1.76c1.8,-1.1667 3.2367,-2.9567 4.31,-5.37c1.0667,-2.4067 1.6,-5.49 1.6,-9.25v0c0,-3.56 -0.53,-6.52 -1.59,-8.88c-1.06,-2.36 -2.49,-4.1267 -4.29,-5.3c-1.8,-1.1667 -3.82,-1.75 -6.06,-1.75v0c-2.14,0 -4.1133,0.5833 -5.92,1.75c-1.8133,1.1733 -3.27,2.94 -4.37,5.3c-1.1,2.36 -1.65,5.32 -1.65,8.88v0c0,2.82 0.3167,5.26 0.95,7.32c0.6267,2.06 1.4967,3.76 2.61,5.1c1.1067,1.34 2.3767,2.3333 3.81,2.98c1.4267,0.6533 2.94,0.98 4.54,0.98z"/><polygon points="503.286 268.17 496.236 268.17 496.236 224.55 504.156 224.55 518.916 250.95 522.876 260.1 523.116 260.1 521.976 250.41 521.976 224.55 529.026 224.55 529.026 268.17 521.076 268.17 506.466 242.01 502.626 233.07 502.356 233.07 503.286 243.24"/><path d="M555.7862,269.07v0c-3.54,0 -6.76,-0.88 -9.66,-2.64c-2.9,-1.76 -5.21,-4.35 -6.93,-7.77c-1.72,-3.42 -2.58,-7.61 -2.58,-12.57v0c0,-4.8 0.82,-8.87 2.46,-12.21c1.64,-3.34 3.9067,-5.8767 6.8,-7.61c2.8867,-1.7267 6.2,-2.59 9.94,-2.59v0c3.64,0 6.91,0.8633 9.81,2.59c2.9,1.7333 5.19,4.27 6.87,7.61c1.68,3.34 2.52,7.41 2.52,12.21v0c0,4.96 -0.8333,9.15 -2.5,12.57c-1.6733,3.42 -3.96,6.01 -6.86,7.77c-2.9,1.76 -6.19,2.64 -9.87,2.64zM555.7862,262.53v0c2.24,0 4.26,-0.5867 6.06,-1.76c1.8,-1.1667 3.2367,-2.9567 4.31,-5.37c1.0667,-2.4067 1.6,-5.49 1.6,-9.25v0c0,-3.56 -0.53,-6.52 -1.59,-8.88c-1.06,-2.36 -2.49,-4.1267 -4.29,-5.3c-1.8,-1.1667 -3.82,-1.75 -6.06,-1.75v0c-2.14,0 -4.1133,0.5833 -5.92,1.75c-1.8133,1.1733 -3.27,2.94 -4.37,5.3c-1.1,2.36 -1.65,5.32 -1.65,8.88v0c0,2.82 0.3167,5.26 0.95,7.32c0.6267,2.06 1.4967,3.76 2.61,5.1c1.1067,1.34 2.3767,2.3333 3.81,2.98c1.4267,0.6533 2.94,0.98 4.54,0.98z"/><path d="M596.1662,268.17h-7.2v-34.38c0,-0.72 0.1467,-1.3 0.44,-1.74c0.2867,-0.44 0.7,-0.74 1.24,-0.9v0h-12.81v-6.6h29.43v6.6h-11.1z"/><polygon points="382.371 340.17 357.051 340.17 357.051 296.55 364.191 296.55 364.191 337.23 360.741 333.45 382.371 333.45"/><path d="M404.5712,341.07v0c-3.54,0 -6.76,-0.88 -9.66,-2.64c-2.9,-1.76 -5.21,-4.35 -6.93,-7.77c-1.72,-3.42 -2.58,-7.61 -2.58,-12.57v0c0,-4.8 0.82,-8.87 2.46,-12.21c1.64,-3.34 3.9067,-5.8767 6.8,-7.61c2.8867,-1.7267 6.2,-2.59 9.94,-2.59v0c3.64,0 6.91,0.8633 9.81,2.59c2.9,1.7333 5.19,4.27 6.87,7.61c1.68,3.34 2.52,7.41 2.52,12.21v0c0,4.96 -0.8333,9.15 -2.5,12.57c-1.6733,3.42 -3.96,6.01 -6.86,7.77c-2.9,1.76 -6.19,2.64 -9.87,2.64zM404.5712,334.53v0c2.24,0 4.26,-0.5867 6.06,-1.76c1.8,-1.1667 3.2367,-2.9567 4.31,-5.37c1.0667,-2.4067 1.6,-5.49 1.6,-9.25v0c0,-3.56 -0.53,-6.52 -1.59,-8.88c-1.06,-2.36 -2.49,-4.1267 -4.29,-5.3c-1.8,-1.1667 -3.82,-1.75 -6.06,-1.75v0c-2.14,0 -4.1133,0.5833 -5.92,1.75c-1.8133,1.1733 -3.27,2.94 -4.37,5.3c-1.1,2.36 -1.65,5.32 -1.65,8.88v0c0,2.82 0.3167,5.26 0.95,7.32c0.6267,2.06 1.4967,3.76 2.61,5.1c1.1067,1.34 2.3767,2.3333 3.81,2.98c1.4267,0.6533 2.94,0.98 4.54,0.98z"/><path d="M448.5512,341.07v0c-3.54,0 -6.76,-0.88 -9.66,-2.64c-2.9,-1.76 -5.21,-4.35 -6.93,-7.77c-1.72,-3.42 -2.58,-7.61 -2.58,-12.57v0c0,-4.8 0.82,-8.87 2.46,-12.21c1.64,-3.34 3.9067,-5.8767 6.8,-7.61c2.8867,-1.7267 6.2,-2.59 9.94,-2.59v0c3.64,0 6.91,0.8633 9.81,2.59c2.9,1.7333 5.19,4.27 6.87,7.61c1.68,3.34 2.52,7.41 2.52,12.21v0c0,4.96 -0.8333,9.15 -2.5,12.57c-1.6733,3.42 -3.96,6.01 -6.86,7.77c-2.9,1.76 -6.19,2.64 -9.87,2.64zM448.5512,334.53v0c2.24,0 4.26,-0.5867 6.06,-1.76c1.8,-1.1667 3.2367,-2.9567 4.31,-5.37c1.0667,-2.4067 1.6,-5.49 1.6,-9.25v0c0,-3.56 -0.53,-6.52 -1.59,-8.88c-1.06,-2.36 -2.49,-4.1267 -4.29,-5.3c-1.8,-1.1667 -3.82,-1.75 -6.06,-1.75v0c-2.14,0 -4.1133,0.5833 -5.92,1.75c-1.8133,1.1733 -3.27,2.94 -4.37,5.3c-1.1,2.36 -1.65,5.32 -1.65,8.88v0c0,2.82 0.3167,5.26 0.95,7.32c0.6267,2.06 1.4967,3.76 2.61,5.1c1.1067,1.34 2.3767,2.3333 3.81,2.98c1.4267,0.6533 2.94,0.98 4.54,0.98z"/><polygon points="489.681 318.6 482.331 328.08 481.371 321.18 486.681 312.75 498.171 296.55 507.051 296.55 491.961 316.71"/><rect width="43.62" height="7.17" x="-340.17" y="475.401" transform="rotate(-90)"/><polygon points="507.771 340.17 499.491 340.17 486.591 316.89 492.141 313.38"/><rect width="43.62" height="7.23" x="-340.17" y="523.611" transform="rotate(-90)"/><polygon points="547.551 340.17 540.501 340.17 540.501 296.55 548.421 296.55 563.181 322.95 567.141 332.1 567.381 332.1 566.241 322.41 566.241 296.55 573.291 296.55 573.291 340.17 565.341 340.17 550.731 314.01 546.891 305.07 546.621 305.07 547.551 315.24"/><path d="M597.7712,340.17h-7.2v-34.38c0,-0.72 0.1467,-1.3 0.44,-1.74c0.2867,-0.44 0.7,-0.74 1.24,-0.9v0h-12.81v-6.6h29.43v6.6h-11.1z"/><path d="M630.9212,341.07v0c-3.54,0 -6.76,-0.88 -9.66,-2.64c-2.9,-1.76 -5.21,-4.35 -6.93,-7.77c-1.72,-3.42 -2.58,-7.61 -2.58,-12.57v0c0,-4.8 0.82,-8.87 2.46,-12.21c1.64,-3.34 3.9067,-5.8767 6.8,-7.61c2.8867,-1.7267 6.2,-2.59 9.94,-2.59v0c3.64,0 6.91,0.8633 9.81,2.59c2.9,1.7333 5.19,4.27 6.87,7.61c1.68,3.34 2.52,7.41 2.52,12.21v0c0,4.96 -0.8333,9.15 -2.5,12.57c-1.6733,3.42 -3.96,6.01 -6.86,7.77c-2.9,1.76 -6.19,2.64 -9.87,2.64zM630.9212,334.53v0c2.24,0 4.26,-0.5867 6.06,-1.76c1.8,-1.1667 3.2367,-2.9567 4.31,-5.37c1.0667,-2.4067 1.6,-5.49 1.6,-9.25v0c0,-3.56 -0.53,-6.52 -1.59,-8.88c-1.06,-2.36 -2.49,-4.1267 -4.29,-5.3c-1.8,-1.1667 -3.82,-1.75 -6.06,-1.75v0c-2.14,0 -4.1133,0.5833 -5.92,1.75c-1.8133,1.1733 -3.27,2.94 -4.37,5.3c-1.1,2.36 -1.65,5.32 -1.65,8.88v0c0,2.82 0.3167,5.26 0.95,7.32c0.6267,2.06 1.4967,3.76 2.61,5.1c1.1067,1.34 2.3767,2.3333 3.81,2.98c1.4267,0.6533 2.94,0.98 4.54,0.98z"/><polygon points="365.466 412.17 340.146 412.17 340.146 368.55 347.286 368.55 347.286 409.23 343.836 405.45 365.466 405.45"/><polygon points="376.656 412.17 369.156 412.17 383.526 368.55 392.826 368.55 407.196 412.17 399.666 412.17 395.676 399.06 399.726 401.91 378.186 401.91 380.406 395.97 397.896 395.97 395.646 398.97 390.936 383.67 388.266 373.8 388.026 373.8 385.416 383.67"/><path d="M425.7362,412.77v0c-3.2,0 -5.97,-0.51 -8.31,-1.53c-2.34,-1.02 -4.16,-2.5567 -5.46,-4.61c-1.3,-2.0467 -1.98,-4.62 -2.04,-7.72v0h6.84c0.08,1.68 0.4967,3.09 1.25,4.23c0.7467,1.14 1.8067,1.99 3.18,2.55c1.3667,0.56 3.02,0.84 4.96,0.84v0c1.86,0 3.38,-0.22 4.56,-0.66c1.18,-0.44 2.05,-1.0667 2.61,-1.88c0.56,-0.8067 0.84,-1.76 0.84,-2.86v0c0,-1.2 -0.34,-2.2167 -1.02,-3.05c-0.68,-0.8267 -1.7533,-1.6067 -3.22,-2.34c-1.4733,-0.7267 -3.42,-1.51 -5.84,-2.35v0c-2.5,-0.86 -4.6833,-1.91 -6.55,-3.15c-1.8733,-1.24 -3.3233,-2.7167 -4.35,-4.43c-1.0333,-1.7067 -1.55,-3.71 -1.55,-6.01v0c0,-3.88 1.27,-6.84 3.81,-8.88c2.54,-2.04 6.02,-3.06 10.44,-3.06v0c3.06,0 5.54,0.47 7.44,1.41c1.9,0.94 3.3367,2.3233 4.31,4.15c0.9667,1.8333 1.61,4.1 1.93,6.8v0h-6.87c-0.18,-1.38 -0.55,-2.52 -1.11,-3.42c-0.56,-0.9 -1.3233,-1.5767 -2.29,-2.03c-0.9733,-0.4467 -2.19,-0.67 -3.65,-0.67v0c-2.26,0 -4,0.4533 -5.22,1.36c-1.22,0.9133 -1.83,2.27 -1.83,4.07v0c0,1.02 0.1967,1.95 0.59,2.79c0.3867,0.84 1.1967,1.67 2.43,2.49c1.2267,0.82 3.08,1.72 5.56,2.7v0c1.92,0.76 3.7267,1.4833 5.42,2.17c1.6867,0.6933 3.1767,1.49 4.47,2.39c1.2867,0.9 2.3,2.02 3.04,3.36c0.74,1.34 1.12,3.04 1.14,5.1v0c0.04,3.96 -1.2533,6.99 -3.88,9.09c-2.6333,2.1 -6.51,3.15 -11.63,3.15z"/><polygon points="474.546 412.17 447.666 412.17 447.666 368.55 474.216 368.55 474.216 375.15 451.716 375.15 454.686 371.91 454.686 388.38 451.716 386.31 472.566 386.31 472.566 392.82 452.946 392.82 454.686 390.54 454.686 408.78 451.716 405.51 474.546 405.51"/><path d="M513.4262,412.17h-8.61l-10.29,-17.16h-6.57l-2.01,-0.45l0.87,-4.8v-0.96h7.17c1.78,0 3.2,-0.29 4.26,-0.87c1.06,-0.58 1.8267,-1.41 2.3,-2.49c0.4667,-1.08 0.7,-2.37 0.7,-3.87v0c0,-1.74 -0.3133,-3.0667 -0.94,-3.98c-0.6333,-0.9067 -1.49,-1.53 -2.57,-1.87c-1.08,-0.34 -2.29,-0.51 -3.63,-0.51v0l-5.61,-0.03l-0.24,-1.65l-2.34,-4.98c0.92,0 1.81,0 2.67,0c0.86,0 1.7667,0 2.72,0c0.9467,0 2.01,0 3.19,0v0c2.78,0 5.22,0.4333 7.32,1.3c2.1,0.8733 3.74,2.2233 4.92,4.05c1.18,1.8333 1.77,4.19 1.77,7.07v0c0,1.92 -0.3533,3.7833 -1.06,5.59c-0.7133,1.8133 -1.81,3.3733 -3.29,4.68c-1.48,1.3133 -3.38,2.2 -5.7,2.66v0l-0.45,-0.45c0.86,0 1.57,0.0633 2.13,0.19c0.56,0.1333 1.08,0.42 1.56,0.86c0.48,0.44 1.01,1.11 1.59,2.01v0z"/><rect width="43.62" height="7.02" x="-412.17" y="481.656" transform="rotate(-90)"/><polygon points="546.216 412.17 536.946 412.17 525.786 368.55 533.556 368.55 537.876 389.28 541.236 406.2 541.536 406.2 544.716 389.28 549.006 368.55 557.286 368.55 561.606 389.28 564.786 406.2 565.086 406.2 568.686 389.28 573.246 368.55 581.046 368.55 569.346 412.17 560.106 412.17 555.066 389.55 553.236 378.63 553.086 378.63 551.226 389.55"/><rect width="43.62" height="7.23" x="-412.17" y="586.596" transform="rotate(-90)"/><path d="M618.3062,412.17h-7.2v-34.38c0,-0.72 0.1467,-1.3 0.44,-1.74c0.2867,-0.44 0.7,-0.74 1.24,-0.9v0h-12.81v-6.6h29.43v6.6h-11.1z"/><rect width="43.62" height="7.11" x="-412.17" y="659.946" transform="rotate(-90)"/><rect width="43.62" height="7.08" x="-412.17" y="635.586" transform="rotate(-90)"/><polygon points="661.026 392.97 640.536 392.97 640.536 386.61 661.116 386.61"/><path d="M378.1562,484.17h-8.61l-10.29,-17.16h-6.57l-2.01,-0.45l0.87,-4.8v-0.96h7.17c1.78,0 3.2,-0.29 4.26,-0.87c1.06,-0.58 1.8267,-1.41 2.3,-2.49c0.4667,-1.08 0.7,-2.37 0.7,-3.87v0c0,-1.74 -0.3133,-3.0667 -0.94,-3.98c-0.6333,-0.9067 -1.49,-1.53 -2.57,-1.87c-1.08,-0.34 -2.29,-0.51 -3.63,-0.51v0l-5.61,-0.03l-0.24,-1.65l-2.34,-4.98c0.92,0 1.81,0 2.67,0c0.86,0 1.7667,0 2.72,0c0.9467,0 2.01,0 3.19,0v0c2.78,0 5.22,0.4333 7.32,1.3c2.1,0.8733 3.74,2.2233 4.92,4.05c1.18,1.8333 1.77,4.19 1.77,7.07v0c0,1.92 -0.3533,3.7833 -1.06,5.59c-0.7133,1.8133 -1.81,3.3733 -3.29,4.68c-1.48,1.3133 -3.38,2.2 -5.7,2.66v0l-0.45,-0.45c0.86,0 1.57,0.0633 2.13,0.19c0.56,0.1333 1.08,0.42 1.56,0.86c0.48,0.44 1.01,1.11 1.59,2.01v0z"/><rect width="43.62" height="7.02" x="-484.17" y="346.386" transform="rotate(-90)"/><polygon points="410.376 484.17 383.496 484.17 383.496 440.55 410.046 440.55 410.046 447.15 387.546 447.15 390.516 443.91 390.516 460.38 387.546 458.31 408.396 458.31 408.396 464.82 388.776 464.82 390.516 462.54 390.516 480.78 387.546 477.51 410.376 477.51"/><polygon points="424.476 484.17 417.486 484.17 417.486 440.55 428.706 440.55 435.456 462.21 438.156 471.39 438.306 471.39 441.096 462.21 447.636 440.55 458.916 440.55 458.916 484.17 451.896 484.17 451.896 459.15 452.346 447.78 452.106 447.78 448.596 458.76 440.196 484.17 436.536 484.17 427.806 458.76 424.296 447.78 424.086 447.78 424.476 459.15"/><polygon points="471.966 484.17 464.466 484.17 478.836 440.55 488.136 440.55 502.506 484.17 494.976 484.17 490.986 471.06 495.036 473.91 473.496 473.91 475.716 467.97 493.206 467.97 490.956 470.97 486.246 455.67 483.576 445.8 483.336 445.8 480.726 455.67"/><rect width="43.62" height="7.23" x="-484.17" y="507.966" transform="rotate(-90)"/><polygon points="531.906 484.17 524.856 484.17 524.856 440.55 532.776 440.55 547.536 466.95 551.496 476.1 551.736 476.1 550.596 466.41 550.596 440.55 557.646 440.55 557.646 484.17 549.696 484.17 535.086 458.01 531.246 449.07 530.976 449.07 531.906 459.24"/><rect width="43.62" height="7.23" x="-484.17" y="567.276" transform="rotate(-90)"/><polygon points="591.216 484.17 584.166 484.17 584.166 440.55 592.086 440.55 606.846 466.95 610.806 476.1 611.046 476.1 609.906 466.41 609.906 440.55 616.956 440.55 616.956 484.17 609.006 484.17 594.396 458.01 590.556 449.07 590.286 449.07 591.216 459.24"/><path d="M644.8862,484.77v0c-4.1,0 -7.68,-0.9167 -10.74,-2.75c-3.06,-1.8267 -5.4233,-4.4267 -7.09,-7.8c-1.6733,-3.3667 -2.51,-7.37 -2.51,-12.01v0c0,-4.62 0.8267,-8.61 2.48,-11.97c1.6467,-3.36 3.96,-5.95 6.94,-7.77c2.98,-1.82 6.44,-2.73 10.38,-2.73v0c2.7,0 5.2,0.4933 7.5,1.48c2.3,0.9933 4.21,2.5033 5.73,4.53c1.52,2.0333 2.47,4.62 2.85,7.76v0h-7.17c-0.14,-1 -0.4533,-1.9367 -0.94,-2.81c-0.4933,-0.8667 -1.1233,-1.63 -1.89,-2.29c-0.7733,-0.66 -1.6833,-1.1767 -2.73,-1.55c-1.0533,-0.3667 -2.22,-0.55 -3.5,-0.55v0c-1.88,0 -3.5833,0.36 -5.11,1.08c-1.5333,0.72 -2.84,1.7633 -3.92,3.13c-1.08,1.3733 -1.91,3.0433 -2.49,5.01c-0.58,1.9733 -0.87,4.21 -0.87,6.71v0c0,3.34 0.52,6.2 1.56,8.58c1.04,2.38 2.5367,4.2033 4.49,5.47c1.9467,1.2733 4.3,1.91 7.06,1.91v0c1.14,0 2.2867,-0.1 3.44,-0.3c1.1467,-0.2 2.2267,-0.5 3.24,-0.9c1.0067,-0.4 1.84,-0.9 2.5,-1.5v0v-8.22h-9.03v-6.3h15.75l-0.06,18.18c-2.16,1.66 -4.5633,3.01 -7.21,4.05c-2.6533,1.04 -5.54,1.56 -8.66,1.56z"/><polygon points="480.936 556.17 454.056 556.17 454.056 512.55 480.606 512.55 480.606 519.15 458.106 519.15 461.076 515.91 461.076 532.38 458.106 530.31 478.956 530.31 478.956 536.82 459.336 536.82 461.076 534.54 461.076 552.78 458.106 549.51 480.936 549.51"/><polygon points="506.286 542.19 499.326 542.19 484.266 512.55 492.576 512.55 498.006 524.31 502.476 534.3 503.016 534.3 507.546 524.34 513.036 512.55 521.316 512.55"/><rect width="17.94" height="7.2" x="-556.17" y="499.206" transform="rotate(-90)"/><polygon points="553.146 556.17 526.266 556.17 526.266 512.55 552.816 512.55 552.816 519.15 530.316 519.15 533.286 515.91 533.286 532.38 530.316 530.31 551.166 530.31 551.166 536.82 531.546 536.82 533.286 534.54 533.286 552.78 530.316 549.51 553.146 549.51"/></g><g><g><g id="triangle 1" fill="none" stroke="none" stroke-linecap="butt" stroke-linejoin="round" stroke-width="1"><polygon points="176.624 258.046 322 512.454 31.247 512.454"/></g><g id="triangle 2" fill="#ffe600" stroke="#000" stroke-linecap="butt" stroke-linejoin="round" stroke-width="10"><polygon points="176.624 258.046 322 512.454 31.247 512.454"/></g><g id="raypair 6" fill="#000" stroke="none" stroke-linecap="butt" stroke-linejoin="miter" stroke-width="1" data-paper-data="{&quot;rotation&quot;:-54.11069721179439}"><polyline points="176.006 430.504 117.699 391.518 121.96 385.629 177.224 428.822"/><polyline points="175.809 430.318 145.123 395.043 149.152 391.768 177.421 429.008"/></g><g id="raypair 5" fill="#000" stroke="none" stroke-linecap="butt" stroke-linejoin="miter" stroke-width="1" data-paper-data="{&quot;rotation&quot;:125.88930278820554}"><polyline points="177.444 428.975 235.749 467.964 231.487 473.854 176.227 430.658"/><polyline points="177.643 429.159 208.328 464.435 204.298 467.712 176.03 430.471"/></g><g id="raypair 2" fill="#000" stroke="none" stroke-linecap="butt" stroke-linejoin="miter" stroke-width="1" data-paper-data="{&quot;rotation&quot;:215.8893027882055}"><polyline points="179.009 431.28 140.023 489.587 134.134 485.326 177.327 430.062"/><polyline points="178.823 431.477 143.548 462.163 140.273 458.134 177.513 429.865"/></g><g id="raypair 1" fill="#000" stroke="none" stroke-linecap="butt" stroke-linejoin="miter" stroke-width="1" data-paper-data="{&quot;rotation&quot;:35.88930278820561}"><polyline points="175.986 428.761 214.972 370.454 220.861 374.715 177.668 429.978"/><polyline points="176.172 428.564 211.447 397.878 214.722 401.907 177.482 430.175"/></g><circle cx="176.624" cy="429.382" r="23.364" fill="#000" stroke="none" stroke-linecap="butt" stroke-linejoin="miter" stroke-width="1"/><line x1="176.624" x2="272.676" y1="429.382" y2="429.382" fill="none" stroke="#000" stroke-linecap="round" stroke-linejoin="miter" stroke-width="14"/></g></g><g id="raypair 2 1" fill="#000" stroke="none" stroke-linecap="butt" stroke-linejoin="miter" stroke-width="1" data-paper-data="{&quot;rotation&quot;:260.88930278820544}"><polyline points="177.161 432.297 108.364 445.959 107.213 438.781 176.832 430.246"/><polyline points="176.89 432.304 130.248 429.059 130.781 423.894 177.103 430.238"/></g><g id="raypair 5 1" fill="#000" stroke="none" stroke-linecap="butt" stroke-linejoin="miter" stroke-width="1" data-paper-data="{&quot;rotation&quot;:170.8893027882055}"><polyline points="177.684 429.56 191.342 498.358 184.163 499.509 175.633 429.889"/><polyline points="177.694 429.831 174.448 476.473 169.281 475.94 175.626 429.618"/></g><g id="raypair 6 1" fill="#000" stroke="none" stroke-linecap="butt" stroke-linejoin="miter" stroke-width="1" data-paper-data="{&quot;rotation&quot;:-9.110697211794395}"><polyline points="175.586 429.625 161.924 360.828 169.101 359.677 177.636 429.296"/><polyline points="175.578 429.354 178.823 382.712 183.988 383.245 177.644 429.567"/></g></g></svg>