<svg width="700" height="600" viewBox="0 0 700 600" xmlns="http://www.w3.org/2000/svg" xmlns:xlink="http://www.w3.org/1999/xlink"><defs><clipPath id="clip-1"><rect x="0" y="0" width="700" height="600" fill="#ffffff" stroke="none" stroke-width="1" stroke-linecap="butt" stroke-linejoin="miter"></rect></clipPath></defs><g clip-path="url(#clip-1)" id="Frame 1" fill="none" fill-rule="nonzero" stroke="none" stroke-width="none" stroke-linecap="none" stroke-linejoin="none" stroke-miterlimit="10" stroke-dasharray="" stroke-dashoffset="0" font-family="none" font-weight="none" font-size="none" text-anchor="none" style="mix-blend-mode: normal"><rect x="0" y="0" width="700" height="600" fill="#ffffff" stroke="none" stroke-width="1" stroke-linecap="butt" stroke-linejoin="miter"></rect><rect x="7.3359" y="8.141" width="685.3282" height="583.718" fill="#ffffff" stroke="#000000" stroke-width="3" stroke-linecap="butt" stroke-linejoin="miter"></rect><rect x="13.8216" y="16.282" transform="" width="672.3567" height="174.0345" fill="#000000" stroke="#000000" stroke-width="1" stroke-linecap="butt" stroke-linejoin="miter"></rect><ellipse cx="350" cy="103.2992" transform="" rx="326.4497" ry="73.5052" fill="#ff0000" stroke="#ffffff" stroke-width="2" stroke-linecap="butt" stroke-linejoin="miter"></ellipse><text x="141.8817" y="135.7722" data-paper-data="{&quot;textContent&quot;:&quot;DANGER&quot;,&quot;textWidth&quot;:416.2366820047964,&quot;textHeight&quot;:158.9010246593853}" fill="#ffffff" stroke="none" stroke-width="2" stroke-linecap="butt" stroke-linejoin="miter" font-family="Noto Sans" font-weight="600" font-size="100" text-anchor="start">DANGER</text><g fill="#000000" stroke="none" stroke-width="1" stroke-linecap="butt" stroke-linejoin="miter"><path d="M413.3162,268.17h-7.17v-6.84h6.96c2.44,0 4.66,-0.52 6.66,-1.56c2,-1.04 3.5967,-2.68 4.79,-4.92c1.1867,-2.24 1.78,-5.15 1.78,-8.73v0c0,-3.74 -0.59,-6.7067 -1.77,-8.9c-1.18,-2.1867 -2.77,-3.7567 -4.77,-4.71c-2,-0.9467 -4.24,-1.42 -6.72,-1.42v0h-7.17v-6.54h7.35c4.02,0 7.5667,0.76 10.64,2.28c3.0667,1.52 5.4767,3.8633 7.23,7.03c1.7467,3.1733 2.62,7.24 2.62,12.2v0c0,4.84 -0.91,8.9 -2.73,12.18c-1.82,3.28 -4.27,5.7533 -7.35,7.42c-3.08,1.6733 -6.53,2.51 -10.35,2.51z"></path><rect x="-268.17" y="399.9362" transform="rotate(-90)" width="43.62" height="7.17"></rect><path d="M458.6762,269.07v0c-3.54,0 -6.76,-0.88 -9.66,-2.64c-2.9,-1.76 -5.21,-4.35 -6.93,-7.77c-1.72,-3.42 -2.58,-7.61 -2.58,-12.57v0c0,-4.8 0.82,-8.87 2.46,-12.21c1.64,-3.34 3.9067,-5.8767 6.8,-7.61c2.8867,-1.7267 6.2,-2.59 9.94,-2.59v0c3.64,0 6.91,0.8633 9.81,2.59c2.9,1.7333 5.19,4.27 6.87,7.61c1.68,3.34 2.52,7.41 2.52,12.21v0c0,4.96 -0.8333,9.15 -2.5,12.57c-1.6733,3.42 -3.96,6.01 -6.86,7.77c-2.9,1.76 -6.19,2.64 -9.87,2.64zM458.6762,262.53v0c2.24,0 4.26,-0.5867 6.06,-1.76c1.8,-1.1667 3.2367,-2.9567 4.31,-5.37c1.0667,-2.4067 1.6,-5.49 1.6,-9.25v0c0,-3.56 -0.53,-6.52 -1.59,-8.88c-1.06,-2.36 -2.49,-4.1267 -4.29,-5.3c-1.8,-1.1667 -3.82,-1.75 -6.06,-1.75v0c-2.14,0 -4.1133,0.5833 -5.92,1.75c-1.8133,1.1733 -3.27,2.94 -4.37,5.3c-1.1,2.36 -1.65,5.32 -1.65,8.88v0c0,2.82 0.3167,5.26 0.95,7.32c0.6267,2.06 1.4967,3.76 2.61,5.1c1.1067,1.34 2.3767,2.3333 3.81,2.98c1.4267,0.6533 2.94,0.98 4.54,0.98z"></path><polygon points="503.2862,268.17 496.2362,268.17 496.2362,224.55 504.1562,224.55 518.9162,250.95 522.8762,260.1 523.1162,260.1 521.9762,250.41 521.9762,224.55 529.0262,224.55 529.0262,268.17 521.0762,268.17 506.4662,242.01 502.6262,233.07 502.3562,233.07 503.2862,243.24"></polygon><path d="M555.7862,269.07v0c-3.54,0 -6.76,-0.88 -9.66,-2.64c-2.9,-1.76 -5.21,-4.35 -6.93,-7.77c-1.72,-3.42 -2.58,-7.61 -2.58,-12.57v0c0,-4.8 0.82,-8.87 2.46,-12.21c1.64,-3.34 3.9067,-5.8767 6.8,-7.61c2.8867,-1.7267 6.2,-2.59 9.94,-2.59v0c3.64,0 6.91,0.8633 9.81,2.59c2.9,1.7333 5.19,4.27 6.87,7.61c1.68,3.34 2.52,7.41 2.52,12.21v0c0,4.96 -0.8333,9.15 -2.5,12.57c-1.6733,3.42 -3.96,6.01 -6.86,7.77c-2.9,1.76 -6.19,2.64 -9.87,2.64zM555.7862,262.53v0c2.24,0 4.26,-0.5867 6.06,-1.76c1.8,-1.1667 3.2367,-2.9567 4.31,-5.37c1.0667,-2.4067 1.6,-5.49 1.6,-9.25v0c0,-3.56 -0.53,-6.52 -1.59,-8.88c-1.06,-2.36 -2.49,-4.1267 -4.29,-5.3c-1.8,-1.1667 -3.82,-1.75 -6.06,-1.75v0c-2.14,0 -4.1133,0.5833 -5.92,1.75c-1.8133,1.1733 -3.27,2.94 -4.37,5.3c-1.1,2.36 -1.65,5.32 -1.65,8.88v0c0,2.82 0.3167,5.26 0.95,7.32c0.6267,2.06 1.4967,3.76 2.61,5.1c1.1067,1.34 2.3767,2.3333 3.81,2.98c1.4267,0.6533 2.94,0.98 4.54,0.98z"></path><path d="M596.1662,268.17h-7.2v-34.38c0,-0.72 0.1467,-1.3 0.44,-1.74c0.2867,-0.44 0.7,-0.74 1.24,-0.9v0h-12.81v-6.6h29.43v6.6h-11.1z"></path><polygon points="382.3712,340.17 357.0512,340.17 357.0512,296.55 364.1912,296.55 364.1912,337.23 360.7412,333.45 382.3712,333.45"></polygon><path d="M404.5712,341.07v0c-3.54,0 -6.76,-0.88 -9.66,-2.64c-2.9,-1.76 -5.21,-4.35 -6.93,-7.77c-1.72,-3.42 -2.58,-7.61 -2.58,-12.57v0c0,-4.8 0.82,-8.87 2.46,-12.21c1.64,-3.34 3.9067,-5.8767 6.8,-7.61c2.8867,-1.7267 6.2,-2.59 9.94,-2.59v0c3.64,0 6.91,0.8633 9.81,2.59c2.9,1.7333 5.19,4.27 6.87,7.61c1.68,3.34 2.52,7.41 2.52,12.21v0c0,4.96 -0.8333,9.15 -2.5,12.57c-1.6733,3.42 -3.96,6.01 -6.86,7.77c-2.9,1.76 -6.19,2.64 -9.87,2.64zM404.5712,334.53v0c2.24,0 4.26,-0.5867 6.06,-1.76c1.8,-1.1667 3.2367,-2.9567 4.31,-5.37c1.0667,-2.4067 1.6,-5.49 1.6,-9.25v0c0,-3.56 -0.53,-6.52 -1.59,-8.88c-1.06,-2.36 -2.49,-4.1267 -4.29,-5.3c-1.8,-1.1667 -3.82,-1.75 -6.06,-1.75v0c-2.14,0 -4.1133,0.5833 -5.92,1.75c-1.8133,1.1733 -3.27,2.94 -4.37,5.3c-1.1,2.36 -1.65,5.32 -1.65,8.88v0c0,2.82 0.3167,5.26 0.95,7.32c0.6267,2.06 1.4967,3.76 2.61,5.1c1.1067,1.34 2.3767,2.3333 3.81,2.98c1.4267,0.6533 2.94,0.98 4.54,0.98z"></path><path d="M448.5512,341.07v0c-3.54,0 -6.76,-0.88 -9.66,-2.64c-2.9,-1.76 -5.21,-4.35 -6.93,-7.77c-1.72,-3.42 -2.58,-7.61 -2.58,-12.57v0c0,-4.8 0.82,-8.87 2.46,-12.21c1.64,-3.34 3.9067,-5.8767 6.8,-7.61c2.8867,-1.7267 6.2,-2.59 9.94,-2.59v0c3.64,0 6.91,0.8633 9.81,2.59c2.9,1.7333 5.19,4.27 6.87,7.61c1.68,3.34 2.52,7.41 2.52,12.21v0c0,4.96 -0.8333,9.15 -2.5,12.57c-1.6733,3.42 -3.96,6.01 -6.86,7.77c-2.9,1.76 -6.19,2.64 -9.87,2.64zM448.5512,334.53v0c2.24,0 4.26,-0.5867 6.06,-1.76c1.8,-1.1667 3.2367,-2.9567 4.31,-5.37c1.0667,-2.4067 1.6,-5.49 1.6,-9.25v0c0,-3.56 -0.53,-6.52 -1.59,-8.88c-1.06,-2.36 -2.49,-4.1267 -4.29,-5.3c-1.8,-1.1667 -3.82,-1.75 -6.06,-1.75v0c-2.14,0 -4.1133,0.5833 -5.92,1.75c-1.8133,1.1733 -3.27,2.94 -4.37,5.3c-1.1,2.36 -1.65,5.32 -1.65,8.88v0c0,2.82 0.3167,5.26 0.95,7.32c0.6267,2.06 1.4967,3.76 2.61,5.1c1.1067,1.34 2.3767,2.3333 3.81,2.98c1.4267,0.6533 2.94,0.98 4.54,0.98z"></path><polygon points="489.6812,318.6 482.3312,328.08 481.3712,321.18 486.6812,312.75 498.1712,296.55 507.0512,296.55 491.9612,316.71"></polygon><rect x="-340.17" y="475.4012" transform="rotate(-90)" width="43.62" height="7.17"></rect><polygon points="507.7712,340.17 499.4912,340.17 486.5912,316.89 492.1412,313.38"></polygon><rect x="-340.17" y="523.6112" transform="rotate(-90)" width="43.62" height="7.23"></rect><polygon points="547.5512,340.17 540.5012,340.17 540.5012,296.55 548.4212,296.55 563.1812,322.95 567.1412,332.1 567.3812,332.1 566.2412,322.41 566.2412,296.55 573.2912,296.55 573.2912,340.17 565.3412,340.17 550.7312,314.01 546.8912,305.07 546.6212,305.07 547.5512,315.24"></polygon><path d="M597.7712,340.17h-7.2v-34.38c0,-0.72 0.1467,-1.3 0.44,-1.74c0.2867,-0.44 0.7,-0.74 1.24,-0.9v0h-12.81v-6.6h29.43v6.6h-11.1z"></path><path d="M630.9212,341.07v0c-3.54,0 -6.76,-0.88 -9.66,-2.64c-2.9,-1.76 -5.21,-4.35 -6.93,-7.77c-1.72,-3.42 -2.58,-7.61 -2.58,-12.57v0c0,-4.8 0.82,-8.87 2.46,-12.21c1.64,-3.34 3.9067,-5.8767 6.8,-7.61c2.8867,-1.7267 6.2,-2.59 9.94,-2.59v0c3.64,0 6.91,0.8633 9.81,2.59c2.9,1.7333 5.19,4.27 6.87,7.61c1.68,3.34 2.52,7.41 2.52,12.21v0c0,4.96 -0.8333,9.15 -2.5,12.57c-1.6733,3.42 -3.96,6.01 -6.86,7.77c-2.9,1.76 -6.19,2.64 -9.87,2.64zM630.9212,334.53v0c2.24,0 4.26,-0.5867 6.06,-1.76c1.8,-1.1667 3.2367,-2.9567 4.31,-5.37c1.0667,-2.4067 1.6,-5.49 1.6,-9.25v0c0,-3.56 -0.53,-6.52 -1.59,-8.88c-1.06,-2.36 -2.49,-4.1267 -4.29,-5.3c-1.8,-1.1667 -3.82,-1.75 -6.06,-1.75v0c-2.14,0 -4.1133,0.5833 -5.92,1.75c-1.8133,1.1733 -3.27,2.94 -4.37,5.3c-1.1,2.36 -1.65,5.32 -1.65,8.88v0c0,2.82 0.3167,5.26 0.95,7.32c0.6267,2.06 1.4967,3.76 2.61,5.1c1.1067,1.34 2.3767,2.3333 3.81,2.98c1.4267,0.6533 2.94,0.98 4.54,0.98z"></path><polygon points="365.4662,412.17 340.1462,412.17 340.1462,368.55 347.2862,368.55 347.2862,409.23 343.8362,405.45 365.4662,405.45"></polygon><polygon points="376.6562,412.17 369.1562,412.17 383.5262,368.55 392.8262,368.55 407.1962,412.17 399.6662,412.17 395.6762,399.06 399.7262,401.91 378.1862,401.91 380.4062,395.97 397.8962,395.97 395.6462,398.97 390.9362,383.67 388.2662,373.8 388.0262,373.8 385.4162,383.67"></polygon><path d="M425.7362,412.77v0c-3.2,0 -5.97,-0.51 -8.31,-1.53c-2.34,-1.02 -4.16,-2.5567 -5.46,-4.61c-1.3,-2.0467 -1.98,-4.62 -2.04,-7.72v0h6.84c0.08,1.68 0.4967,3.09 1.25,4.23c0.7467,1.14 1.8067,1.99 3.18,2.55c1.3667,0.56 3.02,0.84 4.96,0.84v0c1.86,0 3.38,-0.22 4.56,-0.66c1.18,-0.44 2.05,-1.0667 2.61,-1.88c0.56,-0.8067 0.84,-1.76 0.84,-2.86v0c0,-1.2 -0.34,-2.2167 -1.02,-3.05c-0.68,-0.8267 -1.7533,-1.6067 -3.22,-2.34c-1.4733,-0.7267 -3.42,-1.51 -5.84,-2.35v0c-2.5,-0.86 -4.6833,-1.91 -6.55,-3.15c-1.8733,-1.24 -3.3233,-2.7167 -4.35,-4.43c-1.0333,-1.7067 -1.55,-3.71 -1.55,-6.01v0c0,-3.88 1.27,-6.84 3.81,-8.88c2.54,-2.04 6.02,-3.06 10.44,-3.06v0c3.06,0 5.54,0.47 7.44,1.41c1.9,0.94 3.3367,2.3233 4.31,4.15c0.9667,1.8333 1.61,4.1 1.93,6.8v0h-6.87c-0.18,-1.38 -0.55,-2.52 -1.11,-3.42c-0.56,-0.9 -1.3233,-1.5767 -2.29,-2.03c-0.9733,-0.4467 -2.19,-0.67 -3.65,-0.67v0c-2.26,0 -4,0.4533 -5.22,1.36c-1.22,0.9133 -1.83,2.27 -1.83,4.07v0c0,1.02 0.1967,1.95 0.59,2.79c0.3867,0.84 1.1967,1.67 2.43,2.49c1.2267,0.82 3.08,1.72 5.56,2.7v0c1.92,0.76 3.7267,1.4833 5.42,2.17c1.6867,0.6933 3.1767,1.49 4.47,2.39c1.2867,0.9 2.3,2.02 3.04,3.36c0.74,1.34 1.12,3.04 1.14,5.1v0c0.04,3.96 -1.2533,6.99 -3.88,9.09c-2.6333,2.1 -6.51,3.15 -11.63,3.15z"></path><polygon points="474.5462,412.17 447.6662,412.17 447.6662,368.55 474.2162,368.55 474.2162,375.15 451.7162,375.15 454.6862,371.91 454.6862,388.38 451.7162,386.31 472.5662,386.31 472.5662,392.82 452.9462,392.82 454.6862,390.54 454.6862,408.78 451.7162,405.51 474.5462,405.51"></polygon><path d="M513.4262,412.17h-8.61l-10.29,-17.16h-6.57l-2.01,-0.45l0.87,-4.8v-0.96h7.17c1.78,0 3.2,-0.29 4.26,-0.87c1.06,-0.58 1.8267,-1.41 2.3,-2.49c0.4667,-1.08 0.7,-2.37 0.7,-3.87v0c0,-1.74 -0.3133,-3.0667 -0.94,-3.98c-0.6333,-0.9067 -1.49,-1.53 -2.57,-1.87c-1.08,-0.34 -2.29,-0.51 -3.63,-0.51v0l-5.61,-0.03l-0.24,-1.65l-2.34,-4.98c0.92,0 1.81,0 2.67,0c0.86,0 1.7667,0 2.72,0c0.9467,0 2.01,0 3.19,0v0c2.78,0 5.22,0.4333 7.32,1.3c2.1,0.8733 3.74,2.2233 4.92,4.05c1.18,1.8333 1.77,4.19 1.77,7.07v0c0,1.92 -0.3533,3.7833 -1.06,5.59c-0.7133,1.8133 -1.81,3.3733 -3.29,4.68c-1.48,1.3133 -3.38,2.2 -5.7,2.66v0l-0.45,-0.45c0.86,0 1.57,0.0633 2.13,0.19c0.56,0.1333 1.08,0.42 1.56,0.86c0.48,0.44 1.01,1.11 1.59,2.01v0z"></path><rect x="-412.17" y="481.6562" transform="rotate(-90)" width="43.62" height="7.02"></rect><polygon points="546.2162,412.17 536.9462,412.17 525.7862,368.55 533.5562,368.55 537.8762,389.28 541.2362,406.2 541.5362,406.2 544.7162,389.28 549.0062,368.55 557.2862,368.55 561.6062,389.28 564.7862,406.2 565.0862,406.2 568.6862,389.28 573.2462,368.55 581.0462,368.55 569.3462,412.17 560.1062,412.17 555.0662,389.55 553.2362,378.63 553.0862,378.63 551.2262,389.55"></polygon><rect x="-412.17" y="586.5962" transform="rotate(-90)" width="43.62" height="7.23"></rect><path d="M618.3062,412.17h-7.2v-34.38c0,-0.72 0.1467,-1.3 0.44,-1.74c0.2867,-0.44 0.7,-0.74 1.24,-0.9v0h-12.81v-6.6h29.43v6.6h-11.1z"></path><rect x="-412.17" y="659.9462" transform="rotate(-90)" width="43.62" height="7.11"></rect><rect x="-412.17" y="635.5862" transform="rotate(-90)" width="43.62" height="7.08"></rect><polygon points="661.0262,392.97 640.5362,392.97 640.5362,386.61 661.1162,386.61"></polygon><path d="M378.1562,484.17h-8.61l-10.29,-17.16h-6.57l-2.01,-0.45l0.87,-4.8v-0.96h7.17c1.78,0 3.2,-0.29 4.26,-0.87c1.06,-0.58 1.8267,-1.41 2.3,-2.49c0.4667,-1.08 0.7,-2.37 0.7,-3.87v0c0,-1.74 -0.3133,-3.0667 -0.94,-3.98c-0.6333,-0.9067 -1.49,-1.53 -2.57,-1.87c-1.08,-0.34 -2.29,-0.51 -3.63,-0.51v0l-5.61,-0.03l-0.24,-1.65l-2.34,-4.98c0.92,0 1.81,0 2.67,0c0.86,0 1.7667,0 2.72,0c0.9467,0 2.01,0 3.19,0v0c2.78,0 5.22,0.4333 7.32,1.3c2.1,0.8733 3.74,2.2233 4.92,4.05c1.18,1.8333 1.77,4.19 1.77,7.07v0c0,1.92 -0.3533,3.7833 -1.06,5.59c-0.7133,1.8133 -1.81,3.3733 -3.29,4.68c-1.48,1.3133 -3.38,2.2 -5.7,2.66v0l-0.45,-0.45c0.86,0 1.57,0.0633 2.13,0.19c0.56,0.1333 1.08,0.42 1.56,0.86c0.48,0.44 1.01,1.11 1.59,2.01v0z"></path><rect x="-484.17" y="346.3862" transform="rotate(-90)" width="43.62" height="7.02"></rect><polygon points="410.3762,484.17 383.4962,484.17 383.4962,440.55 410.0462,440.55 410.0462,447.15 387.5462,447.15 390.5162,443.91 390.5162,460.38 387.5462,458.31 408.3962,458.31 408.3962,464.82 388.7762,464.82 390.5162,462.54 390.5162,480.78 387.5462,477.51 410.3762,477.51"></polygon><polygon points="424.4762,484.17 417.4862,484.17 417.4862,440.55 428.7062,440.55 435.4562,462.21 438.1562,471.39 438.3062,471.39 441.0962,462.21 447.6362,440.55 458.9162,440.55 458.9162,484.17 451.8962,484.17 451.8962,459.15 452.3462,447.78 452.1062,447.78 448.5962,458.76 440.1962,484.17 436.5362,484.17 427.8062,458.76 424.2962,447.78 424.0862,447.78 424.4762,459.15"></polygon><polygon points="471.9662,484.17 464.4662,484.17 478.8362,440.55 488.1362,440.55 502.5062,484.17 494.9762,484.17 490.9862,471.06 495.0362,473.91 473.4962,473.91 475.7162,467.97 493.2062,467.97 490.9562,470.97 486.2462,455.67 483.5762,445.8 483.3362,445.8 480.7262,455.67"></polygon><rect x="-484.17" y="507.9662" transform="rotate(-90)" width="43.62" height="7.23"></rect><polygon points="531.9062,484.17 524.8562,484.17 524.8562,440.55 532.7762,440.55 547.5362,466.95 551.4962,476.1 551.7362,476.1 550.5962,466.41 550.5962,440.55 557.6462,440.55 557.6462,484.17 549.6962,484.17 535.0862,458.01 531.2462,449.07 530.9762,449.07 531.9062,459.24"></polygon><rect x="-484.17" y="567.2762" transform="rotate(-90)" width="43.62" height="7.23"></rect><polygon points="591.2162,484.17 584.1662,484.17 584.1662,440.55 592.0862,440.55 606.8462,466.95 610.8062,476.1 611.0462,476.1 609.9062,466.41 609.9062,440.55 616.9562,440.55 616.9562,484.17 609.0062,484.17 594.3962,458.01 590.5562,449.07 590.2862,449.07 591.2162,459.24"></polygon><path d="M644.8862,484.77v0c-4.1,0 -7.68,-0.9167 -10.74,-2.75c-3.06,-1.8267 -5.4233,-4.4267 -7.09,-7.8c-1.6733,-3.3667 -2.51,-7.37 -2.51,-12.01v0c0,-4.62 0.8267,-8.61 2.48,-11.97c1.6467,-3.36 3.96,-5.95 6.94,-7.77c2.98,-1.82 6.44,-2.73 10.38,-2.73v0c2.7,0 5.2,0.4933 7.5,1.48c2.3,0.9933 4.21,2.5033 5.73,4.53c1.52,2.0333 2.47,4.62 2.85,7.76v0h-7.17c-0.14,-1 -0.4533,-1.9367 -0.94,-2.81c-0.4933,-0.8667 -1.1233,-1.63 -1.89,-2.29c-0.7733,-0.66 -1.6833,-1.1767 -2.73,-1.55c-1.0533,-0.3667 -2.22,-0.55 -3.5,-0.55v0c-1.88,0 -3.5833,0.36 -5.11,1.08c-1.5333,0.72 -2.84,1.7633 -3.92,3.13c-1.08,1.3733 -1.91,3.0433 -2.49,5.01c-0.58,1.9733 -0.87,4.21 -0.87,6.71v0c0,3.34 0.52,6.2 1.56,8.58c1.04,2.38 2.5367,4.2033 4.49,5.47c1.9467,1.2733 4.3,1.91 7.06,1.91v0c1.14,0 2.2867,-0.1 3.44,-0.3c1.1467,-0.2 2.2267,-0.5 3.24,-0.9c1.0067,-0.4 1.84,-0.9 2.5,-1.5v0v-8.22h-9.03v-6.3h15.75l-0.06,18.18c-2.16,1.66 -4.5633,3.01 -7.21,4.05c-2.6533,1.04 -5.54,1.56 -8.66,1.56z"></path><polygon points="480.9362,556.17 454.0562,556.17 454.0562,512.55 480.6062,512.55 480.6062,519.15 458.1062,519.15 461.0762,515.91 461.0762,532.38 458.1062,530.31 478.9562,530.31 478.9562,536.82 459.3362,536.82 461.0762,534.54 461.0762,552.78 458.1062,549.51 480.9362,549.51"></polygon><polygon points="506.2862,542.19 499.3262,542.19 484.2662,512.55 492.5762,512.55 498.0062,524.31 502.4762,534.3 503.0162,534.3 507.5462,524.34 513.0362,512.55 521.3162,512.55"></polygon><rect x="-556.17" y="499.2062" transform="rotate(-90)" width="17.94" height="7.2"></rect><polygon points="553.1462,556.17 526.2662,556.17 526.2662,512.55 552.8162,512.55 552.8162,519.15 530.3162,519.15 533.2862,515.91 533.2862,532.38 530.3162,530.31 551.1662,530.31 551.1662,536.82 531.5462,536.82 533.2862,534.54 533.2862,552.78 530.3162,549.51 553.1462,549.51"></polygon></g><g><g><g id="triangle 1" fill="none" stroke="none" stroke-width="1" stroke-linecap="butt" stroke-linejoin="round"><polygon points="176.6237,258.0457 322,512.4542 31.2474,512.4542"></polygon></g><g id="triangle 2" fill="#ffe600" stroke="#000000" stroke-width="10" stroke-linecap="butt" stroke-linejoin="round"><polygon points="176.6237,258.0457 322,512.4542 31.2474,512.4542"></polygon></g><g data-paper-data="{&quot;rotation&quot;:-54.11069721179439}" id="raypair 6" fill="#000000" stroke="none" stroke-width="1" stroke-linecap="butt" stroke-linejoin="miter"><polyline points="176.0061,430.5041 117.699,391.5178 121.9601,385.629 177.2235,428.8216"></polyline><polyline points="175.8091,430.3179 145.1234,395.0428 149.1521,391.7676 177.4205,429.0078"></polyline></g><g data-paper-data="{&quot;rotation&quot;:125.88930278820554}" id="raypair 5" fill="#000000" stroke="none" stroke-width="1" stroke-linecap="butt" stroke-linejoin="miter"><polyline points="177.4444,428.9749 235.7494,467.9641 231.4872,473.8543 176.2266,430.6578"></polyline><polyline points="177.6427,429.1592 208.3279,464.435 204.2982,467.7117 176.0299,430.4713"></polyline></g><g data-paper-data="{&quot;rotation&quot;:215.8893027882055}" id="raypair 2" fill="#000000" stroke="none" stroke-width="1" stroke-linecap="butt" stroke-linejoin="miter"><polyline points="179.0091,431.2798 140.0227,489.5869 134.1339,485.3258 177.3265,430.0624"></polyline><polyline points="178.8228,431.4768 143.5477,462.1625 140.2725,458.1338 177.5128,429.8654"></polyline></g><g data-paper-data="{&quot;rotation&quot;:35.88930278820561}" id="raypair 1" fill="#000000" stroke="none" stroke-width="1" stroke-linecap="butt" stroke-linejoin="miter"><polyline points="175.9859,428.7606 214.9723,370.4535 220.8611,374.7146 177.6685,429.978"></polyline><polyline points="176.1722,428.5636 211.4473,397.8779 214.7225,401.9066 177.4822,430.175"></polyline></g><circle cx="176.6237" cy="429.3821" transform="" r="23.364" fill="#000000" stroke="none" stroke-width="1" stroke-linecap="butt" stroke-linejoin="miter"></circle><line x1="176.6237" y1="429.3821" x2="272.6759" y2="429.3821" fill="none" stroke="#000000" stroke-width="14" stroke-linecap="round" stroke-linejoin="miter"></line></g></g><g data-paper-data="{&quot;rotation&quot;:260.88930278820544}" id="raypair 2 1" fill="#000000" stroke="none" stroke-width="1" stroke-linecap="butt" stroke-linejoin="miter"><polyline points="177.1606,432.2967 108.3638,445.9585 107.2128,438.7814 176.8317,430.2461"></polyline><polyline points="176.8896,432.3043 130.2483,429.0591 130.7811,423.8945 177.1027,430.2385"></polyline></g><g data-paper-data="{&quot;rotation&quot;:170.8893027882055}" id="raypair 5 1" fill="#000000" stroke="none" stroke-width="1" stroke-linecap="butt" stroke-linejoin="miter"><polyline points="177.684,429.5605 191.3424,498.3579 184.1635,499.5091 175.6329,429.8894"></polyline><polyline points="177.6939,429.8311 174.4479,476.4725 169.2815,475.9401 175.6257,429.6184"></polyline></g><g data-paper-data="{&quot;rotation&quot;:-9.110697211794395}" id="raypair 6 1" fill="#000000" stroke="none" stroke-width="1" stroke-linecap="butt" stroke-linejoin="miter"><polyline points="175.5857,429.6248 161.9238,360.828 169.101,359.677 177.6363,429.296"></polyline><polyline points="175.578,429.3538 178.8233,382.7125 183.9879,383.2453 177.6439,429.5669"></polyline></g></g></svg>