<?xml version="1.0" encoding="UTF-8" standalone="no"?>
<!-- Created with Inkscape (http://www.inkscape.org/) -->

<svg
   version="1.0"
   width="166.15625"
   height="166.1875"
   id="svg2424"
   sodipodi:docname="archlinux_logo_only_tm.svg"
   inkscape:version="1.4 (e7c3feb1, 2024-10-09)"
   inkscape:export-filename="archlinux_logo_only_tm.png"
   inkscape:export-xdpi="96"
   inkscape:export-ydpi="96"
   xmlns:inkscape="http://www.inkscape.org/namespaces/inkscape"
   xmlns:sodipodi="http://sodipodi.sourceforge.net/DTD/sodipodi-0.dtd"
   xmlns:xlink="http://www.w3.org/1999/xlink"
   xmlns="http://www.w3.org/2000/svg"
   xmlns:svg="http://www.w3.org/2000/svg">
  <sodipodi:namedview
     id="namedview1"
     pagecolor="#505050"
     bordercolor="#eeeeee"
     borderopacity="1"
     inkscape:showpageshadow="0"
     inkscape:pageopacity="0"
     inkscape:pagecheckerboard="0"
     inkscape:deskcolor="#505050"
     inkscape:zoom="2.1173162"
     inkscape:cx="1.4168881"
     inkscape:cy="80.76262"
     inkscape:window-width="1920"
     inkscape:window-height="1027"
     inkscape:window-x="0"
     inkscape:window-y="25"
     inkscape:window-maximized="0"
     inkscape:current-layer="svg2424" />
  <defs
     id="defs2426">
    <linearGradient
       x1="112.49854"
       y1="6.1372099"
       x2="112.49853"
       y2="129.3468"
       id="path1082_2_"
       gradientUnits="userSpaceOnUse"
       gradientTransform="translate(287,-83)">
      <stop
         id="stop193"
         style="stop-color:#ffffff;stop-opacity:0"
         offset="0" />
      <stop
         id="stop195"
         style="stop-color:#ffffff;stop-opacity:0.27450982"
         offset="1" />
      <midPointStop
         offset="0"
         style="stop-color:#FFFFFF"
         id="midPointStop197" />
      <midPointStop
         offset="0.5"
         style="stop-color:#FFFFFF"
         id="midPointStop199" />
      <midPointStop
         offset="1"
         style="stop-color:#000000"
         id="midPointStop201" />
    </linearGradient>
    <linearGradient
       x1="541.33502"
       y1="104.50665"
       x2="606.91248"
       y2="303.14029"
       id="linearGradient2544"
       xlink:href="#path1082_2_"
       gradientUnits="userSpaceOnUse"
       gradientTransform="matrix(-0.3937741,0,0,0.393752,357.51969,122.00151)" />
    <linearGradient
       id="linearGradient3388">
      <stop
         id="stop3390"
         style="stop-color:#000000;stop-opacity:0"
         offset="0" />
      <stop
         id="stop3392"
         style="stop-color:#000000;stop-opacity:0.37113401"
         offset="1" />
    </linearGradient>
    <linearGradient
       x1="490.72305"
       y1="237.72447"
       x2="490.72305"
       y2="183.9644"
       id="linearGradient4416"
       xlink:href="#linearGradient3388"
       gradientUnits="userSpaceOnUse"
       gradientTransform="matrix(0.749107,0,0,0.749107,-35.459862,91.44108)" />
  </defs>
  <g
     transform="translate(-57.527313,-146.42741)"
     id="layer1">
    <g
       transform="matrix(0.8746356,0,0,0.8746356,14.730518,23.408954)"
       id="g2424"
       style="fill:#1a1a1a">
      <path
         id="path2518"
         style="fill:#ffffff;fill-opacity:1;fill-rule:evenodd;stroke:none"
         d="M 105.8125 16.625 C 98.415629 34.760158 93.954196 46.622682 85.71875 64.21875 C 90.76811 69.57107 96.96596 75.804114 107.03125 82.84375 C 96.210076 78.390904 88.828713 73.920352 83.3125 69.28125 C 72.7727 91.274163 56.259864 122.60209 22.75 182.8125 C 49.087628 167.60733 69.504089 158.23318 88.53125 154.65625 C 87.714216 151.1422 87.2497 147.34107 87.28125 143.375 L 87.3125 142.53125 C 87.730417 125.65743 96.508164 112.68146 106.90625 113.5625 C 117.30434 114.44354 125.38666 128.84492 124.96875 145.71875 C 124.89015 148.89387 124.53201 151.9483 123.90625 154.78125 C 138.93036 157.72023 154.88724 164.33452 173.9082 174.48828 L 173.9082 170.34961 L 172.51953 170.34961 L 172.51953 169.58789 L 176.17578 169.58789 L 176.17578 170.34961 L 174.77344 170.34961 L 174.77344 174.56055 L 174.04101 174.56055 C 178.80696 177.10695 183.71345 179.8146 188.90625 182.8125 C 186.3617 178.1278 184.23711 174.17311 181.92187 169.88281 L 181.92187 174.56055 L 181.04101 174.56055 L 181.04101 171.67773 C 181.04101 171.60236 181.04552 171.45692 181.05469 171.24023 C 181.06385 171.01412 181.07287 170.84548 181.08203 170.73242 L 181.02734 170.73242 L 179.64062 174.56055 L 178.91211 174.56055 L 177.5918 170.73242 L 177.53711 170.73242 C 177.54627 170.88316 177.55529 171.05181 177.56445 171.24023 C 177.57361 171.42866 177.57812 171.55089 177.57812 171.60742 L 177.57812 174.56055 L 176.75391 174.56055 L 176.75391 169.58789 L 178.04492 169.58789 L 179.33789 173.41601 L 180.66992 169.58789 L 181.76172 169.58789 C 179.47272 165.34584 176.99205 160.76488 174.84375 156.78125 C 167.96536 151.45004 160.79086 144.51145 146.15625 137 C 156.21524 139.61375 163.41735 142.62932 169.03125 146 C 124.63297 63.33816 121.03766 52.354109 105.8125 16.625 z "
         transform="matrix(1.1433333,0,0,1.1433333,22.920168,121.64318)" />
    </g>
  </g>
</svg>
