<?xml version="1.0" encoding="UTF-8" standalone="no"?>
<!-- Created with Inkscape (http://www.inkscape.org/) -->

<svg
   version="1.0"
   width="400"
   height="400"
   id="svg2424"
   xml:space="preserve"
   xmlns="http://www.w3.org/2000/svg"
   xmlns:svg="http://www.w3.org/2000/svg"><defs
     id="defs2426" /><g
     id="g417"
     style="fill:#ffffff;fill-opacity:1"><g
       id="g416"
       style="fill:#ffffff;fill-opacity:1"><g
         id="g415"
         style="fill:#ffffff;fill-opacity:1"><g
           id="g411"
           transform="matrix(0.46354817,0,0,0.46354817,90.787052,153.10532)"
           style="fill:#ffffff;fill-opacity:1"><g
             transform="matrix(0.32977311,0,0,0.32977311,28.626091,85.671177)"
             id="g403"
             style="fill:#ffffff;fill-opacity:1"><path
               id="path400"
               style="fill:#ffffff;fill-opacity:1;fill-rule:evenodd;stroke:none"
               d="m 340.02734,273.16406 c -19.41602,-0.0321 -33.07194,3.10208 -43.00976,6.56641 a 35.932372,35.932372 0 0 0 -23.50196,27.38281 l -4.78125,25.8125 a 35.932372,35.932372 0 0 0 -0.33593,2.19336 c 0,10e-6 0.63024,0.92023 0.66211,0.9668 -7.76374,11.21126 -13.07727,25.10019 -13.125,39.65429 -0.2894,25.14593 11.42041,48.66062 27.63281,61.39258 16.28656,12.7902 33.69704,16.42079 48.65234,16.57617 a 35.932372,35.932372 0 0 0 1.02735,-0.006 c 5.73809,-0.10448 11.25356,-0.9601 16.38086,-2.21093 a 35.932372,35.932372 0 0 0 16.76953,1.4707 l 22.84375,-3.84375 a 35.932372,35.932372 0 0 0 29.96679,-35.3418 l 0.15625,-62.09375 a 35.932372,35.932372 0 0 0 -0.0117,-1.03515 c 0.10503,3.98903 3.27716,-18.33758 -7.43165,-39.68164 -10.7088,-21.34407 -39.3328,-37.74788 -71.89257,-37.80274 a 35.932372,35.932372 0 0 0 -0.002,0 z m 45.96875,53.88086 c 0.003,0.004 0.037,0.0441 0.0391,0.0469 0.0878,0.12028 0.0876,0.11962 0.11523,0.1582 -0.0332,-0.0461 -0.11325,-0.14874 -0.1543,-0.20508 z m -49.74804,31.83985 c 4.94129,0.0513 5.7397,0.68347 8.35937,2.65429 2.61967,1.97083 7.65436,8.24954 7.69531,16.56446 l -0.004,0.82421 c -0.0121,0.67113 -0.22719,1.2111 -0.29297,1.85157 l -8.54492,-5.94727 c -4.37917,7.95659 -7.32419,11.8403 -9.22266,13.86328 a 35.932372,35.932372 0 0 0 -4.64648,7.32617 c -3.72972,-3.22784 -8.45223,-11.24718 -8.48243,-16.74023 -0.002,-2.60827 0.51045,-5.01095 1.2754,-7.2168 0.86165,-0.19392 1.48641,-0.35756 2.39062,-0.55078 5.45559,-1.16576 12.98172,-1.80983 12.86523,-2.0332 2.68077,0.29557 -1.95727,0.95707 -9.0625,-6.32617 -0.18354,-0.18814 -0.30781,-0.38438 -0.48242,-0.57422 1.02198,-1.08598 1.93725,-1.85483 2.55469,-2.23828 2.45339,-1.52365 1.71215,-1.49741 5.59766,-1.45703 z m -10.46289,6.69531 a 35.932372,35.932372 0 0 0 0.72656,1.67969 c 0.0324,0.052 0.0717,0.11499 -0.0371,-0.0605 -0.0544,-0.0878 -0.0786,-0.10571 -0.51172,-0.84961 -0.036,-0.0618 -0.20649,-0.41038 -0.30664,-0.60352 0.0431,-0.0619 0.0857,-0.10496 0.12891,-0.16601 z" /><path
               id="path401"
               style="fill:#ffffff;fill-opacity:1;fill-rule:evenodd;stroke:none"
               d="m 422.88672,274.74219 a 35.932376,35.932376 0 0 0 -6.25195,0.51758 l -24.21875,4.1621 a 35.932376,35.932376 0 0 0 -29.84375,35.35547 l -0.15625,102.82618 a 35.932376,35.932376 0 0 0 42.72656,35.33398 l 26.61328,-5.12695 a 35.932376,35.932376 0 0 0 29.13281,-35.25196 l 0.0332,-42.48632 a 35.932376,35.932376 0 0 0 23.48829,-17.125 c 6.61744,-11.97242 12.02511,-26.62094 12.51757,-27.75196 a 35.932376,35.932376 0 0 0 -32.85546,-50.27148 c -10.54784,-0.0253 -19.79805,0.69341 -28.09766,2.42383 a 35.932376,35.932376 0 0 0 -13.08789,-2.60547 z" /><path
               id="path402"
               style="fill:#ffffff;fill-opacity:1;fill-rule:evenodd;stroke:none"
               d="m 507.42969,275.07812 c -17.83037,-0.27505 -39.69743,2.51265 -59.58008,17.36133 -19.95049,14.89935 -32.61681,42.19633 -32.93555,71.9668 a 37.207318,37.207318 0 0 0 -0.002,0.61914 c 0.1655,27.87055 12.3108,53.77428 30.92969,69.05469 18.61889,15.28041 40.66053,20.59939 60.91601,20.8125 a 37.207318,37.207318 0 0 0 0.004,0 c 22.58968,0.23467 41.33852,-7.44524 53.32226,-15.85352 5.99188,-4.20413 10.45727,-8.51385 13.53125,-11.88086 0.52756,-0.57784 0.74102,-0.87377 1.18555,-1.38867 -0.88864,0.87831 -2.2556,2.05181 -5.48242,4.18164 a 37.207318,37.207318 0 0 0 3.875,-59.16211 c 0.67502,0.58518 -3.27167,-3.18549 -6.76953,-6.5625 l 10,-11.57812 a 37.207318,37.207318 0 0 0 -12.33985,-57.99219 c 2.61718,1.22914 4.42986,2.16608 5.70313,2.89844 -3.19214,-2.74702 -7.60107,-6.11859 -13.29688,-9.42578 -11.41521,-6.62809 -28.35487,-12.90417 -49.06054,-13.05079 z m 65.57226,25.42774 c 0.0165,0.0181 0.0242,0.0557 0.0449,0.0742 0.76104,0.68055 1.0074,0.93504 1.19727,1.12109 0.37974,0.37212 0.37439,0.37115 0.33203,0.32813 -0.0847,-0.086 -0.46078,-0.46916 -0.91211,-0.91407 -0.15704,-0.1548 -0.48136,-0.43469 -0.66211,-0.60937 z m -68.83203,71.54297 a 37.207318,37.207318 0 0 0 2.59375,1.88867 c -1.24916,-0.81079 -2.59375,-1.88867 -2.59375,-1.88867 z m 73.30469,50.55664 c -0.10032,0.12387 -0.28194,0.36752 -0.97266,1.14258 -0.0465,0.0522 -0.12595,0.16916 -0.16406,0.22265 0.19297,-0.23625 0.58434,-0.67258 0.73242,-0.85742 0.34929,-0.43598 0.60494,-0.75555 0.4043,-0.50781 z" /><path
               id="path403"
               style="fill:#ffffff;fill-opacity:1;fill-rule:evenodd;stroke:none"
               d="m 588.83984,247.2832 a 32.339137,32.339137 0 0 0 -14.42773,0.082 l -25.125,5.90625 a 32.339137,32.339137 0 0 0 -24.93555,31.52344 l 0.1875,133.9375 a 32.339137,32.339137 0 0 0 38.08203,31.77735 l 24.75,-4.46875 a 32.339137,32.339137 0 0 0 14.48243,-6.96485 32.339137,32.339137 0 0 0 30.08593,11.85938 l 24.40625,-4.3125 a 32.339137,32.339137 0 0 0 26.70899,-31.80274 l 0.0937,-77.375 -0.008,0.65821 c 0.3026,-14.01956 -4.92732,-21.09273 -9.56445,-27.13868 -4.63713,-6.04594 -10.04752,-10.78578 -16.38672,-14.95898 -11.36382,-7.48098 -26.00434,-12.87028 -43.03515,-13.97461 l -0.006,-3.24219 a 32.339137,32.339137 0 0 0 -25.3086,-31.50586 z" /></g><g
             transform="matrix(0.4882227,0,0.00690891,0.4882227,50.267296,-128.70827)"
             id="g408"
             style="fill:#ffffff;fill-opacity:1;stroke:none"><path
               id="path404"
               style="fill:#ffffff;fill-opacity:1;fill-rule:evenodd;stroke:none"
               d="m 407.94922,602.80469 a 25.082285,25.082285 0 0 0 -5.66211,0.74218 l -7.68164,1.91602 a 25.082285,25.082285 0 0 0 -19.00781,24.04492 l -1.04297,90.61524 a 25.082285,25.082285 0 0 0 29.27734,25.01562 l 7.79688,-1.32422 a 25.082285,25.082285 0 0 0 20.8789,-24.4707 l 0.92774,-91.20703 a 25.082285,25.082285 0 0 0 -25.48633,-25.33203 z" /><path
               d="m 421.10266,657.01757 6.75064,-2.9867 -0.86808,65.39931 -6.49779,1.33915 z m -1.26059,-23.58316 5.47167,-4.41533 4.42261,4.99952 -5.47558,4.53221 z"
               id="path405"
               style="fill:#ffffff;fill-opacity:1;fill-rule:evenodd;stroke:none" /><path
               id="path406"
               style="fill:#ffffff;fill-opacity:1;fill-rule:evenodd;stroke:none"
               d="m 472.89648,631.94922 c -6.23675,-0.0935 -12.02239,1.004 -17.19921,2.78906 a 21.076055,21.076055 0 0 0 -11.7793,-1.125 l -7.67774,1.5625 a 21.076055,21.076055 0 0 0 -16.86914,20.44531 l -0.63281,65.28516 a 21.076055,21.076055 0 0 0 26.38086,20.59961 l 7.80273,-2.03125 a 21.076055,21.076055 0 0 0 14.76954,-15.88477 21.076055,21.076055 0 0 0 24.77734,18.32032 l 6.73047,-1.45704 a 21.076055,21.076055 0 0 0 16.61328,-20.40625 l 0.4375,-48.07812 -0.0195,0.76367 c 0.42099,-9.2835 -1.29646,-15.26573 -8.0293,-24.23047 -6.71328,-8.9387 -20.08753,-16.42504 -35.30469,-16.55273 z m -43.54101,26.07226 c -0.16898,0.3735 -0.45807,0.94544 -0.5625,1.19141 -0.13884,0.32704 -0.28736,0.66349 -0.0566,0.14063 0.0749,-0.16984 0.1407,-0.47198 0.61914,-1.33204 z" /><path
               id="path407"
               style="fill:#ffffff;fill-opacity:1;fill-rule:evenodd;stroke:none"
               d="m 515.87695,634.25391 a 20.28323,20.28323 0 0 0 -4.48828,0.39257 l -8.15625,1.64258 a 20.28323,20.28323 0 0 0 -16.27734,19.69922 l -0.4375,48.07813 0.0215,-0.73438 c -0.40807,8.9988 1.26992,14.9309 7.86914,23.71875 6.58037,8.76273 19.66525,16.11127 34.67969,16.23633 6.20842,0.0937 11.94855,-1.00495 17.07227,-2.78711 a 20.28323,20.28323 0 0 0 11.74023,1.13672 l 7.67773,-1.5625 a 20.28323,20.28323 0 0 0 16.23438,-19.67578 l 0.63281,-65.28516 a 20.28323,20.28323 0 0 0 -25.28125,-19.85156 l -7.59765,1.93359 a 20.28323,20.28323 0 0 0 -14.17969,14.72656 20.28323,20.28323 0 0 0 -19.50977,-17.66796 z m 56.63672,82.10351 c -0.0716,0.1621 -0.13527,0.44883 -0.58984,1.26758 0.15622,-0.34631 0.431,-0.88768 0.52929,-1.11914 0.13659,-0.32163 0.28162,-0.6492 0.0606,-0.14844 z" /><path
               id="path408"
               style="fill:#ffffff;fill-opacity:1;fill-rule:evenodd;stroke:none"
               d="m 574.88086,636.20703 a 19.256293,19.256293 0 0 0 -9.20703,3.85156 l -5.42774,4.19922 a 19.256293,19.256293 0 0 0 -3.62304,26.78125 l 11.71289,15.61719 -14.12891,19.63477 a 19.256293,19.256293 0 0 0 4.07813,26.65234 l 5.63476,4.22461 a 19.256293,19.256293 0 0 0 27.11524,-4.07227 l 5.23437,-7.1875 5.39258,7.64258 a 19.256293,19.256293 0 0 0 27.6543,4.01367 l 5.32617,-4.20117 a 19.256293,19.256293 0 0 0 3.79492,-26.23633 l -14.40625,-20.36328 10.46289,-14.41015 a 19.256293,19.256293 0 0 0 -3.0625,-25.94336 l -5.5332,-4.73438 a 19.256293,19.256293 0 0 0 -28.18164,3.43359 l -1.82813,2.55665 -3.17578,-4.125 a 19.256293,19.256293 0 0 0 -17.83203,-7.33399 z" /></g><g
             id="g410"
             style="font-style:normal;font-weight:normal;font-size:8.44138px;font-family:'DejaVu Sans Mono';fill:#ffffff;fill-opacity:1;stroke:none"
             transform="matrix(0.51700033,0,0,0.51700033,9.7625656,84.548568)"><path
               d="m 685.46692,263.83624 v -5.32944 h -1.99082 v -0.71307 h 4.7895 v 0.71307 h -1.99906 v 5.32944 h -0.79962"
               id="path409"
               style="fill:#ffffff;fill-opacity:1" /><path
               id="path410"
               style="fill:#ffffff;fill-opacity:1"
               d="m 689.09766,249.25195 a 8.5416914,8.5416914 0 0 0 -8.54102,8.54102 v 6.04297 a 8.5416914,8.5416914 0 0 0 8.54102,8.54101 h 0.77148 a 8.5416914,8.5416914 0 0 0 0.76367,-0.3164 8.5416914,8.5416914 0 0 0 0.98438,0.3164 h 0.7207 a 8.5416914,8.5416914 0 0 0 0.99219,-0.3164 8.5416914,8.5416914 0 0 0 0.76367,0.3164 h 0.77148 a 8.5416914,8.5416914 0 0 0 8.54102,-8.54101 v -6.04297 a 8.5416914,8.5416914 0 0 0 -8.54102,-8.54102 h -1.07617 a 8.5416914,8.5416914 0 0 0 -1.75,0.56055 8.5416914,8.5416914 0 0 0 -1.73828,-0.56055 z" /></g></g><g
           id="g414"
           transform="matrix(1.4334317,0,0,1.4334317,82.271516,-120.25955)"
           style="fill:#ffffff;fill-opacity:1"><path
             id="path411"
             style="fill:#ffffff;fill-opacity:1;fill-rule:evenodd;stroke:none;stroke-width:0.591104"
             d="m 84.125,152.99609 a 4.2708447,4.2708447 0 0 0 -3.921875,2.65625 c -4.391525,10.76687 -6.982464,17.66565 -11.789063,27.93555 a 4.2708447,4.2708447 0 0 0 0.263672,1.64063 4.2708447,4.2708447 0 0 0 -1.669922,1.3164 c -6.161914,12.85779 -15.888088,31.31743 -35.679687,66.87891 a 4.2708447,4.2708447 0 0 0 5.867187,5.77539 c 15.399074,-8.89015 27.076705,-14.18002 37.53711,-16.14649 a 4.2708447,4.2708447 0 0 0 3.371094,-5.16406 c -0.408695,-1.75779 -0.641367,-3.66827 -0.626954,-5.65234 l 0.01367,-0.39649 a 4.2708447,4.2708447 0 0 0 0.002,-0.0449 c 0.105864,-4.27436 1.322986,-7.95949 2.845704,-10.21094 1.522717,-2.25144 2.890779,-2.86659 4.105468,-2.76367 1.215441,0.10299 2.893642,1.15727 4.375,3.79492 1.481359,2.63766 2.500427,6.57587 2.394532,10.85157 -0.04016,1.62245 -0.224568,3.16144 -0.529297,4.54101 a 4.2708447,4.2708447 0 0 0 3.349609,5.11328 c 10.352737,2.02518 21.914157,7.30678 37.107417,16.07813 a 4.2708447,4.2708447 0 0 0 5.88672,-5.73828 c -3.02304,-5.56565 -5.72367,-10.58734 -8.30664,-15.37696 a 4.2708447,4.2708447 0 0 0 -1.14257,-1.34765 c -0.5805,-0.44992 -1.454,-1.13909 -2.0918,-1.65821 a 4.2708447,4.2708447 0 0 0 -0.19727,-3.35937 C 99.074219,182.91129 97.114274,176.77873 88.085937,155.5918 A 4.2708447,4.2708447 0 0 0 84.125,152.99609 Z" /><g
             id="g413"
             style="font-style:normal;font-weight:normal;font-size:8.2513px;font-family:'DejaVu Sans Mono';fill:#ffffff;fill-opacity:1;stroke:none"
             transform="matrix(0.51700033,0,0,0.51700033,9.7625656,84.548568)"><path
               id="path412"
               style="fill:#ffffff;fill-opacity:1"
               d="m 237.89453,304.77734 a 3.0157833,3.0157833 0 0 0 -3.01562,3.01563 v 0.69726 a 3.0157833,3.0157833 0 0 0 1.94531,1.94532 v 3.26367 a 3.0157833,3.0157833 0 0 0 3.01562,3.01562 h 0.78321 a 3.0157833,3.0157833 0 0 0 3.01562,-3.01562 v -3.25586 a 3.0157833,3.0157833 0 0 0 1.95313,-1.95313 v -0.69726 a 3.0157833,3.0157833 0 0 0 -3.01563,-3.01563 z" /><path
               id="path413"
               style="fill:#ffffff;fill-opacity:1"
               d="m 243.39062,305.16602 a 2.626314,2.626314 0 0 0 -2.62695,2.62695 v 5.90625 a 2.626314,2.626314 0 0 0 2.62695,2.62695 h 0.75196 a 2.626314,2.626314 0 0 0 0.71289,-0.71289 2.626314,2.626314 0 0 0 0.99609,0.71289 h 0.70508 a 2.626314,2.626314 0 0 0 1.00195,-0.71484 2.626314,2.626314 0 0 0 0.71485,0.71484 h 0.7539 a 2.626314,2.626314 0 0 0 2.62696,-2.62695 v -5.90625 a 2.626314,2.626314 0 0 0 -2.62696,-2.62695 h -1.05273 a 2.626314,2.626314 0 0 0 -1.71094,1.22265 2.626314,2.626314 0 0 0 -1.69726,-1.22265 z" /></g></g></g><rect
         style="opacity:1;fill:#ffffff;fill-opacity:1;fill-rule:evenodd;stroke:none"
         id="rect441"
         width="10.129035"
         height="9.8993511"
         x="149.15636"
         y="244.77351" /></g></g><g
     id="layer2"
     style="display:inline"><g
       id="g371"><g
         id="g306"><g
           id="g304"
           transform="matrix(0.46354817,0,0,0.46354817,90.787052,153.10532)"><g
             transform="matrix(0.32977311,0,0,0.32977311,28.626091,85.671177)"
             id="g2809"
             style="fill:#4d4d4d;fill-opacity:1"><path
               d="m 339.96875,309.09375 c -14.47141,-0.0239 -26.4812,2.94367 -31.125,4.5625 l -4.78125,25.8125 c -0.0116,0.0951 23.79543,-6.34855 34.28125,-5.96875 17.36158,0.62381 18.95948,6.63541 18.65625,14.75 0.29595,0.47462 -4.47933,-7.33192 -19.5,-7.59375 -18.94961,-0.32687 -45.69284,6.70947 -45.65625,35.3125 -0.51086,32.17412 24.03361,41.63882 40.75,41.8125 15.02821,-0.27364 22.0777,-5.69136 25.9375,-8.59375 5.07124,-5.30236 10.87308,-10.63447 16.40625,-17.03125 -5.23567,9.51278 -9.77472,16.0898 -14.5,21.125 v 4.25 l 22.84375,-3.84375 0.15625,-62.09375 c -0.23141,-8.78839 5.04123,-42.41827 -43.46875,-42.5 z m -3.28125,54.0625 c 9.46889,0.12995 20.32788,4.79708 20.34375,16.03125 0.049,10.21821 -12.80005,15.71183 -21.15625,15.625 -8.35976,-0.0868 -19.45093,-6.56982 -19.5,-16.53125 0.16016,-8.90444 10.45953,-15.35418 20.3125,-15.125 z"
               id="path2284"
               style="fill:#4d4d4d;fill-opacity:1;fill-rule:evenodd;stroke:none" /><path
               d="m 398.50106,314.83145 -0.15505,102.82693 26.61213,-5.12724 0.0449,-58.30157 c 0.006,-8.68089 12.40554,-18.82451 27.9627,-18.66287 3.30202,-5.97408 9.5087,-21.24219 11.02088,-24.71514 -34.75649,-0.0833 -35.19897,9.98993 -41.24398,14.94517 -0.0631,-9.45285 -0.0213,-15.12741 -0.0213,-15.12741 l -24.2202,4.16213 z"
               id="path2286"
               style="fill:#4d4d4d;fill-opacity:1;fill-rule:evenodd;stroke:none" /><path
               d="m 548.2688,328.33058 c -0.25696,-0.12068 -13.87938,-15.93419 -41.26638,-16.0589 -25.65249,-0.42638 -54.42578,9.51895 -54.88631,52.5328 0.22457,37.81852 27.6402,52.59809 55.0314,52.88627 29.31292,0.30451 40.97654,-18.32947 41.67615,-18.79124 -3.49762,-3.0321 -16.59792,-16.0131 -16.59792,-16.0131 0,0 -8.18236,11.65102 -24.05802,11.79913 -15.87942,0.1512 -29.68245,-12.27325 -29.87805,-29.60905 -0.20349,-17.33595 12.68881,-26.72821 29.99725,-27.48687 14.98466,-0.003 23.6297,9.67334 23.6297,9.67334 z"
               id="path2288"
               style="fill:#4d4d4d;fill-opacity:1;fill-rule:evenodd;stroke:none" /><path
               d="m 581.8125,278.84375 -25.125,5.90625 0.1875,133.9375 24.75,-4.46875 0.28125,-63.03125 c 0.0529,-6.60927 9.56127,-16.75916 25.4375,-16.4375 15.17973,0.15775 18.57236,10.11767 18.53125,11.375 l 0.4375,72.96875 24.40625,-4.3125 0.0937,-77.375 c 0.1607,-7.44539 -16.30833,-23.16954 -42.78125,-23.28125 -12.58087,0.0202 -19.54815,2.86825 -23.09375,4.96875 -6.06656,4.68565 -12.9998,9.17543 -19.8125,14.90625 6.29809,-8.09099 11.58551,-13.68516 16.75,-17.84375 l -0.0625,-37.3125 z"
               id="path2290"
               style="fill:#4d4d4d;fill-opacity:1;fill-rule:evenodd;stroke:none" /></g><g
             transform="matrix(0.4882227,0,0.00690891,0.4882227,50.267296,-128.70827)"
             id="g5326"
             style="fill:#1793d1;fill-opacity:1;stroke:none"><path
               d="m 400.67581,629.79609 7.68167,-1.91575 -0.92851,91.20792 -7.79574,1.32426 z"
               id="path2292"
               style="fill:#1793d1;fill-opacity:1;fill-rule:evenodd;stroke:none" /><path
               d="m 421.10266,657.01757 6.75064,-2.9867 -0.86808,65.39931 -6.49779,1.33915 z m -1.26059,-23.58316 5.47167,-4.41533 4.42261,4.99952 -5.47558,4.53221 z"
               id="path2294"
               style="fill:#1793d1;fill-opacity:1;fill-rule:evenodd;stroke:none" /><path
               d="m 440.44273,655.82614 7.67755,-1.56201 -0.1573,13.6722 c -0.007,0.58717 4.4194,-15.27364 24.68502,-14.92094 19.67986,0.10952 22.68401,15.34634 22.5291,18.76237 l -0.43759,48.0783 -6.73044,1.45631 0.63316,-47.489 c 0.0974,-1.38684 -2.88144,-13.11441 -16.78906,-13.15754 -13.90509,-0.0404 -23.68364,10.10048 -23.75821,16.57937 l -0.48127,41.83477 -7.80388,2.0313 z"
               id="path2296"
               style="fill:#1793d1;fill-opacity:1;fill-rule:evenodd;stroke:none" /><path
               d="m 561.53301,720.20203 -7.6776,1.56186 0.15737,-13.67198 c 0.007,-0.58742 -4.42201,15.27361 -24.68504,14.92086 -19.67983,-0.10944 -22.68399,-15.34626 -22.52908,-18.76229 l 0.43757,-48.07861 8.15674,-1.64226 -0.54644,47.48988 c -0.0149,1.29682 1.36845,13.29979 15.27604,13.3426 13.90511,0.0405 23.76622,-8.37359 24.01453,-21.04416 l 0.43105,-37.46902 7.5978,-1.93195 z"
               id="path2298"
               style="fill:#1793d1;fill-opacity:1;fill-rule:evenodd;stroke:none" /><path
               d="m 577.45461,655.28678 -5.42715,4.20017 20.19894,26.93328 -22.39092,31.11622 5.63499,4.226 21.04365,-28.8967 20.8779,29.58159 5.32727,-4.20103 -22.37578,-31.62866 18.56963,-25.5775 -5.53193,-4.73429 -16.92109,23.66778 z"
               id="path2300"
               style="fill:#1793d1;fill-opacity:1;fill-rule:evenodd;stroke:none" /></g><g
             id="text2634"
             style="font-style:normal;font-weight:normal;font-size:8.44138px;font-family:'DejaVu Sans Mono';fill:#1793d1;fill-opacity:1;stroke:none"
             transform="matrix(0.51700033,0,0,0.51700033,9.7625656,84.548568)"><path
               d="m 685.46692,263.83624 v -5.32944 h -1.99082 v -0.71307 h 4.7895 v 0.71307 h -1.99906 v 5.32944 h -0.79962"
               id="path7858"
               style="fill:#1793d1;fill-opacity:1" /><path
               d="m 689.0982,263.83624 v -6.04251 h 1.20355 l 1.43026,4.2784 c 0.13189,0.39843 0.22806,0.69658 0.28852,0.89442 0.0687,-0.21983 0.17586,-0.5427 0.3215,-0.96862 l 1.44674,-4.2042 h 1.07578 v 6.04251 h -0.77077 v -5.05741 l -1.75587,5.05741 h -0.72131 l -1.74763,-5.14396 v 5.14396 h -0.77077"
               id="path7860"
               style="fill:#1793d1;fill-opacity:1" /></g></g><g
           id="g305"
           transform="matrix(1.4334317,0,0,1.4334317,82.271516,-120.25955)"><path
             d="m 84.158459,157.26523 c -4.372317,10.71976 -7.009487,17.73174 -11.87749,28.13284 2.984696,3.16378 6.648268,6.84815 12.597898,11.00931 -6.396435,-2.6321 -10.759587,-5.27466 -14.020241,-8.01685 -6.230114,13.00009 -15.990913,31.51815 -35.798717,67.10874 15.568269,-8.98783 27.636514,-14.52892 38.88354,-16.64326 -0.482952,-2.07717 -0.757529,-4.32403 -0.73888,-6.66839 l 0.01847,-0.49874 c 0.247032,-9.97418 5.435591,-17.64432 11.581938,-17.12354 6.146349,0.52079 10.923838,9.0335 10.67681,19.00768 -0.04646,1.87683 -0.258158,3.68231 -0.628047,5.35688 11.12492,2.17623 23.06412,7.70314 38.42174,16.56937 -3.02822,-5.57517 -5.73117,-10.60078 -8.31239,-15.38716 -4.06585,-3.1513 -8.30672,-7.25273 -16.95729,-11.69277 5.9459,1.54499 10.2031,3.32751 13.5215,5.31993 C 95.283308,184.87755 93.158107,178.38484 84.158459,157.26523 Z"
             id="path2518"
             style="fill:#1793d1;fill-opacity:1;fill-rule:evenodd;stroke:none;stroke-width:0.591104" /><g
             id="text2638"
             style="font-style:normal;font-weight:normal;font-size:8.2513px;font-family:'DejaVu Sans Mono';fill:#1793d1;fill-opacity:1;stroke:none"
             transform="matrix(0.51700033,0,0,0.51700033,9.7625656,84.548568)"><path
               d="m 239.84053,313.69965 v -5.20945 h -1.94598 v -0.697 h 4.68164 v 0.697 h -1.95404 v 5.20945 h -0.78162"
               id="path7853"
               style="fill:#1793d1;fill-opacity:1" /><path
               d="m 243.39004,313.69965 v -5.90645 h 1.17646 l 1.39805,4.18205 c 0.12892,0.38947 0.22293,0.6809 0.28202,0.87429 0.0671,-0.21488 0.1719,-0.53048 0.31426,-0.94681 l 1.41417,-4.10953 h 1.05155 v 5.90645 h -0.75341 v -4.94353 l -1.71634,4.94353 h -0.70506 l -1.70828,-5.02814 v 5.02814 h -0.75342"
               id="path7855"
               style="fill:#1793d1;fill-opacity:1" /></g></g></g></g></g></svg>
