<?xml version="1.0" encoding="UTF-8" standalone="no"?>
<!-- Generator: Adobe Illustrator 10.0, SVG Export Plug-In . SVG Version: 3.0.0 Build 77)  -->

<svg
   i:viewOrigin="251 467"
   i:rulerOrigin="0 0"
   i:pageBounds="0 792 612 0"
   width="108.758"
   height="144.133"
   viewBox="0 0 108.758 144.133"
   overflow="visible"
   enable-background="new 0 0 108.758 144.133"
   xml:space="preserve"
   version="1.1"
   id="svg19"
   xmlns="http://www.w3.org/2000/svg"
   xmlns:svg="http://www.w3.org/2000/svg"
   xmlns:i="http://ns.adobe.com/AdobeIllustrator/10.0/"
   xmlns:ns="http://ns.adobe.com/Variables/1.0/"
   xmlns:ns0="http://ns.adobe.com/SaveForWeb/1.0/"><defs
   id="defs19" />
	<metadata
   id="metadata1">
		<ns:variableSets>
			<ns:variableSet
   varSetName="binding1"
   locked="none">
				<ns:variables />
				<ns:sampleDataSets />
			</ns:variableSet>
		</ns:variableSets>
		<ns0:sfw>
			<ns0:slices />
			<ns0:sliceSourceBounds
   y="322.867"
   x="251"
   width="108.758"
   height="144.133"
   bottomLeftOrigin="true" />
		</ns0:sfw>
	</metadata>
	
<g
   id="g46"
   style="display:inline"><g
     id="g19"
     style="fill:#ffffff"
     transform="matrix(0.74651127,0,0,0.74651127,12.882677,28.686251)"><path
       id="path1"
       style="fill:#ffffff"
       d="m 64.664062,47.453125 c -1.213,0.297 -2.449312,0.304406 -3.695312,0.191406 -1.494,0.02 0.281422,0.769313 2.232422,1.070313 0.541,-0.422 1.02689,-0.847719 1.46289,-1.261719 z" /><path
       i:knockout="Off"
       fill="#a80030"
       d="m 68.986,45.646 c 0.893,-1.229 1.541,-2.573 1.77,-3.963 -0.201,0.99 -0.736,1.845 -1.244,2.749 -2.793,1.759 -0.264,-1.044 -0.002,-2.111 -3.002,3.783 -0.414,2.268 -0.524,3.325"
       id="path2"
       style="fill:#ffffff" /><path
       i:knockout="Off"
       fill="#a80030"
       d="m 71.949,37.942 c 0.182,-2.691 -0.529,-1.839 -0.768,-0.814 0.278,0.146 0.499,1.898 0.768,0.814"
       id="path3"
       style="fill:#ffffff" /><path
       i:knockout="Off"
       fill="#a80030"
       d="m 55.301,1.163 c 0.798,0.142 1.724,0.252 1.591,0.443 0.876,-0.193 1.073,-0.367 -1.591,-0.443"
       id="path4"
       style="fill:#ffffff" /><path
       i:knockout="Off"
       fill="#a80030"
       d="M 56.893,1.606 56.332,1.723 56.855,1.675 56.893,1.606"
       id="path5"
       style="fill:#ffffff" /><path
       id="path6"
       style="fill:#ffffff"
       d="m 52.675781,-5.5605469 c -1.492938,0.09072 -2.290946,0.3171589 -3.089844,0.4941407 a 6.2132048,6.2132048 0 0 0 -3.517578,0.2773437 c -3.007856,1.3427791 -9.526691,3.4038177 -14.771484,7.875 a 6.2132048,6.2132048 0 0 0 -1.5625,0.484375 c 0.05048,-0.060589 -1.968218,1.7879644 -3.867188,3.5761719 -1.559225,1.46828 -3.501731,2.6516291 -4.648437,5.7929686 a 6.2132048,6.2132048 0 0 0 -0.347656,0.25586 c -1.210327,2.053011 -1.751904,3.687696 -2.242188,4.841796 -0.811003,0.689587 -1.5439,1.311788 -1.65039,1.402344 v -0.06055 c -0.01719,0.03485 -0.02394,0.06092 -0.04102,0.0957 -0.0044,0.0037 -0.0957,0.08203 -0.0957,0.08203 -2e-6,3e-6 -0.03914,0.217123 -0.04687,0.259765 -2.360993,4.891655 -3.625059,9.097882 -4.546875,12.103516 a 6.2132048,6.2132048 0 0 0 0.775391,5.27539 c -0.579047,-0.866057 -0.668304,-1.170421 -0.740235,-1.423828 0.01326,0.38917 0.01536,1.005293 -0.0059,1.835938 -0.04299,1.682754 -0.112397,3.955682 -0.01172,6.271484 -1.269808,23.772863 15.46579,45.648649 35.796875,51.269531 4.263942,1.455827 8.087346,1.157019 10.998047,1.238282 a 6.2132048,6.2132048 0 0 0 1.882812,-12.183594 c -2.174912,-0.622406 -3.740767,-0.850742 -4.675781,-1 -0.801744,-0.127984 -1.373456,-0.27649 -2.410156,-0.617188 -0.345033,-0.176784 -0.513108,-0.266633 -0.839844,-0.595703 -0.406349,-0.409251 -1.206494,-1.392772 -2.570312,-2.576172 a 6.2132048,6.2132048 0 0 0 -2.367188,-0.597656 6.2132048,6.2132048 0 0 0 -4.779297,-3.15625 c 0.809154,0.06187 0.919147,0.141893 1.177735,0.21875 A 6.2132048,6.2132048 0 0 0 42.609375,74.779297 C 41.787348,73.648006 41.778774,73.39132 41.794922,74.298828 a 6.2132048,6.2132048 0 0 0 -0.214844,-0.125 6.2132048,6.2132048 0 0 0 -2.910156,-4.648437 C 38.296392,69.020417 37.902969,68.4932 37.613281,68.068359 37.37134,67.713541 37.245215,67.395614 37.228516,67.373047 a 6.2132048,6.2132048 0 0 0 -0.232422,-0.638672 6.2132048,6.2132048 0 0 0 -0.804688,-2.875 6.2132048,6.2132048 0 0 0 -0.251953,-2.558594 c -0.957136,-2.374372 -1.70278,-3.984217 -3.222656,-5.58789 -0.477419,-0.503742 -1.212742,-0.806721 -1.890625,-1.166016 a 6.2132048,6.2132048 0 0 0 -0.722656,-2.15625 l 0.07031,-0.701172 A 6.2132048,6.2132048 0 0 0 28.689453,47 c 1.482766,1.713196 0.179488,-0.295415 0.330078,-3.054688 0.145641,-2.668597 0.609445,-5.849837 0.824219,-8.677734 -0.125233,1.058356 1.219297,-1.63285 2.900391,-5.847656 a 6.2132048,6.2132048 0 0 0 0.138671,-0.875 c 0.801139,-1.01679 1.561478,-2.079926 2.96875,-3.419922 1.017915,-0.969252 2.061971,-1.806949 2.695313,-2.207031 0.633342,-0.400082 0.89278,0.07687 -0.976563,-0.154297 a 6.2132048,6.2132048 0 0 0 5.621094,-2.296875 c 0.235413,-0.295675 0.426789,-0.537757 0.63086,-0.820313 0.05907,-0.08179 0.202999,-0.404573 0.267578,-0.478515 0.335034,0.0088 0.669799,0.0837 2.373047,-0.386719 a 6.2132048,6.2132048 0 0 0 1.517578,-0.646484 c 0.416795,-0.247387 0.709648,-0.408698 1.261718,-0.832032 0.243393,-0.186636 0.625656,-0.474086 1.242188,-1.277343 0.137461,-0.0841 0.471413,-0.265575 0.542969,-0.308594 0.163683,-0.0984 0.706698,-0.120468 0.802734,-0.171875 a 6.2132048,6.2132048 0 0 0 1.820313,0.04297 c 0.11731,-0.05744 2.438849,-0.611415 4.914062,-0.470703 2.468261,0.140315 5.215337,0.779627 6.876953,1.542968 1.741109,0.817854 4.454404,3.037106 6.419922,5.742188 0.723497,0.995726 1.218509,2.054371 1.71875,3.099609 -3.079686,-3.760971 -8.163379,-7.163003 -14.921875,-6.837891 -6.210825,0.138252 -11.343816,3.041393 -14.308594,7.910157 -2.182424,1.900194 -2.972708,4.077439 -3.476562,5.453125 -0.235954,0.644231 -0.357888,1.013066 -0.460938,1.30664 0.162008,-0.26418 0.449836,-0.637637 1.269532,-1.257812 a 6.2132048,6.2132048 0 0 0 -2.408204,4.117187 c -0.759242,5.575775 -0.0325,10.559176 2.06836,14.626953 a 6.2132048,6.2132048 0 0 0 -0.222656,3.457032 c 2.737403,4.901479 7.227424,8.098078 12.029296,10.203125 4.801873,2.105047 10.09916,3.419542 15.566407,1.132812 a 6.2132048,6.2132048 0 0 0 2.349609,-2.162109 c 3.481139,-0.960624 6.832322,-2.608177 9.865234,-5.033203 0.975137,-0.76442 1.600447,-1.416262 2.222657,-2.033203 a 6.2132048,6.2132048 0 0 0 2.77539,-1.494141 c 0.391235,-0.632013 0.730779,-1.318359 1.021485,-2.091797 a 6.2132048,6.2132048 0 0 0 2.455078,-5.412109 6.2132048,6.2132048 0 0 0 0.0293,-0.02539 c 0.252511,1.806478 -0.121143,1.364313 0.634765,-0.154297 0.069,-0.13861 0.16098,-0.413009 0.238282,-0.570312 a 6.2132048,6.2132048 0 0 0 1.285156,-1.066407 c 0.747236,-1.959811 1.021598,-4.073634 0.972656,-5.375 -0.03989,-1.060743 -0.05766,-1.077307 -0.04687,-1.308593 l 0.712891,-0.177735 c -0.01476,-0.05737 0.20734,0.83039 1.095703,-3.162109 a 6.2132048,6.2132048 0 0 0 0.06445,-0.800781 6.2132048,6.2132048 0 0 0 1.847656,-5.335938 c -0.372998,-2.113968 -1.014498,-4.047674 -1.65625,-5.96875 -0.01119,-0.100942 0.0254,-0.358628 0.01367,-0.443359 a 6.2132048,6.2132048 0 0 0 0.476563,-2.132813 C 92.538472,11.549619 85.514421,4.4313198 78.232422,0.5390625 A 6.2132048,6.2132048 0 0 0 77.576172,0.53320312 6.2132048,6.2132048 0 0 0 76.166016,-0.703125 C 74.462221,-1.397209 72.248352,-1.5468974 70.708984,-1.3339844 67.613637,-2.7515228 65.627696,-3.2609186 62.755859,-4.296875 A 6.2132048,6.2132048 0 0 0 60.509766,-3.875 c -1.433607,-0.1703135 -2.685591,-0.2011856 -3.539063,-0.080078 A 6.2132048,6.2132048 0 0 0 52.675781,-5.5605469 Z M 53.4375,4.5039062 53.535156,4.7207031 C 53.426572,4.8065365 53.265397,4.9887022 53.212891,5.046875 A 6.2132048,6.2132048 0 0 0 53.4375,4.5039062 Z m 5.365234,2.1132813 c -0.534849,0.568831 -0.950498,0.8404456 -1.179687,0.9765625 -0.118599,0.070436 -0.04866,0.017614 -0.13086,0.0625 a 6.2132048,6.2132048 0 0 0 1.310547,-1.0390625 z m -35.55664,9.4003905 c 0.145145,0.01001 0.236661,0.07924 0.375,0.09961 -0.309314,-0.0064 -0.463473,-0.0081 -0.925782,-0.01758 0.192925,-0.0095 0.35372,-0.09563 0.550782,-0.08203 z m -3.248047,0.855469 c -0.471679,0.401057 -0.670061,0.568778 -1.324219,1.125 l 0.04102,-0.07813 c -0.04078,0.06956 0.0646,-0.222929 0.730468,-0.75586 0.119082,-0.09531 0.383277,-0.189346 0.552735,-0.291015 z m 6.599609,0.519531 c 0.0055,0.0047 0.01998,0.01094 0.02539,0.01563 0.06698,0.05797 0.09065,0.08384 0.140625,0.130859 -0.02649,-0.02645 -0.108975,-0.09542 -0.166016,-0.146484 z m -9.53125,7.650391 c 0.0073,0.01259 0.04072,0.07606 0.04297,0.08008 0.01198,0.02138 -0.02059,-0.03415 -0.04297,-0.07617 z m 57.0625,1.451172 c 0.590081,1.449712 0.950351,2.845554 0.990235,4.011718 a 6.2132048,6.2132048 0 0 0 0.298828,0.814453 c -0.08454,3.456495 0.105875,6.040325 -0.304688,7.28125 a 6.2132048,6.2132048 0 0 0 0.232422,1.240235 c -0.022,0.218658 -0.250718,0.870832 -0.367187,1.15039 a 6.2132048,6.2132048 0 0 0 -1.457032,1.4375 c -0.405578,0.788134 -0.762666,1.548165 -0.996093,2.652344 -0.0016,0.0074 0.0015,0.01409 0,0.02148 -0.419284,0.373569 -0.799783,0.717439 -1.207032,1.066406 A 6.2132048,6.2132048 0 0 0 69.5,46.679687 c -1.661073,1.139967 -2.647095,2.214246 -2.615234,2.1875 0.03186,-0.02674 0.54759,-0.186793 -0.658204,0.142579 l 0.201172,0.0957 a 6.2132048,6.2132048 0 0 0 -1.30664,0.05273 C 61.656937,50.788394 54.142006,46.458385 54.228516,40.427734 A 6.2132048,6.2132048 0 0 0 53.84375,39.710937 c 0.148631,-2.607034 1.669773,-5.153356 3.775391,-6.101562 a 6.2132048,6.2132048 0 0 0 0.205078,-0.0957 C 60.35219,32.262943 63.40862,32.947757 64.875,34.316406 a 6.2132048,6.2132048 0 0 0 9.253906,-7.822265 z m 16.767578,9.576171 c -0.352464,0.29931 -0.60371,0.674681 -1.037109,0.875 -1.853896,0.85688 -2.751714,0.659201 -1.53125,0.478516 0.578871,-0.0857 1.602775,-0.652101 2.568359,-1.353516 z m -48.228515,1.603516 0.466797,0.123047 a 6.2132048,6.2132048 0 0 0 -1.279297,1.734375 c 0.0203,-0.155018 0.329279,-0.985661 0.8125,-1.857422 z m 29.804687,9.199219 c 0.01593,2.53e-4 0.05349,0.0058 0.07031,0.0059 0.02826,0.520613 -0.03646,1.214692 0.01367,1.429688 0.113147,0.48521 -0.153216,-0.527496 -0.08789,-1.416016 9.78e-4,-0.0133 0.0029,-0.0064 0.0039,-0.01953 z m 2.310547,3.257812 c -0.0054,0.361811 -0.04974,0.679101 -0.01367,1.054688 -0.02035,-0.252189 -0.109404,-0.489939 -0.08594,-0.722656 0.02399,-0.237885 0.06433,-0.14579 0.09961,-0.332032 z m 0.0918,1.9375 c 0.09835,0.565198 0.206574,1.191158 0.279297,1.351563 0.127852,0.282004 -0.09279,-0.45056 -0.279297,-1.351563 z m 2.5625,4.226563 c -0.282012,0.397246 -0.515744,0.431305 -0.568359,0.488281 -0.09743,0.105504 0.01534,-0.0076 0.246093,-0.238281 0.07791,-0.07787 0.204078,-0.163405 0.322266,-0.25 z m -35.767578,18.191406 0.11914,0.05469 c -0.0025,0.194758 0.01005,0.0596 -0.0059,0.33789 a 6.2132048,6.2132048 0 0 0 -0.113281,-0.392578 z m -12.464844,0.552734 a 6.2132048,6.2132048 0 0 0 4.484375,0.06836 c -0.146323,0.06446 -0.289873,0.185986 -0.435547,0.228515 -1.926119,0.562332 -2.845361,0.147273 -3.341797,-0.0078 -0.496435,-0.155085 -0.650013,-0.257943 -0.707031,-0.289063 z m 15.349609,0.59961 c -0.04457,-0.06204 0.04144,0.111487 0.123047,0.277344 0.01805,0.007 0.09656,0.01471 0.111328,0.02148 -0.08904,-0.105819 -0.188003,-0.234276 -0.234375,-0.298828 z" /><path
       i:knockout="Off"
       fill="#a80030"
       d="m 44.658,49.695 -0.211,1.047 c 0.983,1.335 1.763,2.781 3.016,3.821 -0.902,-1.759 -1.571,-2.486 -2.805,-4.868"
       id="path7"
       style="fill:#ffffff" /><path
       i:knockout="Off"
       fill="#a80030"
       d="m 46.979,49.605 c -0.52,-0.576 -0.826,-1.268 -1.172,-1.956 0.33,1.211 1.006,2.252 1.633,3.312 l -0.461,-1.356"
       id="path8"
       style="fill:#ffffff" /><path
       i:knockout="Off"
       fill="#a80030"
       d="m 88.063,40.675 -0.219,0.552 c -0.402,2.858 -1.273,5.686 -2.605,8.309 1.472,-2.767 2.421,-5.794 2.824,-8.861"
       id="path9"
       style="fill:#ffffff" /><path
       i:knockout="Off"
       fill="#a80030"
       d="M 55.598,0.446 C 56.607,0.077 58.08,0.243 59.154,0 57.756,0.117 56.365,0.187 54.992,0.362 l 0.606,0.084"
       id="path10"
       style="fill:#ffffff" /><path
       i:knockout="Off"
       fill="#a80030"
       d="m 20.127,19.308 c 0.233,2.154 -1.62,2.991 0.41,1.569 1.09,-2.454 -0.424,-0.677 -0.41,-1.569"
       id="path11"
       style="fill:#ffffff" /><path
       i:knockout="Off"
       fill="#a80030"
       d="m 17.739,29.282 c 0.469,-1.437 0.553,-2.299 0.732,-3.132 -1.293,1.654 -0.596,2.007 -0.732,3.132"
       id="path12"
       style="fill:#ffffff" /></g><g
     id="g20"
     style="fill:#ffffff"
     transform="matrix(0.74651127,0,0,0.74651127,12.882677,14.686251)"><path
       id="path13"
       style="fill:#ffffff"
       d="m 19.015625,104.57031 a 4.6949322,4.6949322 0 0 0 -2.488281,0.42578 c -1.43081,0.67721 -1.884006,0.90066 -4.658203,1.14454 a 4.6949322,4.6949322 0 0 0 -3.0703129,7.64453 c -0.020253,0.001 -0.038371,0.008 -0.058594,0.01 -0.00976,0.0117 -0.024194,-0.0959 -0.015625,-0.0352 4.475e-4,0.003 -4.46e-4,0.0338 0,0.0371 -5.0732364,0.32637 -9.20938012,3.12774 -11.1230469,6.58398 -2.0321441,3.67022 -2.296875,7.51392 -2.296875,10.59375 0,7.36555 2.0931981,12.23992 5.20507812,14.96484 3.11187998,2.72492 6.95080788,2.79688 7.46093748,2.79688 1.3502598,0 2.6344449,-0.37855 3.8554689,-0.91797 a 4.6949322,4.6949322 0 0 0 2,0.72461 c 1.039148,-0.0554 1.711051,-0.13086 2.947265,-0.13086 0.510798,0 0.772666,0.0176 0.710938,0.01 a 4.6949322,4.6949322 0 0 0 0.587891,0.0371 c -0.0069,0 0.193171,0.011 0.632812,0.0606 a 4.6949322,4.6949322 0 0 0 4.724609,-6.76367 c 0.09918,0.19836 -0.800781,-2.95881 -0.800781,-9.94922 0,-3.5216 1.26e-4,-8.23702 0.07422,-12.48633 0.07409,-4.2493 0.299125,-8.32518 0.462891,-9.30859 a 4.6949322,4.6949322 0 0 0 -4.150391,-5.44141 z" /><path
       id="path14"
       style="fill:#ffffff"
       d="m 29.716797,113.47852 c -6.515585,0 -11.107156,4.48662 -12.75586,8.52929 -1.648703,4.04267 -1.539062,7.90132 -1.539062,9.01172 0,5.42656 1.228459,10.06463 4.277344,13.36914 3.048884,3.30451 7.481748,4.58789 11.871093,4.58789 3.622111,0 6.098377,-0.67134 6.824219,-0.875 a 4.8448004,4.8448004 0 0 0 3.533203,-4.79687 c -0.03212,-1.16471 0.08742,-1.62446 0.376953,-3.10938 a 4.8448004,4.8448004 0 0 0 -1.847656,-4.7207 4.8448004,4.8448004 0 0 0 1.935547,-3.50781 l 0.08984,-2.73243 a 4.8448004,4.8448004 0 0 0 0.002,-0.16015 c 0,-3.02842 -0.143874,-6.44247 -2.005859,-9.77344 -1.861986,-3.33097 -6.077739,-5.82226 -10.761719,-5.82226 z" /><path
       id="path15"
       style="fill:#ffffff"
       d="m 45.554687,105.13672 a 4.1564916,4.1564916 0 0 0 -2.828125,0.23828 c -2.578994,1.19143 -3.588294,1.26263 -5.501953,1.44141 a 4.1564916,4.1564916 0 0 0 -1.1875,7.98437 c -0.478097,-0.19579 -1.07878,-0.87912 -1.15039,-1.0332 -0.07161,-0.15408 0.08524,0.22957 0.173828,1.05469 0.177171,1.65023 0.201172,4.91493 0.201172,9.89648 v 11.39844 c 0,3.42948 -0.154816,5.0354 -0.291016,5.39843 a 4.1564916,4.1564916 0 0 0 2.378906,5.33008 c 2.49657,0.97498 5.365793,1.44336 8.601563,1.44336 0.903508,0 3.346453,0.033 6.041015,-1 2.689488,-1.03109 5.693245,-3.31363 7.550782,-7.10547 1.83261,-3.67523 2.240234,-7.68107 2.240234,-10.8789 0,-1.97746 0.121036,-5.91452 -2.089844,-9.73047 a 4.1564916,4.1564916 0 0 0 -0.02539,-0.043 c -1.980657,-3.32555 -5.565478,-5.31836 -9.175782,-5.31836 -0.702663,0 -1.367385,0.1123 -2.019531,0.24609 0.05965,-1.94147 0.02338,-3.65551 0.136719,-4.94726 a 4.1564916,4.1564916 0 0 0 -3.054688,-4.375 z m 2.927735,25.32812 c 0.009,0.22934 0.07617,0.3788 0.07617,0.60157 0,0.46107 -0.143077,0.74796 -0.173828,1.21289 0.01459,-0.73441 0.05685,-1.25885 0.09766,-1.81446 z" /><path
       id="path16"
       style="fill:#ffffff"
       d="m 66.615234,112.94336 a 5.1776684,5.1776684 0 0 0 -2.761718,0.4707 c -1.427625,0.6765 -1.266598,0.64985 -4.91211,1.00586 a 5.1776684,5.1776684 0 0 0 -2.501953,9.36719 c 0.352814,0.2517 -0.234751,-0.14874 -0.595703,-0.73438 -0.360952,-0.58563 -0.302693,-0.82159 -0.234375,-0.30273 a 5.1776684,5.1776684 0 0 0 0.0059,0.041 c 0.0013,0.009 0.181901,3.8488 0.1875,7.3496 0.0056,3.50081 -0.05611,7.29951 -0.140625,9.17383 -0.06355,1.36918 -0.150826,1.99792 -0.167968,2.0918 -0.01495,0.0236 0.0066,-0.0273 -0.0293,0.041 a 5.1776684,5.1776684 0 0 0 5.248047,7.54296 c 0.943194,-0.12233 1.640582,-0.18945 2.90039,-0.18945 1.104095,0 1.240404,0.0369 2.154297,0.17383 a 5.1776684,5.1776684 0 0 0 5.328125,-7.57031 c -0.187753,-0.3494 -0.152183,0.12584 -0.246094,-2.26953 -0.09391,-2.39538 -0.06505,-6.85303 -0.01953,-14.85157 a 5.1776684,5.1776684 0 0 0 0,-0.0293 c 0,-3.04854 0.0048,-3.42308 0.333984,-5.24024 a 5.1776684,5.1776684 0 0 0 -4.548828,-6.07031 z" /><path
       id="path17"
       style="fill:#ffffff"
       d="m 78.035156,113.38867 c -5.592543,0 -9.562428,1.94969 -10.902344,2.64258 a 4.9784698,4.9784698 0 0 0 -2.082031,6.80859 c 0.535679,0.98096 0.606479,0.96407 0.931641,2.52344 a 4.9784698,4.9784698 0 0 0 1.353515,1.52539 c -2.365639,2.39465 -3.685546,5.87825 -3.685546,9.55274 0,3.92078 1.36793,9.19897 6.292968,11.57421 a 4.9784698,4.9784698 0 0 0 0.15625,0.0723 c 2.280214,1.00424 4.325365,0.93164 4.695313,0.93164 1.682705,0 3.277673,-0.38062 4.671875,-0.98828 a 4.9784698,4.9784698 0 0 0 2.326172,0.79492 c 1.010998,-0.057 1.607003,-0.13086 2.779297,-0.13086 0.400442,0 1.033998,0.07 2.019531,0.12891 a 4.9784698,4.9784698 0 0 0 4.474609,-7.67578 c -0.449587,-0.69378 -0.07831,0.37859 -0.136719,-0.70508 -0.07887,-1.56004 -0.08395,-3.20385 -0.08398,-5.59961 v -0.0195 c 0,-0.003 0,-0.003 0,-0.006 l 0.04687,-9.42773 a 4.9784698,4.9784698 0 0 0 0,-0.0254 c 0,-2.19854 -0.216794,-5.30592 -2.501953,-8.02343 -2.285159,-2.71752 -6.050417,-3.95313 -10.355469,-3.95313 z" /><path
       id="path18"
       style="fill:#ffffff"
       d="m 102.17773,113.13086 c -1.27347,0 -2.463089,0.24785 -3.591793,0.58789 a 5.189159,5.189159 0 0 0 -5.138671,-0.28125 c -1.118902,0.57874 -0.734792,0.65511 -3.990235,0.81641 a 5.189159,5.189159 0 0 0 -3.240234,9.01562 c 0.265577,0.24205 -0.16554,-0.16204 -0.367188,-0.53711 -0.201647,-0.37507 -0.146151,-0.47476 -0.08008,0.0449 a 5.189159,5.189159 0 0 0 0.0098,0.0742 c 0.05283,0.37282 0.216446,4.67271 0.210937,8.43164 -0.0055,3.75893 -0.07903,7.58625 -0.11914,8.67383 a 5.189159,5.189159 0 0 0 0,0.008 c -0.04193,1.18227 -0.11601,1.71159 -0.123047,1.74805 -0.007,0.0365 0.131621,-0.34684 -0.04883,0.0664 a 5.189159,5.189159 0 0 0 5.527343,7.20703 c 0.683409,-0.1027 1.033394,-0.125 2.007813,-0.125 1.162073,0 1.857433,0.0676 2.548828,0.14844 a 5.189159,5.189159 0 0 0 3.972656,-1.37696 5.189159,5.189159 0 0 0 3.687501,1.34961 c 0.88164,-0.1381 0.97342,-0.16992 1.79297,-0.16992 1.64208,0 1.74735,0.093 3.05664,0.21094 a 5.189159,5.189159 0 0 0 5.13867,-7.42188 c 0.0793,0.16453 -0.12395,-0.8166 -0.17969,-2.43554 v -13.84961 a 5.189159,5.189159 0 0 0 -0.002,-0.0879 c -0.0232,-1.37299 0.16566,-3.9376 -1.38867,-6.87696 -1.55434,-2.93936 -5.52805,-5.2207 -9.6836,-5.2207 z" /><path
       id="path19"
       style="fill:#ffffff"
       d="m 63.087891,103.49805 a 4.1992677,4.1992677 0 0 0 -2.96875,1.23047 l -3.835938,3.83593 a 4.1992677,4.1992677 0 0 0 0,5.9375 l 3.835938,3.83594 a 4.1992677,4.1992677 0 0 0 5.9375,0.002 l 3.83789,-3.83593 a 4.1992677,4.1992677 0 0 0 0,-5.94141 l -3.83789,-3.83594 a 4.1992677,4.1992677 0 0 0 -2.96875,-1.22851 z" /></g><rect
     style="fill:#ffffff;fill-rule:evenodd"
     id="rect39"
     width="14.142626"
     height="18.658758"
     x="44.567097"
     y="96.264931" /><rect
     style="fill:#ffffff;fill-rule:evenodd"
     id="rect40"
     width="7.6061177"
     height="5.585743"
     x="31.850618"
     y="81.884613" /><rect
     style="fill:#ffffff;fill-rule:evenodd"
     id="rect41"
     width="2.3769119"
     height="3.8030589"
     x="43.97287"
     y="56.213966" /><rect
     style="fill:#ffffff;fill-rule:evenodd"
     id="rect42"
     width="4.8726692"
     height="7.7249637"
     x="66.315842"
     y="64.17662" /><rect
     style="fill:#ffffff;fill-rule:evenodd"
     id="rect43"
     width="2.3769119"
     height="1.5449927"
     x="66.078148"
     y="63.463547" /><rect
     style="fill:#ffffff;fill-rule:evenodd"
     id="rect44"
     width="4.6349783"
     height="6.4176621"
     x="76.774254"
     y="52.648598" /><rect
     style="fill:#ffffff;fill-rule:evenodd"
     id="rect45"
     width="6.2988162"
     height="6.2988162"
     x="48.489002"
     y="30.662163" /><rect
     style="fill:#ffffff;fill-rule:evenodd"
     id="rect46"
     width="3.6842134"
     height="3.4465222"
     x="29.11717"
     y="39.694427" /></g><g
   id="g47"><g
     id="g31"
     transform="matrix(0.74651127,0,0,0.74651127,12.882677,28.686251)"
     style="display:inline"><path
       i:knockout="Off"
       fill="#a80030"
       d="m 60.969,47.645 c -1.494,0.02 0.281,0.768 2.232,1.069 0.541,-0.422 1.027,-0.846 1.463,-1.26 -1.213,0.297 -2.449,0.304 -3.695,0.191"
       id="path20" /><path
       i:knockout="Off"
       fill="#a80030"
       d="m 68.986,45.646 c 0.893,-1.229 1.541,-2.573 1.77,-3.963 -0.201,0.99 -0.736,1.845 -1.244,2.749 -2.793,1.759 -0.264,-1.044 -0.002,-2.111 -3.002,3.783 -0.414,2.268 -0.524,3.325"
       id="path21" /><path
       i:knockout="Off"
       fill="#a80030"
       d="m 71.949,37.942 c 0.182,-2.691 -0.529,-1.839 -0.768,-0.814 0.278,0.146 0.499,1.898 0.768,0.814"
       id="path22" /><path
       i:knockout="Off"
       fill="#a80030"
       d="m 55.301,1.163 c 0.798,0.142 1.724,0.252 1.591,0.443 0.876,-0.193 1.073,-0.367 -1.591,-0.443"
       id="path23" /><path
       i:knockout="Off"
       fill="#a80030"
       d="M 56.893,1.606 56.332,1.723 56.855,1.675 56.893,1.606"
       id="path24" /><path
       i:knockout="Off"
       fill="#a80030"
       d="m 81.762,38.962 c 0.09,2.416 -0.705,3.59 -1.424,5.666 l -1.293,0.643 c -1.057,2.054 0.105,1.304 -0.652,2.937 -1.652,1.467 -5.006,4.589 -6.08,4.875 -0.785,-0.017 0.531,-0.926 0.703,-1.281 -2.209,1.516 -1.773,2.276 -5.152,3.199 L 67.766,54.78 c -8.33,3.92 -19.902,-3.847 -19.75,-14.443 -0.088,0.672 -0.253,0.504 -0.437,0.774 -0.43,-5.451 2.518,-10.926 7.49,-13.165 4.863,-2.406 10.564,-1.42 14.045,1.829 -1.912,-2.506 -5.721,-5.163 -10.232,-4.917 -4.421,0.072 -8.558,2.881 -9.938,5.932 -2.264,1.425 -2.528,5.496 -3.514,6.242 -1.329,9.76 2.497,13.975 8.97,18.936 1.016,0.686 0.286,0.791 0.422,1.313 -2.15,-1.006 -4.118,-2.526 -5.738,-4.387 0.86,1.257 1.787,2.479 2.986,3.439 -2.029,-0.685 -4.738,-4.913 -5.527,-5.085 3.495,6.258 14.178,10.975 19.775,8.634 -2.59,0.096 -5.879,0.053 -8.787,-1.022 -1.225,-0.629 -2.884,-1.93 -2.587,-2.173 7.636,2.851 15.522,2.158 22.128,-3.137 1.682,-1.31 3.518,-3.537 4.049,-3.567 -0.799,1.202 0.137,0.578 -0.477,1.639 1.672,-2.701 -0.729,-1.1 1.73,-4.664 l 0.908,1.25 c -0.34,-2.244 2.785,-4.966 2.467,-8.512 0.717,-1.084 0.799,1.168 0.039,3.662 1.055,-2.767 0.279,-3.212 0.549,-5.496 0.291,0.768 0.678,1.583 0.875,2.394 -0.688,-2.675 0.703,-4.503 1.049,-6.058 -0.342,-0.15 -1.061,1.182 -1.227,-1.976 0.025,-1.372 0.383,-0.719 0.52,-1.057 -0.268,-0.155 -0.975,-1.207 -1.404,-3.224 0.309,-0.475 0.832,1.229 1.256,1.298 -0.273,-1.603 -0.742,-2.826 -0.762,-4.057 -1.24,-2.59 -0.439,0.346 -1.443,-1.112 -1.32,-4.114 1.094,-0.955 1.258,-2.823 1.998,2.895 3.137,7.385 3.662,9.244 -0.4,-2.267 -1.045,-4.464 -1.834,-6.589 0.609,0.257 -0.979,-4.663 0.791,-1.405 C 87.189,15.552 81,9.062 75.305,6.018 76,6.655 76.879,7.455 76.565,7.581 73.731,5.896 74.229,5.763 73.823,5.051 71.518,4.112 71.364,5.128 69.839,5.053 65.489,2.745 64.651,2.99 60.648,1.546 L 60.83,2.398 C 57.949,1.438 57.473,2.76 54.36,2.4 54.171,2.253 55.358,1.864 56.336,1.723 53.55,2.091 53.68,1.173 50.954,1.824 51.625,1.353 52.337,1.04 53.053,0.64 50.782,0.778 47.629,1.962 48.602,0.884 44.897,2.538 38.316,4.859 34.623,8.322 L 34.507,7.546 c -1.692,2.031 -7.379,6.066 -7.832,8.699 l -0.453,0.105 c -0.879,1.491 -1.45,3.18 -2.148,4.713 -1.151,1.963 -1.688,0.756 -1.524,1.064 -2.265,4.592 -3.392,8.45 -4.363,11.616 0.692,1.035 0.017,6.232 0.278,10.391 -1.136,20.544 14.418,40.489 31.42,45.093 2.492,0.893 6.197,0.861 9.349,0.949 -3.718,-1.064 -4.198,-0.563 -7.822,-1.826 -2.613,-1.232 -3.185,-2.637 -5.037,-4.244 l 0.733,1.295 c -3.63,-1.285 -2.111,-1.59 -5.065,-2.525 l 0.783,-1.021 c -1.177,-0.09 -3.117,-1.982 -3.647,-3.033 l -1.288,0.051 c -1.546,-1.906 -2.371,-3.283 -2.31,-4.35 l -0.416,0.742 c -0.471,-0.809 -5.691,-7.158 -2.983,-5.68 -0.503,-0.458 -1.172,-0.747 -1.897,-2.066 l 0.551,-0.629 c -1.301,-1.677 -2.398,-3.826 -2.314,-4.542 0.695,0.938 1.177,1.114 1.655,1.275 -3.291,-8.164 -3.476,-0.449 -5.967,-8.31 l 0.526,-0.042 c -0.403,-0.611 -0.65,-1.27 -0.974,-1.919 l 0.23,-2.285 c -2.368,-2.736 -0.662,-11.645 -0.319,-16.53 0.235,-1.986 1.977,-4.101 3.3,-7.418 l -0.806,-0.138 c 1.542,-2.688 8.802,-10.799 12.166,-10.383 1.629,-2.046 -0.324,-0.008 -0.643,-0.522 3.579,-3.703 4.704,-2.616 7.119,-3.283 2.603,-1.545 -2.235,0.604 -1.001,-0.589 4.503,-1.149 3.19,-2.614 9.063,-3.197 0.62,0.352 -1.437,0.544 -1.953,1.001 3.75,-1.836 11.869,-1.417 17.145,1.018 6.117,2.861 12.994,11.314 13.266,19.267 l 0.309,0.083 c -0.156,3.162 0.484,6.819 -0.627,10.177 l 0.751,-1.591"
       id="path25" /><path
       i:knockout="Off"
       fill="#a80030"
       d="m 44.658,49.695 -0.211,1.047 c 0.983,1.335 1.763,2.781 3.016,3.821 -0.902,-1.759 -1.571,-2.486 -2.805,-4.868"
       id="path26" /><path
       i:knockout="Off"
       fill="#a80030"
       d="m 46.979,49.605 c -0.52,-0.576 -0.826,-1.268 -1.172,-1.956 0.33,1.211 1.006,2.252 1.633,3.312 l -0.461,-1.356"
       id="path27" /><path
       i:knockout="Off"
       fill="#a80030"
       d="m 88.063,40.675 -0.219,0.552 c -0.402,2.858 -1.273,5.686 -2.605,8.309 1.472,-2.767 2.421,-5.794 2.824,-8.861"
       id="path28" /><path
       i:knockout="Off"
       fill="#a80030"
       d="M 55.598,0.446 C 56.607,0.077 58.08,0.243 59.154,0 57.756,0.117 56.365,0.187 54.992,0.362 l 0.606,0.084"
       id="path29" /><path
       i:knockout="Off"
       fill="#a80030"
       d="m 20.127,19.308 c 0.233,2.154 -1.62,2.991 0.41,1.569 1.09,-2.454 -0.424,-0.677 -0.41,-1.569"
       id="path30" /><path
       i:knockout="Off"
       fill="#a80030"
       d="m 17.739,29.282 c 0.469,-1.437 0.553,-2.299 0.732,-3.132 -1.293,1.654 -0.596,2.007 -0.732,3.132"
       id="path31" /></g><g
     id="g38"
     transform="matrix(0.74651127,0,0,0.74651127,12.882677,14.686251)"
     style="display:inline"><path
       i:knockout="Off"
       d="m 13.437,125.506 c -0.045,0.047 -0.045,7.506 -0.138,9.453 -0.092,1.574 -0.232,4.957 -3.568,4.957 -3.429,0 -4.263,-3.939 -4.541,-5.652 -0.324,-1.9 -0.324,-3.477 -0.324,-4.17 0,-2.225 0.139,-8.436 5.375,-8.436 1.576,0 2.456,0.465 3.151,0.834 z M 0,130.975 c 0,13.066 6.951,13.066 7.97,13.066 2.873,0 4.727,-1.576 5.514,-4.309 l 0.093,4.123 c 0.881,-0.047 1.761,-0.139 3.197,-0.139 0.51,0 0.926,0 1.298,0.047 0.371,0 0.741,0.045 1.158,0.092 -0.741,-1.482 -1.297,-4.818 -1.297,-12.049 0,-7.043 0,-18.951 0.602,-22.566 -1.667,0.789 -3.105,1.299 -6.256,1.576 1.251,1.344 1.251,2.039 1.251,8.154 -0.879,-0.277 -1.992,-0.602 -3.892,-0.602 C 1.344,118.369 0,125.598 0,130.975"
       id="path32" /><path
       i:knockout="Off"
       d="m 25.13,128.609 c 0.047,-3.846 0.835,-7.275 4.124,-7.275 3.615,0 3.891,3.984 3.799,7.275 z m 12.51,0.465 c 0,-5.422 -1.065,-10.752 -7.923,-10.752 -9.452,0 -9.452,10.475 -9.452,12.697 0,9.406 4.216,13.113 11.306,13.113 3.149,0 4.68,-0.461 5.514,-0.695 -0.046,-1.668 0.185,-2.734 0.465,-4.17 -0.975,0.604 -2.226,1.391 -5.006,1.391 -7.229,0 -7.322,-6.582 -7.322,-8.852 H 37.55 l 0.09,-2.732"
       id="path33" /><path
       i:knockout="Off"
       d="m 52.715,131.066 c 0,4.309 -0.787,10.102 -6.162,10.102 -0.742,0 -1.668,-0.141 -2.27,-0.279 -0.093,-1.668 -0.093,-4.541 -0.093,-7.877 0,-3.986 0.416,-6.068 0.742,-7.09 0.972,-3.289 3.15,-3.334 3.566,-3.334 3.522,0 4.217,4.865 4.217,8.478 z m -13.298,5.051 c 0,3.43 0,5.375 -0.556,6.857 1.9,0.742 4.262,1.158 7.09,1.158 1.807,0 7.043,0 9.869,-5.791 1.344,-2.688 1.807,-6.303 1.807,-9.037 0,-1.668 -0.186,-5.328 -1.529,-7.646 -1.296,-2.176 -3.382,-3.289 -5.605,-3.289 -4.449,0 -5.746,3.707 -6.44,5.607 0,-2.363 0.045,-10.611 0.415,-14.828 -3.011,1.391 -4.866,1.621 -6.857,1.807 1.807,0.74 1.807,3.801 1.807,13.764 v 11.398"
       id="path34" /><path
       i:knockout="Off"
       d="m 66.535,143.855 c -0.928,-0.139 -1.578,-0.232 -2.922,-0.232 -1.48,0 -2.502,0.094 -3.566,0.232 0.463,-0.881 0.648,-1.299 0.787,-4.309 0.186,-4.125 0.232,-15.154 -0.092,-17.471 -0.232,-1.762 -0.648,-2.039 -1.297,-2.502 3.799,-0.371 4.865,-0.648 6.625,-1.482 -0.369,2.037 -0.418,3.059 -0.418,6.162 -0.091,15.989 -0.138,17.702 0.883,19.602"
       id="path35" /><path
       i:knockout="Off"
       d="m 81.373,130.74 c -0.092,2.92 -0.139,4.959 -0.928,6.58 -0.973,2.086 -2.594,2.688 -3.799,2.688 -2.783,0 -3.383,-2.316 -3.383,-4.586 0,-4.355 3.893,-4.682 5.652,-4.682 z m -12.744,5.701 c 0,2.92 0.881,5.838 3.477,7.09 1.158,0.51 2.316,0.51 2.688,0.51 4.264,0 5.699,-3.152 6.58,-5.098 -0.047,2.039 0,3.289 0.139,4.912 0.834,-0.047 1.668,-0.139 3.059,-0.139 0.787,0 1.529,0.092 2.316,0.139 -0.51,-0.787 -0.787,-1.252 -0.928,-3.059 -0.092,-1.76 -0.092,-3.521 -0.092,-5.977 l 0.047,-9.453 c 0,-3.523 -0.928,-6.998 -7.879,-6.998 -4.586,0 -7.273,1.391 -8.617,2.086 0.557,1.02 1.02,1.898 1.436,3.893 1.809,-1.576 4.172,-2.41 6.58,-2.41 3.848,0 3.848,2.549 3.848,6.162 -0.881,-0.045 -1.623,-0.137 -2.875,-0.137 -5.887,10e-4 -9.779,2.268 -9.779,8.479"
       id="path36" /><path
       i:knockout="Off"
       d="m 108.063,139.268 c 0.047,1.576 0.047,3.244 0.695,4.588 -1.021,-0.092 -1.623,-0.232 -3.521,-0.232 -1.113,0 -1.715,0.094 -2.596,0.232 0.184,-0.602 0.279,-0.834 0.371,-1.623 0.139,-1.064 0.232,-4.633 0.232,-5.885 v -5.004 c 0,-2.178 0,-5.33 -0.141,-6.441 -0.092,-0.787 -0.322,-2.918 -3.012,-2.918 -2.641,0 -3.521,1.945 -3.846,3.521 -0.369,1.621 -0.369,3.383 -0.369,10.24 0.045,5.932 0.045,6.486 0.508,8.109 -0.787,-0.092 -1.76,-0.184 -3.15,-0.184 -1.113,0 -1.854,0.045 -2.779,0.184 0.324,-0.742 0.51,-1.113 0.602,-3.707 0.094,-2.549 0.279,-15.061 -0.141,-18.025 -0.23,-1.809 -0.695,-2.225 -1.203,-2.688 3.754,-0.186 4.957,-0.789 6.117,-1.389 v 4.91 c 0.555,-1.438 1.713,-4.635 6.348,-4.635 5.793,0 5.838,4.217 5.885,6.996 v 13.951"
       id="path37" /><path
       i:knockout="Off"
       fill="#a80030"
       d="m 66.926,111.533 -3.838,3.836 -3.836,-3.836 3.836,-3.836 3.838,3.836"
       id="path38" /></g></g></svg>
