<svg xmlns="http://www.w3.org/2000/svg" xmlns:svg="http://www.w3.org/2000/svg" style="fill-rule:evenodd;clip-rule:evenodd;stroke-linejoin:round;stroke-miterlimit:1.41421" id="svg24" width="100%" height="100%" version="1.1" viewBox="0 0 400 400" xml:space="preserve"><defs id="defs24"><linearGradient id="_Linear1" x1="0" x2="1" y1="0" y2="0" gradientTransform="matrix(244.692,1281.55,-1281.55,244.692,-44.6924,-886.62)" gradientUnits="userSpaceOnUse"><stop style="stop-color:#fff;stop-opacity:1" id="stop1" offset="0%"/><stop style="stop-color:#fff;stop-opacity:1" id="stop2" offset="34%"/><stop style="stop-color:#bebdf3;stop-opacity:1" id="stop3" offset="51%"/><stop style="stop-color:#867fb7;stop-opacity:1" id="stop4" offset="75%"/><stop style="stop-color:#9f99c7;stop-opacity:1" id="stop5" offset="87%"/><stop style="stop-color:#524c76;stop-opacity:1" id="stop6" offset="100%"/></linearGradient><linearGradient id="_Linear2" x1="0" x2="1" y1="0" y2="0" gradientTransform="matrix(-73.9103,-331.394,331.394,-73.9103,256.323,293.128)" gradientUnits="userSpaceOnUse"><stop style="stop-color:#fff;stop-opacity:1" id="stop7" offset="0%"/><stop style="stop-color:#fff;stop-opacity:1" id="stop8" offset="34%"/><stop style="stop-color:#bebbdb;stop-opacity:1" id="stop9" offset="51%"/><stop style="stop-color:#928bbe;stop-opacity:1" id="stop10" offset="75%"/><stop style="stop-color:#9f99c7;stop-opacity:1" id="stop11" offset="87%"/><stop style="stop-color:#524c76;stop-opacity:1" id="stop12" offset="100%"/></linearGradient><radialGradient id="_Radial3" cx="0" cy="0" r="1" gradientTransform="matrix(65.7758,0,0,50.4149,169.619,91.661)" gradientUnits="userSpaceOnUse"><stop style="stop-color:#fff;stop-opacity:1" id="stop13" offset="0%"/><stop style="stop-color:#fff;stop-opacity:1" id="stop14" offset="34%"/><stop style="stop-color:#bebbdb;stop-opacity:1" id="stop15" offset="51%"/><stop style="stop-color:#928bbe;stop-opacity:1" id="stop16" offset="75%"/><stop style="stop-color:#9f99c7;stop-opacity:1" id="stop17" offset="87%"/><stop style="stop-color:#524c76;stop-opacity:1" id="stop18" offset="100%"/></radialGradient><radialGradient id="_Radial4" cx="0" cy="0" r="1" gradientTransform="matrix(-9.01713,572.145,-487.965,-7.68295,19.9686,107.795)" gradientUnits="userSpaceOnUse"><stop style="stop-color:#fff;stop-opacity:1" id="stop19" offset="0%"/><stop style="stop-color:#fff;stop-opacity:1" id="stop20" offset="34%"/><stop style="stop-color:#bebbdb;stop-opacity:1" id="stop21" offset="51%"/><stop style="stop-color:#928bbe;stop-opacity:1" id="stop22" offset="75%"/><stop style="stop-color:#9f99c7;stop-opacity:1" id="stop23" offset="87%"/><stop style="stop-color:#524c76;stop-opacity:1" id="stop24" offset="100%"/></radialGradient></defs><g id="g33"><g id="g28"><g id="g27"><path id="path24" d="m 163.87109,-8.0644531 c -6.82727,0.1740538 -13.58912,0.8499751 -20.17578,2.0546875 C 105.32039,1.0078681 73.020198,20.938605 49.591797,44.521484 26.163396,68.104364 11.087056,95.023691 8.4980469,119.79102 5.8760995,144.86847 19.064466,163.0272 26.257812,171.01953 c 14.470218,16.07731 36.194336,27.26978 54.28711,36.29492 -18.498613,16.06892 -31.610015,27.97724 -42.371094,39.27735 -21.066155,22.12132 -37.46099329,45.43813 -37.52343738,69.32226 -0.011496,3.96127 -1.68682162,23.85006 7.49218748,41.61133 1.7836265,3.45229 11.9098889,25.3192 37.4042969,39.70508 17.655663,9.96225 40.245687,12.88329 62.554685,9.69922 66.8702,-9.54338 148.77069,-62.6979 208.41602,-111.99219 38.1102,-31.4969 65.34988,-60.05777 75.69922,-79.38672 v -0.002 c 9.26173,-17.29824 9.22309,-39.02671 4.46484,-56.27149 C 389.62168,133.6891 364.49988,105.82863 332.33398,76.951172 300.16809,48.073709 260.82583,20.218616 224.12109,3.7167969 c -18.67837,-8.3970618 -39.77007,-12.3033628 -60.25,-11.78125 z" style="fill:#fff"/></g></g><g id="Ebene-1" style="clip-rule:evenodd;fill-rule:evenodd;stroke-linejoin:round;stroke-miterlimit:1.41421"><g id="g5680"><path id="path2973" d="M 13.83,315.949 C 13.873,299.502 27.854,276.541 47.719,255.681 60.995,241.74 74.478,229.503 103.869,204.443 83.539,193.287 51.919,179.828 36.054,162.201 30.184,155.679 19.543,140.903 21.607,121.162 25.813,80.926 75.476,19.864 146.067,6.955 c 23.488,-4.296 50.455,-1.195 72.65,8.783 69.629,31.304 154.782,109.073 165.259,147.046 3.688,13.366 2.979,34.671 -3.379,46.545 -7.879,14.716 -35.156,44.606 -72.475,75.449 C 249.566,333.172 167.51,385.137 106.241,393.881 86.443,396.707 66.217,393.76 52.023,385.751 29.814,373.219 22.442,356.489 19.851,351.474 12.96,338.14 13.815,321.246 13.83,315.949 Z m 164.8,-184.776 c 0.756,-9.325 37.321,-0.042 35.011,7.343 -2.437,7.791 -35.879,3.354 -35.011,-7.343 z" style="fill:url(#_Linear1)"/><g id="mid"><path id="path2975" d="m 123.659,189.035 c -19.242,16.246 -32.036,27.2 -48.075,41.86 -38.626,35.304 -64.871,62.176 -51.34,98.909 15.609,42.374 49.824,40.226 89.947,32.35 C 217.612,341.756 387.617,211.059 378.952,162.784 371.94,123.723 276.96,46.063 220.725,18.428 203.156,9.794 182.909,5.329 162.601,6.285 85.274,9.935 24.886,80.337 27.971,118.482 c 3.001,37.11 96.795,69.446 95.688,70.553 z M 112.052,59.482 c -23.268,25.888 -8.392,75.974 30.195,103.274 45.152,31.945 118.269,37.729 132.819,13.093 27.14,-45.952 -2.493,-94.54 -46.727,-116.214 C 184.628,38.217 126.556,43.345 112.052,59.482 Z" style="fill:url(#_Linear2)"/><path id="path4976" d="m 191.403,161.67 c 32.666,4.541 60.822,-8.541 65.225,-40.798 3.354,-24.571 -34.25,-51.417 -56.859,-57.608 -18.88,-5.171 -59.869,1.478 -62.633,37.186 -2.872,37.121 35.22,58.573 54.267,61.22 z M 175.407,99.931 c -21.468,33.258 31.169,43.483 39.228,37.418 34.744,-26.149 -29.77,-52.07 -39.228,-37.418 z" style="fill:url(#_Radial3)"/></g><path id="path2977" d="m 156.368,15.122 c -37.974,4.001 -45.246,8.889 -79.647,34.916 -11.53,8.723 -32.75,29.948 -38.187,55.128 -2.071,9.59 0.377,17.87 7.283,23.676 22.116,18.593 59.131,33.677 89.498,48.259 8.894,4.271 3.005,12.015 -11.338,24.432 -36.194,31.334 -85.128,69.476 -88.544,98.54 -1.61,13.695 3.079,32.305 19.702,41.828 19.419,11.125 59.729,3.864 86.646,-6.159 39.334,-14.647 91.003,-46.973 132.023,-78.748 42.655,-33.043 82.316,-75.011 84.277,-81.856 2.409,-8.406 2.169,-16.169 -2.48,-25.096 C 348.3,136.025 338.539,125.61 328.059,113.951 299.937,84.304 270.183,58.254 234.584,38.291 208.877,23.875 186.259,11.972 156.368,15.122 Z m 55.781,66.466 c 27.434,13.263 55.606,48.102 -0.245,68.154 -15.187,5.453 -63.352,-13.391 -61.878,-39.107 2.15,-37.987 28.625,-45.242 62.123,-29.047 z" style="fill:url(#_Radial4)"/></g></g></g></svg>