<svg xmlns="http://www.w3.org/2000/svg" xmlns:svg="http://www.w3.org/2000/svg" id="svg13" width="200" height="200" version="1.1" viewBox="0 0 200 200" xml:space="preserve"><title id="title1">openSUSE logo</title><defs id="defs1"><clipPath id="vlpa"><path id="path1" d="M 0,200.3 H 320 V 0 H 0 Z"/></clipPath></defs><g id="g43" style="display:inline;fill:#fff" transform="matrix(1.0176424,0,0,1.0176424,-179.80374,-146.50088)"><g id="g12" clip-path="url(#vlpa)" transform="matrix(0.78187089,0,0,-0.78187089,148.2534,318.53493)" style="fill:#fff"><g id="g40" style="fill:#fff"><g id="g2" transform="matrix(0.71103353,0,0,0.71103353,234.83596,137.84923)" style="fill:#fff"><path id="path2" style="fill:#fff" d="m -196.25195,-126.33398 c -3.17045,-0.14542 -6.39574,-0.0675 -9.66016,0.2246 -19.29918,1.7218 -36.99704,11.65497 -47.9668,27.412114 a 15.334137,15.334137 0 0 0 -0.002,0.002 c -4.64485,6.675766 -8.09751,14.06032 -10.03906,21.83789 -4.57377,18.119802 -0.52615,33.805315 3.18945,43.035156 a 15.334137,15.334137 0 0 0 0.006,0.01563 c 9.40825,23.291585 27.31829,42.8488272 51.62305,58.007813 a 15.334137,15.334137 0 0 0 0.004,0.002 l 1.39454,0.869141 a 15.334137,15.334137 0 0 0 0.0801,0.05078 c 50.52504,31.062668 92.12754,28.069234 115.769534,27.238281 l -0.0078,0.002 c 19.93718,-0.691783 38.775243,-4.884633 51.9375,-8.419922 a 15.334137,15.334137 0 0 0 7.601562,5.38086 l 0.330079,0.08984 a 15.334137,15.334137 0 0 0 6.216796,0.38086 C -24.385285,49.594288 -13.430787,47.974418 -0.05664062,45 13.317505,42.025582 28.427927,38.339731 40.552734,31.277344 a 15.334137,15.334137 0 0 0 0.02734,-0.01367 c 4.34117,-2.540239 7.099647,-5.791007 7.771484,-6.478516 a 15.334137,15.334137 0 0 0 0.06055,-0.06445 c 7.440205,-7.702618 8.376177,-13.742554 10.892578,-20.7402342 2.516402,-6.9976801 4.19806,-11.8430827 5.101563,-17.5214848 a 15.334137,15.334137 0 0 0 -1.302734,-8.970703 c 0.142514,-0.650368 0.291906,-1.314 0.332031,-1.828125 0.221887,-2.843057 -0.175773,-4.210377 -0.314453,-4.916015 a 15.334137,15.334137 0 0 0 -0.05078,-0.248047 c -0.453532,-2.121883 -0.730846,-3.590229 -1.894531,-6.628906 a 15.334137,15.334137 0 0 0 -0.06641,-0.169922 l -0.330078,-0.832032 c -0.496015,-1.455152 -1.326274,-5.079559 -6.06836,-9.107421 -5.288439,-4.690361 -10.161957,-6.407414 -16.160156,-9.013672 -5.45e-4,-2.39e-4 -0.0014,2.38e-4 -0.002,0 -12.74218,-5.573458 -28.8030905,-7.988088 -44.8398436,-7.886719 a 15.334137,15.334137 0 0 0 -0.2421875,0.0039 c -5.9621729,0.132283 -11.3371599,0.768971 -15.6386719,1.271485 l 0.05859,-0.0078 c -2.984729,0.336949 -5.420239,0.467484 -7.359375,0.548828 0.370477,-2.696351 1.255449,-6.323777 3.085937,-9.980469 1.252003,-2.501073 2.63641,-4.761065 3.669922,-6.320312 0.516756,-0.779624 0.947381,-1.386518 1.222656,-1.765625 0.137638,-0.189554 0.23706,-0.323792 0.283204,-0.384766 0.02307,-0.03049 0.03398,-0.04458 0.01758,-0.02344 -0.0164,0.02114 0.772961,-0.847127 -0.529297,0.638672 a 15.334137,15.334137 0 0 0 3.798828,-10.355469 l -0.0078,-0.478516 a 15.334137,15.334137 0 0 0 -11.730468,-14.654296 l -0.460938,-0.11133 a 15.334137,15.334137 0 0 0 -10.013672,0.97852 c 0,0 -5.606535,2.58195 -11.285156,5.203122 -2.83931,1.310586 -5.695595,2.629917 -7.888672,3.646484 -1.096538,0.508284 -2.02474,0.940367 -2.716797,1.263672 -0.346028,0.161653 -0.63065,0.29332 -0.86914,0.40625 -0.238491,0.11293 0.377702,-0.252212 -1.107422,0.554688 a 15.334137,15.334137 0 0 0 -1.851563,1.185547 l -0.693359,0.517578 a 15.334137,15.334137 0 0 0 -1.109375,0.912109 l -0.589844,0.533203 a 15.334137,15.334137 0 0 0 -0.363281,0.339844 c -2.567181,2.476038 -5.902241,6.146105 -12.917969,14.248047 a 15.334137,15.334137 0 0 0 -0.0098,0.01367 c -10.287387,11.907168 -16.49231,11.567703 -24.269528,9.667968 a 15.334137,15.334137 0 0 0 -0.12891,-0.03125 c 1.0886,0.256033 -1.12575,-0.825852 -1.60352,-1.115234 -0.0185,-0.207914 -0.64735,-1.407063 -0.89648,-3.378906 -0.33592,-2.658756 -0.20193,-5.873838 -0.0488,-7.886719 0.17682,-2.118079 0.30578,-3.028709 0.32617,-3.167969 a 15.334137,15.334137 0 0 0 0.3418,-6.322265 l -0.082,-0.527344 a 15.334137,15.334137 0 0 0 -13.74414,-12.910157 l -0.44531,-0.041 a 15.334137,15.334137 0 0 0 -10.58985,2.990239 l 0.91797,-0.6875 -15.89844,7.763672 c -6.79184,-20.907411 -26.47521,-34.714061 -48.59179,-35.728511 z m 7.91015,28.400386 0.27539,0.08789 c -0.0379,-0.01234 -0.0793,-0.01705 -0.11718,-0.0293 -0.0466,-0.01453 -0.11248,-0.04465 -0.15821,-0.05859 z m 80.55078,31.34375 c 0.0795,0.07829 0.0703,0.04395 0.11133,0.07617 -0.008,-0.0055 -0.0704,-0.03719 -0.0742,-0.04102 a 15.334137,15.334137 0 0 0 -0.0371,-0.03516 z M 17.628906,-3.0078125 c 0.822868,-0.023518 1.161136,0.1127671 1.683594,0.6035156 a 15.334137,15.334137 0 0 0 0.05469,0.048828 c 0.475812,0.4427119 0.678795,0.8691352 0.71875,1.66210943 C 20.113129,0.70372939 19.204704,1.686426 17.806641,1.7539062 17.006859,1.7727471 16.589864,1.6106818 16.078125,1.1328125 A 15.334137,15.334137 0 0 0 16.0625,1.1191406 C 15.56538,0.65623523 15.3746,0.24538579 15.337891,-0.52929687 15.295422,-1.970385 16.209386,-2.9418304 17.628906,-3.0078125 Z M 45.4375,-1.4394531 v 0.027344 c -1.06e-4,-0.00333 -0.0018,-0.00644 -0.002,-0.00977 -1.99e-4,-0.006 0.0022,-0.011576 0.002,-0.017578 z M -9.9121094,0.43554688 c 2.815e-4,0.009291 0.00362,0.0180541 0.00391,0.0273438 2.834e-4,0.008649 -0.00224,0.0167407 -0.00195,0.0253906 z"/></g><g id="g27" transform="matrix(0.65666297,0,0,0.65666297,60.034369,24.32427)" style="fill:#fff"><g id="g3" transform="translate(134,60.29)" style="fill:#fff"><path id="path3" style="fill:#fff" d="m -7.9902344,-57.787109 c -7.2491186,0 -14.6464846,6.830969 -14.6464846,14.447265 v 1.041016 c 0,4.282573 2.373327,8.281289 5.714844,11 -3.393931,3.70464 -5.625,8.61637 -5.625,14.328125 v 5.839844 c 0,5.5603843 2.114182,10.2887789 5.888672,14.380859 C -12.883714,7.3420801 -6.8471814,10.486328 0,10.486328 a 10.487429,10.487429 0 0 0 0.01367188,0.002 H 20.933594 c 7.353762,0 14.736328,-6.5902712 14.736328,-14.4667966 v -1.0410156 c 0,-3.2310203 -1.288936,-6.2317988 -3.275391,-8.6796878 0.04662,-0.04029 0.10009,-0.06266 0.146485,-0.103515 4.059537,-3.575036 6.595703,-9.415253 6.595703,-15.316407 v -6.302734 c 0,-5.702208 -1.809357,-11.480714 -5.796875,-15.779297 -3.987519,-4.298583 -9.928659,-6.585937 -15.708985,-6.585937 z"/></g><g id="g4" transform="translate(206.8,60.29)" style="fill:#fff"><path id="path4" style="fill:#fff" d="m -22.474609,-58.726562 c -12.787586,-10e-7 -24.636719,10.5281 -24.636719,23.585937 v 30.96875 c 0,8.1832503 7.11689,15.318359 15.316406,15.318359 h 1.310547 c 8.127582,0 14.898697,-6.628531 15.25,-14.6796871 C -14.88197,4.4667516 -8.1233008,11.146484 0,11.146484 H 0.00585938 1.3242187 c 8.2055794,0 15.3066403,-7.1535043 15.3066403,-15.318359 v -30.96875 c 0,-13.057284 -11.8423598,-23.585938 -24.6249996,-23.585937 z"/></g><g id="g5" transform="translate(232.8,60.29)" style="fill:#fff"><path id="path5" style="fill:#fff" d="m -8.0097656,-57.396484 c -7.0795644,0 -14.2558594,6.606155 -14.2558594,14.05664 v 1.041016 c 0,4.333442 2.538619,8.213758 5.96875,10.849609 -3.540443,3.671105 -5.869141,8.659976 -5.869141,14.478516 v 5.839844 c 0,5.4483345 2.084524,10.104121 5.796875,14.1230465 3.710884,4.0173358 9.627941,7.1010755 16.3613285,7.1035155 0.00266439,10e-7 0.00514785,0 0.0078125,0 a 10.09725,10.09725 0 0 0 0.00390625,0.002 H 20.914062 c 7.160214,0 14.355469,-6.411932 14.355469,-14.0761716 v -1.0410156 c 0,-3.2769546 -1.363895,-6.3118328 -3.443359,-8.7460938 0.14633,-0.121174 0.308981,-0.197516 0.453125,-0.324219 3.979408,-3.49791 6.476562,-9.214801 6.476562,-15.029297 v -6.302734 c 0,-5.63345 -1.794421,-11.31264 -5.710937,-15.523437 -3.916517,-4.210798 -9.735611,-6.451172 -15.425781,-6.451172 z"/></g><g id="g6" transform="translate(273.7,60.29)" style="fill:#fff"><path id="path6" style="fill:#fff" d="m -0.09179687,-56.757812 c -7.00372443,-10e-7 -13.41992213,6.401387 -13.41992213,13.416015 v 39.3613282 c 0,7.104937 6.5086567,13.4121609 13.47656275,13.4335938 a 9.4583871,9.4583871 0 0 0 0.0234375,0.00977 H 29.958984 c 6.812193,0 13.617188,-6.3318945 13.617188,-13.4394531 V -5.015625 c 0,-4.9662175 -3.432138,-9.42721 -7.765625,-11.736328 1.265967,-1.990215 2.207031,-4.156627 2.207031,-6.525391 v -1.041015 c 0,-2.040792 -0.664618,-3.952128 -1.623047,-5.732422 4.721543,-2.151787 8.492188,-6.986579 8.492188,-12.248047 v -1.042969 c -3e-6,-7.094863 -6.844888,-13.416015 -13.617188,-13.416015 z"/></g><g id="g7" transform="translate(5.053,20.49)" style="fill:#fff"><path id="path7" style="fill:#fff" d="m 1.8378906,-19.523437 c -10.3623272,0 -18.8730466,8.64816 -18.8730466,18.93359325 V 14.25 c 0,10.544781 8.9643504,18.8125 19.1113279,18.8125 h 9.1210941 c 10.152207,0 19.113281,-8.257748 19.113281,-18.8125 V -0.58984375 C 30.310547,-10.875277 21.799827,-19.523437 11.4375,-19.523437 Z M 6.5371094,5.2792969 C 7.291832,5.6211115 7.9399618,6.1338163 8.5742188,6.6601562 7.9424488,7.2132174 7.280669,7.7309973 6.5390625,8.1074219 5.7704573,7.7285154 5.0698343,7.2359849 4.4335937,6.6660156 5.0706313,6.1231074 5.7483485,5.6241379 6.5371094,5.2792969 Z"/></g><g id="g8" transform="translate(35.51,20.78)" style="fill:#fff"><path id="path8" style="fill:#fff" d="m -2.9433594,-32.052734 c -7.1032346,0 -13.3828126,6.277229 -13.3828126,13.382812 v 37.640625 c 0,6.495121 5.268079,13.089844 12.9160157,13.089844 h 0.9472657 c 1.93949885,0 3.5023891,-0.43784 4.8671875,-1.007813 1.979127,0.642116 4.4165575,1.181641 7.1972656,1.181641 h 0.8867185 c 4.639542,0 9.615211,-1.470032 13.408203,-4.949219 3.792993,-3.479186 5.814453,-8.75666 5.814453,-13.613281 V -0.69921875 c 0,-4.79631655 -1.953026,-10.12200225 -5.785156,-13.64062525 -3.633263,-3.336026 -8.316052,-4.734181 -12.710937,-4.875 -0.305246,-7.020299 -6.3162089,-12.83789 -13.3359378,-12.83789 z M 6.6933594,5.9296875 c 0.3154454,0.1756579 0.5921938,0.4103205 0.8867187,0.625 C 7.281606,6.7589592 7.0128361,7.0002339 6.6894531,7.1640625 6.3676054,7.0010654 6.0997629,6.7616486 5.8027344,6.5585937 6.0986203,6.3426576 6.3763322,6.1062219 6.6933594,5.9296875 Z"/></g><g id="g9" transform="translate(66.07,34.09)" style="fill:#fff"><path id="path9" style="fill:#fff" d="m 1.7148437,-32.847656 c -10.5721304,0 -18.4707027,8.609405 -18.4707027,18.769531 V 0.65039062 c 0,10.37301038 8.8223535,18.53691938 18.8261715,18.53906238 0.00131,0 0.00259,0 0.00391,0 a 11.709909,11.709909 0 0 0 0.00195,0.002 h 9.2480471 c 10.018814,0 18.820312,-8.148204 18.820312,-18.53906225 V -5.0566406 c 0,-3.4542784 -1.161138,-7.7686014 -4.292969,-11.0019534 -0.19881,-0.205255 -0.443244,-0.337097 -0.652343,-0.527343 0.113265,-0.629984 0.236328,-1.259207 0.236328,-1.902344 v -0.648438 c 0,-7.14023 -7.183741,-13.710937 -13.818359,-13.710937 z m 4.9863282,25.1171873 c 0.527014,0.2894547 1.0095006,0.647587 1.4785156,1.0332031 -1.9783858,1.4992445 -4.0041008,1.9082031 -4.6992187,1.9082031 H 9.921875 c 0.272103,0.3809222 0.588902,0.7295367 0.800781,1.1425781 L 6.6816406,0.40820313 2.65625,-3.6171875 c 0.8869408,-1.7298812 2.3332213,-3.1716886 4.0449219,-4.1132812 z"/></g><g id="g10" transform="translate(104.9,41.74)" style="fill:#fff"><path id="path10" style="fill:#fff" d="m -12.537109,-40.0625 c -7.112745,-6e-6 -13.388672,6.269885 -13.388672,13.380859 v 24.6914066 c 0,6.1862334 6.136582,13.0917974 12.976562,13.0917974 h 0.816406 c 1.396454,0 2.9726603,-0.497651 4.539063,-1.1738286 C -5.5407394,10.641136 -3.0426203,11.273438 0,11.273438 h 0.88085938 c 4.64048512,0 9.61803562,-1.469244 13.41210962,-4.9492193 3.794073,-3.4799752 5.814453,-8.7587419 5.814453,-13.6152343 V -26.681641 c 0,-7.313744 -6.130322,-13.380859 -13.3925783,-13.380859 H 5.890625 c -3.3078099,0 -6.34572159,1.430651 -8.734375,3.570313 -2.3917335,-2.161545 -5.4790249,-3.570313 -8.878906,-3.570313 z M -0.80273438,4.4121094 c -0.11177015,0.1567421 -0.14509338,0.2165761 -0.29882812,0.3984375 0.091881,-0.1355135 0.21583877,-0.2611325 0.29882812,-0.3984375 z"/></g><g id="g11" transform="translate(315.4,18.75)" style="fill:#fff"><path id="path11" style="fill:#fff" d="m 0.73046875,-9.8261719 c -5.22276785,0 -9.63476565,4.4545928 -9.63476565,9.68359378 0,5.24235982 4.3719515,9.67187502 9.63476565,9.67187502 h 0.015625 c 5.25968125,0 9.60156225,-4.4872623 9.60156225,-9.67187502 0,-5.17225378 -4.400928,-9.68359378 -9.61718725,-9.68359378 z m 0.007813,7.2285156 c 1.57512245,0.00553 2.62695315,1.3186507 2.62695315,2.4570313 0,1.03838064 -1.1178147,2.4086239 -2.58789065,2.4316406 -1.54488499,-0.00597 -2.66601565,-1.39687718 -2.66601565,-2.44921872 0,-1.05612248 1.10157654,-2.43361748 2.62695315,-2.43945318 z m 7.14453125,2.03710943 -0.015625,0.10156249 c 0.00331,-0.0214096 -0.017836,0.0541901 -0.015625,0.0390625 0.00647,-0.0436348 0.025393,-0.097763 0.03125,-0.14062499 z M 5.3125,6.3554687 5.2753906,6.3828125 c 0.00516,-0.00374 0.00657,-0.011861 0.011719,-0.015625 0.0085,-0.00622 0.016888,-0.00545 0.025391,-0.011719 z"/></g></g></g><rect style="fill:#fff;fill-rule:evenodd;stroke-width:1.27898" id="rect40" width="27.878" height="17.01" x="233.278" y="-145.161" transform="scale(1,-1)"/><rect style="fill:#fff;fill-rule:evenodd;stroke-width:1.27898" id="rect41" width="32.13" height="14.175" x="102.394" y="-48.77" transform="scale(1,-1)"/><rect style="fill:#fff;fill-rule:evenodd;stroke-width:1.27898" id="rect42" width="43.943" height="8.033" x="60.814" y="-46.407" transform="scale(1,-1)"/></g></g><metadata id="metadata27"/><g id="g44" style="display:inline" transform="matrix(1.0176424,0,0,1.0176424,-179.80374,-146.50088)"><g id="g39" clip-path="url(#vlpa)" transform="matrix(0.78187089,0,0,-0.78187089,148.2534,318.53493)" style="display:inline"><g id="g28" transform="matrix(0.71103353,0,0,0.71103353,234.83596,137.84923)"><path d="m 0,0 c 0.175,4.73 2.156,9.12 5.614,12.34 3.46,3.231 7.975,4.9 12.71,4.75 9.761,-0.349 17.43,-8.589 17.1,-18.34 C 35.24,-5.98 33.26,-10.37 29.81,-13.58 26.35,-16.83 21.846,-18.5 17.09,-18.34 7.341,-17.981 -0.32,-9.76 0.01,0 Z m 47.35,-17.44 c 0.805,0.532 1.396,0.972 1.645,1.07 l 0.269,0.419 c -0.681,4.28 -7.06,25.03 -11.88,30.02 -1.329,1.36 -2.394,2.7 -4.549,3.961 -17.46,10.17 -58.86,16.31 -60.8,16.59 l -0.33,-0.091 -0.124,-0.3 c 0,0 -0.16,-8.58 -0.184,-9.539 -4.229,1.421 -34.97,11.35 -63.79,12.35 -24.44,0.859 -60.03,4.02 -107.2,-24.98 l -1.395,-0.868 c -22.19,-13.84 -37.51,-30.91 -45.52,-50.74 -2.512,-6.24 -5.89,-20.32 -2.542,-33.57 1.442,-5.791 4.131,-11.61 7.756,-16.82 8.194,-11.77 21.94,-19.58 36.75,-20.9 20.9,-1.87 36.73,7.519 42.36,25.1 3.871,12.13 0,29.93 -14.84,39.01 -12.07,7.391 -25.05,5.711 -32.58,0.73 -6.532,-4.331 -10.23,-11.06 -10.17,-18.45 0.151,-13.11 11.44,-20.08 19.56,-20.1 2.359,0 4.728,0.41 7.399,1.28 0.951,0.29 1.845,0.649 2.831,1.259 l 0.309,0.181 0.194,0.13 -0.065,-0.039 c 1.851,1.261 2.964,3.312 2.964,5.511 0,0.6 -0.084,1.208 -0.256,1.82 -0.959,3.32 -4.239,5.329 -7.638,4.71 l -0.459,-0.109 -0.621,-0.19 -0.901,-0.31 c -1.87,-0.46 -3.27,-0.5 -3.569,-0.51 -0.951,0.061 -5.625,1.461 -5.625,6.58 v 0.07 c 0,1.88 0.754,3.199 1.17,3.92 1.454,2.28 5.435,4.518 10.81,4.05 7.059,-0.611 12.15,-4.231 15.52,-11.06 3.129,-6.349 2.31,-14.16 -2.11,-19.88 -4.39,-5.669 -12.2,-8.078 -22.6,-6.959 -10.48,1.159 -19.34,7.19 -24.3,16.58 -4.856,9.178 -5.121,20.06 -0.685,28.42 10.61,20.03 30.65,19.82 41.64,17.92 16.26,-2.821 34.76,-17.82 41.32,-35.14 1.06,-2.761 1.6,-4.949 2.072,-6.951 l 0.708,-2.99 18.37,-8.969 0.24,-0.181 0.446,0.041 0.081,0.529 c -0.114,0.411 -0.381,0.789 -0.805,5.93 -0.349,4.562 -1.06,17.05 5.228,23.24 2.441,2.419 6.161,4.578 9.099,5.269 12.04,2.941 26.16,0.912 39.51,-14.54 6.911,-7.981 10.28,-11.62 11.97,-13.25 l 0.59,-0.532 0.694,-0.519 c 0.554,-0.301 22.96,-10.62 22.96,-10.62 l 0.461,0.11 0.009,0.479 c -0.149,0.17 -14.2,18.33 -11.7,33.28 1.969,11.91 11.45,10.83 24.56,9.35 4.28,-0.5 9.152,-1.06 14.2,-1.172 14.08,-0.089 29.25,2.511 38.6,6.601 6.049,2.63 9.909,4.38 12.33,6.579 0.87,0.721 1.32,1.891 1.791,3.15 l 0.329,0.831 c 0.391,1.021 0.967,3.171 1.219,4.35 0.102,0.519 0.162,1.068 -0.209,1.359 l -1.294,-0.24 c -4.106,-2.471 -14.37,-7.15 -23.96,-7.35 -11.91,-0.241 -35.9,11.98 -38.4,13.28 l -0.241,0.279 c -0.589,1.44 -4.19,9.949 -4.96,11.75 17.27,-11.38 31.59,-17.67 42.56,-18.64 12.21,-1.087 21.72,5.574 25.79,8.422 H 47.361 Z M 20.2,-1.64 c -3.031,0 -5.479,1.64 -5.479,3.65 0,2.029 2.448,3.66 5.479,3.66 3.031,0 5.486,-1.631 5.486,-3.66 C 25.684,0 23.229,-1.64 20.2,-1.64 M 18.179,11.87 C 14.868,11.989 11.729,10.819 9.329,8.569 6.93,6.319 5.515,3.271 5.415,-0.03 c -0.23,-6.821 5.111,-12.56 11.92,-12.81 3.309,-0.1 6.464,1.07 8.878,3.32 2.409,2.261 3.795,5.311 3.9,8.599 0.23,6.819 -5.109,12.55 -11.93,12.79 z" style="fill:#73ba25" id="path27"/></g><g id="g38" transform="matrix(0.65666297,0,0,0.65666297,60.034369,24.32427)"><g id="g29" transform="translate(134,60.29)"><path d="m 0,0 c -7.784,0 -12.06,-6.58 -12.06,-11.13 v -5.84 c 0,-6.7 5.474,-10.85 10.55,-10.85 h 17.82 c 2.245,0 2.715,-1.47 2.715,-2.71 v -3.769 c 0,-0.4 -0.081,-4.02 -2.715,-4.02 h -24.3 c -2.415,0 -4.161,-1.68 -4.161,-3.98 v -1.041 c 0,-2.291 1.746,-3.961 4.161,-3.961 h 25.62 c 6.698,0 11.02,4.66 11.02,11.88 v 6.302 c 0,6.779 -4.87,9.809 -9.706,9.809 H 1.414 c -2.64,0 -3.836,1.98 -3.836,3.38 v 3.48 c 0,2.19 1.465,3.46 4.025,3.46 h 19.41 c 2.38,0 4.171,1.71 4.171,3.971 v 1.04 c 0,2.269 -1.821,3.981 -4.251,3.981 H 0.013 Z" style="fill:#73ba25" id="path28"/></g><g id="g30" transform="translate(206.8,60.29)"><path d="m 0,0 c -2.301,0 -4.155,-1.87 -4.155,-4.171 v -29.84 c 0,-2.391 -1.95,-4.311 -4.311,-4.311 h -13.54 c -2.369,0 -4.309,1.92 -4.309,4.311 v 29.84 c 0,2.301 -1.87,4.171 -4.169,4.171 h -1.31 c -2.335,0 -4.171,-1.842 -4.171,-4.171 v -30.97 c 0,-7.21 5.674,-12.44 13.49,-12.44 h 14.48 c 7.805,0 13.48,5.229 13.48,12.44 v 30.97 C 5.485,-1.842 3.656,0 1.325,0 H 0.006 Z" style="fill:#73ba25" id="path29"/></g><g id="g31" transform="translate(232.8,60.29)"><path d="m 0,0 c -7.78,0 -12.07,-6.58 -12.07,-11.13 v -5.84 c 0,-6.7 5.485,-10.85 10.56,-10.85 H 16.3 c 2.248,0 2.72,-1.47 2.72,-2.71 v -3.769 c 0,-0.4 -0.081,-4.02 -2.72,-4.02 H -8.01 c -2.404,0 -4.16,-1.68 -4.16,-3.98 v -1.041 c 0,-2.291 1.756,-3.961 4.16,-3.961 h 25.63 c 6.7,0 11.04,4.66 11.04,11.88 v 6.302 c 0,6.779 -4.884,9.809 -9.72,9.809 H 1.41 c -2.646,0 -3.839,1.98 -3.839,3.38 v 3.48 c 0,2.19 1.464,3.46 4.025,3.46 h 19.42 c 2.374,0 4.158,1.71 4.158,3.971 v 1.04 c 0,2.269 -1.819,3.981 -4.26,3.981 H 0.004 Z" style="fill:#73ba25" id="path30"/></g><g id="g32" transform="translate(273.7,60.29)"><path d="m 0,0 c -2.31,0 -4.055,-1.712 -4.055,-3.981 v -39.36 c 0,-2.259 1.705,-3.96 3.964,-3.96 h 31.36 c 2.415,0 4.16,1.67 4.16,3.96 v 1.042 c 0,2.3 -1.745,3.98 -4.16,3.98 H 5.579 v 10.02 h 18.82 c 2.41,0 4.161,1.69 4.161,3.981 v 1.04 c 0,2.301 -1.751,3.971 -4.161,3.971 H 5.579 v 10.32 h 24.38 c 2.406,0 4.16,1.659 4.16,3.971 v 1.04 c 0,2.301 -1.754,3.981 -4.16,3.981 H -0.011 V 0 Z" style="fill:#73ba25" id="path31"/></g><g id="g33" transform="translate(5.053,20.49)"><path d="m 0,0 v 13.55 c 0,1.589 1.305,2.889 2.901,2.889 h 7.478 c 1.561,0 2.891,-1.329 2.891,-2.889 V 0 c 0,-1.6 -1.295,-2.899 -2.891,-2.899 H 2.845 C 1.245,-2.899 0,-1.628 0,0 m 2.077,21.08 c -3.931,0 -7.13,-3.059 -7.13,-6.83 V -0.59 c 0,-3.831 3.096,-6.951 6.891,-6.951 h 9.599 c 3.795,0 6.891,3.12 6.891,6.951 v 14.84 c 0,3.769 -3.201,6.83 -7.13,6.83 H 2.076 Z" style="fill:#73ba25" id="path32"/></g><g id="g34" transform="translate(35.51,20.78)"><path d="m 0,0 v 12.96 c 0,1.791 1.4,3.189 3.188,3.189 h 7.011 c 1.79,0 3.188,-1.4 3.188,-3.189 V 0 c 0,-1.759 -1.435,-3.188 -3.188,-3.188 H 3.188 C 1.433,-3.188 0,-1.759 0,0 Z m 9.602,20.96 c -2.767,0 -4.854,-0.989 -6.529,-1.799 -1.021,-0.49 -1.905,-0.912 -2.591,-0.912 -0.31,0 -0.575,0.14 -0.715,0.37 l -0.639,1.22 c -0.159,0.321 -0.799,0.949 -1.59,0.949 h -0.949 c -0.912,0 -1.642,-0.819 -1.642,-1.818 v -37.64 c 0,-1.18 0.931,-2.11 2.11,-2.11 h 0.821 c 1.17,0 2.12,0.94 2.12,2.11 v 12.49 c 0,0.37 0.241,0.77 0.484,0.77 0.686,0 1.57,-0.402 2.591,-0.87 1.675,-0.77 3.762,-1.719 6.529,-1.719 h 0.886 c 4.9,0 7.949,2.801 7.949,7.3 v 14.37 c 0,4.43 -3.114,7.29 -7.949,7.29 H 9.602 v 0.002 z" style="fill:#73ba25" id="path33"/></g><g id="g35" transform="translate(66.07,34.09)"><path d="m 0,0 c 0,1.591 1.251,2.839 2.843,2.839 h 7.71 c 1.589,0 2.829,-1.248 2.829,-2.839 V -4.599 H 0.002 C 0.004,-3.999 0.004,0 0.004,0 Z m 2.075,7.48 c -3.931,0 -7.121,-3.058 -7.121,-6.829 v -14.73 c 0,-3.82 3.101,-7.059 6.76,-7.059 h 9.903 c 1.225,0 2.11,0.848 2.11,2.001 v 0.649 c 0,1.159 -0.885,1.99 -2.11,1.99 H 3.481 c -2.28,0 -3.483,1.121 -3.483,3.252 v 4.309 h 14.68 c 2.361,0 3.757,1.44 3.757,3.88 v 5.71 c 0,3.769 -3.196,6.83 -7.11,6.83 H 2.077 V 7.479 Z" style="fill:#73ba25" id="path34"/></g><g id="g36" transform="translate(104.9,41.74)"><path d="m 0,0 c -2.759,0 -4.841,-0.989 -6.521,-1.791 -1.045,-0.491 -1.938,-0.92 -2.667,-0.92 -0.321,0 -0.451,0.04 -0.7,0.471 l -0.581,1.06 c -0.333,0.67 -0.899,1.008 -1.664,1.008 h -0.816 c -0.985,0 -1.704,-0.768 -1.704,-1.819 v -24.69 c 0,-1.169 0.924,-2.109 2.115,-2.109 h 0.815 c 1.17,0 2.124,0.95 2.124,2.109 v 18.68 c 0,1.75 1.43,3.188 3.18,3.188 h 7.014 c 1.755,0 3.185,-1.438 3.185,-3.188 v -18.68 c 0,-1.169 0.929,-2.109 2.11,-2.109 h 0.824 c 1.17,0 2.12,0.95 2.12,2.109 v 19.39 C 8.834,-2.86 5.719,0 0.88,0 Z" style="fill:#73ba25" id="path35"/></g><g id="g37" transform="translate(315.4,18.75)"><path d="m 0,0 h 0.503 c 0.574,0 1.06,0.207 1.06,0.747 0,0.382 -0.277,0.765 -1.06,0.765 C 0.277,1.512 0.121,1.494 0,1.475 Z M 0,-2.415 H -0.695 V 1.943 C -0.33,1.996 0.018,2.048 0.538,2.048 1.2,2.048 1.633,1.91 1.892,1.719 2.154,1.529 2.294,1.235 2.294,0.815 2.294,0.244 1.912,-0.104 1.443,-0.244 V -0.281 C 1.826,-0.349 2.085,-0.696 2.173,-1.34 2.278,-2.019 2.38,-2.278 2.45,-2.417 H 1.721 C 1.615,-2.278 1.512,-1.878 1.426,-1.305 1.321,-0.751 1.043,-0.54 0.488,-0.54 H 0.002 V -2.415 Z M 0.73,3.16 c -1.719,0 -3.126,-1.476 -3.126,-3.3 0,-1.859 1.407,-3.317 3.143,-3.317 1.736,-0.019 3.126,1.458 3.126,3.299 0,1.842 -1.39,3.318 -3.126,3.318 z m 0.017,0.607 c 2.136,0 3.838,-1.736 3.838,-3.909 0,-2.205 -1.703,-3.923 -3.855,-3.923 -2.137,0 -3.873,1.718 -3.873,3.923 0,2.171 1.736,3.909 3.873,3.909 z" style="fill:#73ba25" id="path36"/></g></g></g></g></svg>